%TF.GenerationSoftware,KiCad,Pcbnew,(5.1.6)-1*%
%TF.CreationDate,2022-01-07T20:02:18-04:00*%
%TF.ProjectId,LCD_adapter,4c43445f-6164-4617-9074-65722e6b6963,rev?*%
%TF.SameCoordinates,Original*%
%TF.FileFunction,Legend,Top*%
%TF.FilePolarity,Positive*%
%FSLAX46Y46*%
G04 Gerber Fmt 4.6, Leading zero omitted, Abs format (unit mm)*
G04 Created by KiCad (PCBNEW (5.1.6)-1) date 2022-01-07 20:02:18*
%MOMM*%
%LPD*%
G01*
G04 APERTURE LIST*
%ADD10C,0.125000*%
%ADD11C,0.120000*%
%ADD12C,0.150000*%
G04 APERTURE END LIST*
D10*
X151862689Y-105457181D02*
X151896361Y-105524525D01*
X151896361Y-105558197D01*
X151879525Y-105608704D01*
X151829017Y-105659212D01*
X151778510Y-105676048D01*
X151744838Y-105676048D01*
X151694330Y-105659212D01*
X151559643Y-105524525D01*
X151913197Y-105170971D01*
X152031048Y-105288823D01*
X152047884Y-105339330D01*
X152047884Y-105373002D01*
X152031048Y-105423510D01*
X151997376Y-105457181D01*
X151946868Y-105474017D01*
X151913197Y-105474017D01*
X151862689Y-105457181D01*
X151744838Y-105339330D01*
X152367765Y-105625540D02*
X152115227Y-105878078D01*
X152047884Y-105911750D01*
X151980540Y-105911750D01*
X151913197Y-105878078D01*
X151879525Y-105844406D01*
X152182571Y-106147452D02*
X152536124Y-105793899D01*
X152620303Y-106585185D02*
X152856006Y-106349483D01*
X152973857Y-106231632D02*
X152940185Y-106231632D01*
X152940185Y-106265303D01*
X152973857Y-106265303D01*
X152973857Y-106231632D01*
X152940185Y-106265303D01*
X153024364Y-106517841D02*
X152788662Y-106753544D01*
X152990693Y-106551513D02*
X153024364Y-106551513D01*
X153074872Y-106568349D01*
X153125380Y-106618857D01*
X153142215Y-106669364D01*
X153125380Y-106719872D01*
X152940185Y-106905067D01*
X153276902Y-107208112D02*
X153226395Y-107191276D01*
X153159051Y-107123933D01*
X153142215Y-107073425D01*
X153142215Y-107039754D01*
X153159051Y-106989246D01*
X153260067Y-106888231D01*
X153310574Y-106871395D01*
X153344246Y-106871395D01*
X153394754Y-106888231D01*
X153462097Y-106955574D01*
X153478933Y-107006082D01*
X153445261Y-107342799D02*
X153445261Y-107376471D01*
X153411589Y-107376471D01*
X153411589Y-107342799D01*
X153445261Y-107342799D01*
X153411589Y-107376471D01*
X153984009Y-107679517D02*
X154253383Y-107948891D01*
X154792131Y-108285608D02*
X154556429Y-108521311D01*
X154758460Y-108319280D02*
X154792131Y-108319280D01*
X154842639Y-108336116D01*
X154893147Y-108386624D01*
X154909982Y-108437131D01*
X154893147Y-108487639D01*
X154707952Y-108672834D01*
X155027834Y-108992715D02*
X155213028Y-108807521D01*
X155229864Y-108757013D01*
X155213028Y-108706505D01*
X155145685Y-108639162D01*
X155095177Y-108622326D01*
X155044669Y-108975879D02*
X154994162Y-108959043D01*
X154909982Y-108874864D01*
X154893147Y-108824356D01*
X154909982Y-108773849D01*
X154943654Y-108740177D01*
X154994162Y-108723341D01*
X155044669Y-108740177D01*
X155128849Y-108824356D01*
X155179356Y-108841192D01*
X155431895Y-108925372D02*
X155196192Y-109161074D01*
X155398223Y-108959043D02*
X155431895Y-108959043D01*
X155482402Y-108975879D01*
X155532910Y-109026387D01*
X155549746Y-109076895D01*
X155532910Y-109127402D01*
X155347715Y-109312597D01*
X155566582Y-109531463D02*
X155549746Y-109480956D01*
X155549746Y-109447284D01*
X155566582Y-109396776D01*
X155667597Y-109295761D01*
X155718104Y-109278925D01*
X155751776Y-109278925D01*
X155802284Y-109295761D01*
X155852791Y-109346269D01*
X155869627Y-109396776D01*
X155869627Y-109430448D01*
X155852791Y-109480956D01*
X155751776Y-109581971D01*
X155701269Y-109598807D01*
X155667597Y-109598807D01*
X155617089Y-109581971D01*
X155566582Y-109531463D01*
X156139001Y-109464120D02*
X156172673Y-109464120D01*
X156223181Y-109480956D01*
X156307360Y-109565135D01*
X156324196Y-109615643D01*
X156324196Y-109649314D01*
X156307360Y-109699822D01*
X156273688Y-109733494D01*
X156206345Y-109767165D01*
X155802284Y-109767165D01*
X156021150Y-109986032D01*
X156341032Y-110305913D02*
X156172673Y-110137555D01*
X156526226Y-109784001D01*
X156694585Y-110592123D02*
X156660913Y-110592123D01*
X156593570Y-110558452D01*
X156559898Y-110524780D01*
X156526226Y-110457436D01*
X156526226Y-110390093D01*
X156543062Y-110339585D01*
X156593570Y-110255406D01*
X156644078Y-110204898D01*
X156728257Y-110154391D01*
X156778765Y-110137555D01*
X156846108Y-110137555D01*
X156913452Y-110171226D01*
X156947123Y-110204898D01*
X156980795Y-110272242D01*
X156980795Y-110305913D01*
X156812436Y-110777318D02*
X157165990Y-110423765D01*
X157250169Y-110507944D01*
X157283841Y-110575287D01*
X157283841Y-110642631D01*
X157267005Y-110693139D01*
X157216497Y-110777318D01*
X157165990Y-110827826D01*
X157081810Y-110878333D01*
X157031303Y-110895169D01*
X156963959Y-110895169D01*
X156896616Y-110861497D01*
X156812436Y-110777318D01*
X157586887Y-111551768D02*
X157772081Y-111366574D01*
X157788917Y-111316066D01*
X157772081Y-111265558D01*
X157704738Y-111198215D01*
X157654230Y-111181379D01*
X157603723Y-111534932D02*
X157553215Y-111518097D01*
X157469036Y-111433917D01*
X157452200Y-111383410D01*
X157469036Y-111332902D01*
X157502707Y-111299230D01*
X157553215Y-111282394D01*
X157603723Y-111299230D01*
X157687902Y-111383410D01*
X157738410Y-111400245D01*
X157906768Y-111871650D02*
X158260322Y-111518097D01*
X157923604Y-111854814D02*
X157873097Y-111837978D01*
X157805753Y-111770635D01*
X157788917Y-111720127D01*
X157788917Y-111686455D01*
X157805753Y-111635948D01*
X157906768Y-111534932D01*
X157957276Y-111518097D01*
X157990948Y-111518097D01*
X158041455Y-111534932D01*
X158108799Y-111602276D01*
X158125635Y-111652784D01*
X158226650Y-112191532D02*
X158411845Y-112006337D01*
X158428680Y-111955829D01*
X158411845Y-111905322D01*
X158344501Y-111837978D01*
X158293993Y-111821142D01*
X158243486Y-112174696D02*
X158192978Y-112157860D01*
X158108799Y-112073680D01*
X158091963Y-112023173D01*
X158108799Y-111972665D01*
X158142471Y-111938993D01*
X158192978Y-111922158D01*
X158243486Y-111938993D01*
X158327665Y-112023173D01*
X158378173Y-112040009D01*
X158630711Y-112124188D02*
X158277158Y-112477741D01*
X158613875Y-112141024D02*
X158664383Y-112157860D01*
X158731726Y-112225203D01*
X158748562Y-112275711D01*
X158748562Y-112309383D01*
X158731726Y-112359890D01*
X158630711Y-112460906D01*
X158580203Y-112477741D01*
X158546532Y-112477741D01*
X158496024Y-112460906D01*
X158428680Y-112393562D01*
X158411845Y-112343054D01*
X158900085Y-112393562D02*
X159034772Y-112528249D01*
X159068444Y-112326219D02*
X158765398Y-112629264D01*
X158748562Y-112679772D01*
X158765398Y-112730280D01*
X158799070Y-112763951D01*
X159068444Y-112999654D02*
X159017936Y-112982818D01*
X158950593Y-112915474D01*
X158933757Y-112864967D01*
X158950593Y-112814459D01*
X159085280Y-112679772D01*
X159135787Y-112662936D01*
X159186295Y-112679772D01*
X159253638Y-112747115D01*
X159270474Y-112797623D01*
X159253638Y-112848131D01*
X159219967Y-112881802D01*
X159017936Y-112747115D01*
X159219967Y-113184848D02*
X159455669Y-112949146D01*
X159388325Y-113016489D02*
X159438833Y-112999654D01*
X159472505Y-112999654D01*
X159523012Y-113016489D01*
X159556684Y-113050161D01*
D11*
%TO.C,J2*%
X162500000Y-63440000D02*
X163830000Y-63440000D01*
X162500000Y-64770000D02*
X162500000Y-63440000D01*
X162500000Y-66040000D02*
X165160000Y-66040000D01*
X165160000Y-66040000D02*
X165160000Y-101660000D01*
X162500000Y-66040000D02*
X162500000Y-101660000D01*
X162500000Y-101660000D02*
X165160000Y-101660000D01*
%TO.C,J1*%
X152340000Y-63440000D02*
X153670000Y-63440000D01*
X152340000Y-64770000D02*
X152340000Y-63440000D01*
X152340000Y-66040000D02*
X155000000Y-66040000D01*
X155000000Y-66040000D02*
X155000000Y-101660000D01*
X152340000Y-66040000D02*
X152340000Y-101660000D01*
X152340000Y-101660000D02*
X155000000Y-101660000D01*
%TO.C,A1*%
X165100000Y-99060000D02*
X165100000Y-101600000D01*
X165100000Y-101600000D02*
X167770000Y-101600000D01*
X167770000Y-99060000D02*
X167770000Y-60830000D01*
X167770000Y-104270000D02*
X167770000Y-101600000D01*
X152400000Y-101600000D02*
X149730000Y-101600000D01*
X152400000Y-101600000D02*
X152400000Y-63500000D01*
X152400000Y-63500000D02*
X149730000Y-63500000D01*
X165100000Y-99060000D02*
X167770000Y-99060000D01*
X165100000Y-99060000D02*
X165100000Y-63500000D01*
X165100000Y-63500000D02*
X167770000Y-63500000D01*
X167770000Y-60830000D02*
X149730000Y-60830000D01*
X149730000Y-60830000D02*
X149730000Y-104270000D01*
X149730000Y-104270000D02*
X167770000Y-104270000D01*
%TO.C,RV1*%
X167065000Y-105985000D02*
X161865000Y-105985000D01*
X167065000Y-111125000D02*
X167065000Y-105985000D01*
X161865000Y-113725000D02*
X161865000Y-105985000D01*
X167065000Y-111125000D02*
X164465000Y-111125000D01*
X164465000Y-111125000D02*
X164465000Y-113725000D01*
X164465000Y-113725000D02*
X161865000Y-113725000D01*
X167065000Y-112395000D02*
X167065000Y-113725000D01*
X167065000Y-113725000D02*
X165735000Y-113725000D01*
%TO.C,U1*%
X170670000Y-109280000D02*
X173330000Y-109280000D01*
X170670000Y-71120000D02*
X170670000Y-109280000D01*
X173330000Y-71120000D02*
X173330000Y-109280000D01*
X170670000Y-71120000D02*
X173330000Y-71120000D01*
X170670000Y-69850000D02*
X170670000Y-68520000D01*
X170670000Y-68520000D02*
X172000000Y-68520000D01*
%TO.C,REF\u002A\u002A*%
D12*
X170666666Y-58302380D02*
X170333333Y-57826190D01*
X170095238Y-58302380D02*
X170095238Y-57302380D01*
X170476190Y-57302380D01*
X170571428Y-57350000D01*
X170619047Y-57397619D01*
X170666666Y-57492857D01*
X170666666Y-57635714D01*
X170619047Y-57730952D01*
X170571428Y-57778571D01*
X170476190Y-57826190D01*
X170095238Y-57826190D01*
X171095238Y-57778571D02*
X171428571Y-57778571D01*
X171571428Y-58302380D02*
X171095238Y-58302380D01*
X171095238Y-57302380D01*
X171571428Y-57302380D01*
X172333333Y-57778571D02*
X172000000Y-57778571D01*
X172000000Y-58302380D02*
X172000000Y-57302380D01*
X172476190Y-57302380D01*
X173000000Y-57302380D02*
X173000000Y-57540476D01*
X172761904Y-57445238D02*
X173000000Y-57540476D01*
X173238095Y-57445238D01*
X172857142Y-57730952D02*
X173000000Y-57540476D01*
X173142857Y-57730952D01*
X173761904Y-57302380D02*
X173761904Y-57540476D01*
X173523809Y-57445238D02*
X173761904Y-57540476D01*
X174000000Y-57445238D01*
X173619047Y-57730952D02*
X173761904Y-57540476D01*
X173904761Y-57730952D01*
X168452380Y-114998333D02*
X167976190Y-115331666D01*
X168452380Y-115569761D02*
X167452380Y-115569761D01*
X167452380Y-115188809D01*
X167500000Y-115093571D01*
X167547619Y-115045952D01*
X167642857Y-114998333D01*
X167785714Y-114998333D01*
X167880952Y-115045952D01*
X167928571Y-115093571D01*
X167976190Y-115188809D01*
X167976190Y-115569761D01*
X167928571Y-114569761D02*
X167928571Y-114236428D01*
X168452380Y-114093571D02*
X168452380Y-114569761D01*
X167452380Y-114569761D01*
X167452380Y-114093571D01*
X167928571Y-113331666D02*
X167928571Y-113665000D01*
X168452380Y-113665000D02*
X167452380Y-113665000D01*
X167452380Y-113188809D01*
X167452380Y-112665000D02*
X167690476Y-112665000D01*
X167595238Y-112903095D02*
X167690476Y-112665000D01*
X167595238Y-112426904D01*
X167880952Y-112807857D02*
X167690476Y-112665000D01*
X167880952Y-112522142D01*
X167452380Y-111903095D02*
X167690476Y-111903095D01*
X167595238Y-112141190D02*
X167690476Y-111903095D01*
X167595238Y-111665000D01*
X167880952Y-112045952D02*
X167690476Y-111903095D01*
X167880952Y-111760238D01*
%TO.C,J2*%
X160956666Y-66127380D02*
X160956666Y-66841666D01*
X160909047Y-66984523D01*
X160813809Y-67079761D01*
X160670952Y-67127380D01*
X160575714Y-67127380D01*
X161385238Y-66222619D02*
X161432857Y-66175000D01*
X161528095Y-66127380D01*
X161766190Y-66127380D01*
X161861428Y-66175000D01*
X161909047Y-66222619D01*
X161956666Y-66317857D01*
X161956666Y-66413095D01*
X161909047Y-66555952D01*
X161337619Y-67127380D01*
X161956666Y-67127380D01*
%TO.C,J1*%
X155876666Y-66127380D02*
X155876666Y-66841666D01*
X155829047Y-66984523D01*
X155733809Y-67079761D01*
X155590952Y-67127380D01*
X155495714Y-67127380D01*
X156876666Y-67127380D02*
X156305238Y-67127380D01*
X156590952Y-67127380D02*
X156590952Y-66127380D01*
X156495714Y-66270238D01*
X156400476Y-66365476D01*
X156305238Y-66413095D01*
%TO.C,A1*%
X165655714Y-103671666D02*
X166131904Y-103671666D01*
X165560476Y-103957380D02*
X165893809Y-102957380D01*
X166227142Y-103957380D01*
X167084285Y-103957380D02*
X166512857Y-103957380D01*
X166798571Y-103957380D02*
X166798571Y-102957380D01*
X166703333Y-103100238D01*
X166608095Y-103195476D01*
X166512857Y-103243095D01*
%TO.C,RV1*%
X165139761Y-110307380D02*
X164806428Y-109831190D01*
X164568333Y-110307380D02*
X164568333Y-109307380D01*
X164949285Y-109307380D01*
X165044523Y-109355000D01*
X165092142Y-109402619D01*
X165139761Y-109497857D01*
X165139761Y-109640714D01*
X165092142Y-109735952D01*
X165044523Y-109783571D01*
X164949285Y-109831190D01*
X164568333Y-109831190D01*
X165425476Y-109307380D02*
X165758809Y-110307380D01*
X166092142Y-109307380D01*
X166949285Y-110307380D02*
X166377857Y-110307380D01*
X166663571Y-110307380D02*
X166663571Y-109307380D01*
X166568333Y-109450238D01*
X166473095Y-109545476D01*
X166377857Y-109593095D01*
%TO.C,U1*%
X171238095Y-66972380D02*
X171238095Y-67781904D01*
X171285714Y-67877142D01*
X171333333Y-67924761D01*
X171428571Y-67972380D01*
X171619047Y-67972380D01*
X171714285Y-67924761D01*
X171761904Y-67877142D01*
X171809523Y-67781904D01*
X171809523Y-66972380D01*
X172809523Y-67972380D02*
X172238095Y-67972380D01*
X172523809Y-67972380D02*
X172523809Y-66972380D01*
X172428571Y-67115238D01*
X172333333Y-67210476D01*
X172238095Y-67258095D01*
%TD*%
M02*
