%TF.GenerationSoftware,KiCad,Pcbnew,(5.1.6)-1*%
%TF.CreationDate,2022-01-07T20:02:17-04:00*%
%TF.ProjectId,LCD_adapter,4c43445f-6164-4617-9074-65722e6b6963,rev?*%
%TF.SameCoordinates,Original*%
%TF.FileFunction,Copper,L2,Bot*%
%TF.FilePolarity,Positive*%
%FSLAX46Y46*%
G04 Gerber Fmt 4.6, Leading zero omitted, Abs format (unit mm)*
G04 Created by KiCad (PCBNEW (5.1.6)-1) date 2022-01-07 20:02:17*
%MOMM*%
%LPD*%
G01*
G04 APERTURE LIST*
%TA.AperFunction,ComponentPad*%
%ADD10O,1.700000X1.700000*%
%TD*%
%TA.AperFunction,ComponentPad*%
%ADD11R,1.700000X1.700000*%
%TD*%
%TA.AperFunction,ComponentPad*%
%ADD12O,1.600000X1.600000*%
%TD*%
%TA.AperFunction,ComponentPad*%
%ADD13R,1.600000X1.600000*%
%TD*%
%TA.AperFunction,ViaPad*%
%ADD14C,0.800000*%
%TD*%
%TA.AperFunction,Conductor*%
%ADD15C,0.250000*%
%TD*%
%TA.AperFunction,Conductor*%
%ADD16C,1.000000*%
%TD*%
%TA.AperFunction,Conductor*%
%ADD17C,0.400000*%
%TD*%
%TA.AperFunction,Conductor*%
%ADD18C,0.254000*%
%TD*%
G04 APERTURE END LIST*
D10*
%TO.P,J2,15*%
%TO.N,/D1*%
X163830000Y-100330000D03*
%TO.P,J2,14*%
%TO.N,/D0*%
X163830000Y-97790000D03*
%TO.P,J2,13*%
%TO.N,/nRST*%
X163830000Y-95250000D03*
%TO.P,J2,12*%
%TO.N,GND*%
X163830000Y-92710000D03*
%TO.P,J2,11*%
%TO.N,/D2*%
X163830000Y-90170000D03*
%TO.P,J2,10*%
%TO.N,/D3*%
X163830000Y-87630000D03*
%TO.P,J2,9*%
%TO.N,/D4*%
X163830000Y-85090000D03*
%TO.P,J2,8*%
%TO.N,/D5*%
X163830000Y-82550000D03*
%TO.P,J2,7*%
%TO.N,/D6*%
X163830000Y-80010000D03*
%TO.P,J2,6*%
%TO.N,/D7*%
X163830000Y-77470000D03*
%TO.P,J2,5*%
%TO.N,/D8*%
X163830000Y-74930000D03*
%TO.P,J2,4*%
%TO.N,/D9*%
X163830000Y-72390000D03*
%TO.P,J2,3*%
%TO.N,/D10*%
X163830000Y-69850000D03*
%TO.P,J2,2*%
%TO.N,/D11*%
X163830000Y-67310000D03*
D11*
%TO.P,J2,1*%
%TO.N,/D12*%
X163830000Y-64770000D03*
%TD*%
D10*
%TO.P,J1,15*%
%TO.N,/Vin*%
X153670000Y-100330000D03*
%TO.P,J1,14*%
%TO.N,GND*%
X153670000Y-97790000D03*
%TO.P,J1,13*%
%TO.N,/nRST*%
X153670000Y-95250000D03*
%TO.P,J1,12*%
%TO.N,VDD*%
X153670000Y-92710000D03*
%TO.P,J1,11*%
%TO.N,/A7*%
X153670000Y-90170000D03*
%TO.P,J1,10*%
%TO.N,/A6*%
X153670000Y-87630000D03*
%TO.P,J1,9*%
%TO.N,/A5*%
X153670000Y-85090000D03*
%TO.P,J1,8*%
%TO.N,/A4*%
X153670000Y-82550000D03*
%TO.P,J1,7*%
%TO.N,/A3*%
X153670000Y-80010000D03*
%TO.P,J1,6*%
%TO.N,/A2*%
X153670000Y-77470000D03*
%TO.P,J1,5*%
%TO.N,/A1*%
X153670000Y-74930000D03*
%TO.P,J1,4*%
%TO.N,/A0*%
X153670000Y-72390000D03*
%TO.P,J1,3*%
%TO.N,/AREF*%
X153670000Y-69850000D03*
%TO.P,J1,2*%
%TO.N,/3V3*%
X153670000Y-67310000D03*
D11*
%TO.P,J1,1*%
%TO.N,/D13*%
X153670000Y-64770000D03*
%TD*%
D12*
%TO.P,A1,16*%
%TO.N,/D13*%
X151130000Y-64770000D03*
%TO.P,A1,15*%
%TO.N,/D12*%
X166370000Y-64770000D03*
%TO.P,A1,30*%
%TO.N,/Vin*%
X151130000Y-100330000D03*
%TO.P,A1,14*%
%TO.N,/D11*%
X166370000Y-67310000D03*
%TO.P,A1,29*%
%TO.N,GND*%
X151130000Y-97790000D03*
%TO.P,A1,13*%
%TO.N,/D10*%
X166370000Y-69850000D03*
%TO.P,A1,28*%
%TO.N,/nRST*%
X151130000Y-95250000D03*
%TO.P,A1,12*%
%TO.N,/D9*%
X166370000Y-72390000D03*
%TO.P,A1,27*%
%TO.N,VDD*%
X151130000Y-92710000D03*
%TO.P,A1,11*%
%TO.N,/D8*%
X166370000Y-74930000D03*
%TO.P,A1,26*%
%TO.N,/A7*%
X151130000Y-90170000D03*
%TO.P,A1,10*%
%TO.N,/D7*%
X166370000Y-77470000D03*
%TO.P,A1,25*%
%TO.N,/A6*%
X151130000Y-87630000D03*
%TO.P,A1,9*%
%TO.N,/D6*%
X166370000Y-80010000D03*
%TO.P,A1,24*%
%TO.N,/A5*%
X151130000Y-85090000D03*
%TO.P,A1,8*%
%TO.N,/D5*%
X166370000Y-82550000D03*
%TO.P,A1,23*%
%TO.N,/A4*%
X151130000Y-82550000D03*
%TO.P,A1,7*%
%TO.N,/D4*%
X166370000Y-85090000D03*
%TO.P,A1,22*%
%TO.N,/A3*%
X151130000Y-80010000D03*
%TO.P,A1,6*%
%TO.N,/D3*%
X166370000Y-87630000D03*
%TO.P,A1,21*%
%TO.N,/A2*%
X151130000Y-77470000D03*
%TO.P,A1,5*%
%TO.N,/D2*%
X166370000Y-90170000D03*
%TO.P,A1,20*%
%TO.N,/A1*%
X151130000Y-74930000D03*
%TO.P,A1,4*%
%TO.N,GND*%
X166370000Y-92710000D03*
%TO.P,A1,19*%
%TO.N,/A0*%
X151130000Y-72390000D03*
%TO.P,A1,3*%
%TO.N,/nRST*%
X166370000Y-95250000D03*
%TO.P,A1,18*%
%TO.N,/AREF*%
X151130000Y-69850000D03*
%TO.P,A1,2*%
%TO.N,/D0*%
X166370000Y-97790000D03*
%TO.P,A1,17*%
%TO.N,/3V3*%
X151130000Y-67310000D03*
D13*
%TO.P,A1,1*%
%TO.N,/D1*%
X166370000Y-100330000D03*
%TD*%
D10*
%TO.P,RV1,3*%
%TO.N,VDD*%
X165735000Y-107315000D03*
%TO.P,RV1,2*%
%TO.N,Net-(RV1-Pad2)*%
X163195000Y-109855000D03*
D11*
%TO.P,RV1,1*%
%TO.N,GND*%
X165735000Y-112395000D03*
%TD*%
D10*
%TO.P,U1,16*%
%TO.N,GND*%
X172000000Y-107950000D03*
%TO.P,U1,15*%
%TO.N,VDD*%
X172000000Y-105410000D03*
%TO.P,U1,14*%
%TO.N,/D2*%
X172000000Y-102870000D03*
%TO.P,U1,13*%
%TO.N,/D3*%
X172000000Y-100330000D03*
%TO.P,U1,12*%
%TO.N,/D4*%
X172000000Y-97790000D03*
%TO.P,U1,11*%
%TO.N,/D5*%
X172000000Y-95250000D03*
%TO.P,U1,10*%
%TO.N,Net-(U1-Pad10)*%
X172000000Y-92710000D03*
%TO.P,U1,9*%
%TO.N,Net-(U1-Pad9)*%
X172000000Y-90170000D03*
%TO.P,U1,8*%
%TO.N,Net-(U1-Pad8)*%
X172000000Y-87630000D03*
%TO.P,U1,7*%
%TO.N,Net-(U1-Pad7)*%
X172000000Y-85090000D03*
%TO.P,U1,6*%
%TO.N,/D11*%
X172000000Y-82550000D03*
%TO.P,U1,5*%
%TO.N,GND*%
X172000000Y-80010000D03*
%TO.P,U1,4*%
%TO.N,/D12*%
X172000000Y-77470000D03*
%TO.P,U1,3*%
%TO.N,Net-(RV1-Pad2)*%
X172000000Y-74930000D03*
%TO.P,U1,2*%
%TO.N,VDD*%
X172000000Y-72390000D03*
D11*
%TO.P,U1,1*%
%TO.N,GND*%
X172000000Y-69850000D03*
%TD*%
D14*
%TO.N,GND*%
X150495000Y-60325000D03*
X151130000Y-104140000D03*
X167640000Y-110490000D03*
X159385000Y-112395000D03*
X153670000Y-97790000D03*
X159385000Y-103505000D03*
X161290000Y-92710000D03*
X156210000Y-83185000D03*
X163830000Y-93345000D03*
X165735000Y-102235000D03*
X168910000Y-102235000D03*
X172085000Y-67310000D03*
X172085000Y-64135000D03*
X156210000Y-64135000D03*
X161290000Y-64135000D03*
X161290000Y-69215000D03*
X156210000Y-72390000D03*
X156210000Y-92710000D03*
X156210000Y-97790000D03*
X161925000Y-73025000D03*
X161290000Y-83185000D03*
X156210000Y-60325000D03*
X161290000Y-60325000D03*
X167640000Y-60325000D03*
X163195000Y-115570000D03*
X168910000Y-115570000D03*
X173355000Y-110490000D03*
%TO.N,/D8*%
X163830000Y-74930000D03*
%TO.N,/A1*%
X153670000Y-74930000D03*
%TD*%
D15*
%TO.N,/D12*%
X163830000Y-64770000D02*
X166370000Y-64770000D01*
%TO.N,/D11*%
X163830000Y-67310000D02*
X166370000Y-67310000D01*
D16*
%TO.N,VDD*%
X167640000Y-105410000D02*
X172000000Y-105410000D01*
X165735000Y-107315000D02*
X165735000Y-105410000D01*
X165735000Y-106045000D02*
X165100000Y-105410000D01*
X164464980Y-105410000D02*
X165100000Y-105410000D01*
X165735000Y-107315000D02*
X165735000Y-106045000D01*
X165100000Y-105410000D02*
X165735000Y-105410000D01*
X165735000Y-106045000D02*
X166370000Y-105410000D01*
X165735000Y-105410000D02*
X166370000Y-105410000D01*
X166370000Y-105410000D02*
X167640000Y-105410000D01*
X153035000Y-92710000D02*
X153670000Y-92710000D01*
X151130000Y-92710000D02*
X153035000Y-92710000D01*
X164464980Y-105410000D02*
X164464980Y-105409980D01*
X164464980Y-105409980D02*
X158750000Y-99695000D01*
X158750000Y-97790000D02*
X153670000Y-92710000D01*
X158750000Y-99695000D02*
X158750000Y-97790000D01*
X153670000Y-92710000D02*
X158750000Y-87630000D01*
X158750000Y-87630000D02*
X159385000Y-86995000D01*
X159385000Y-86995000D02*
X159385000Y-73025000D01*
X159385000Y-73025000D02*
X160655000Y-71755000D01*
X160655000Y-71755000D02*
X161290000Y-71120000D01*
D17*
X170730000Y-71120000D02*
X161290000Y-71120000D01*
X172000000Y-72390000D02*
X170730000Y-71120000D01*
D15*
%TO.N,/D5*%
X163830000Y-82550000D02*
X166370000Y-82550000D01*
%TO.N,/D4*%
X163830000Y-85090000D02*
X166370000Y-85090000D01*
%TO.N,/D3*%
X163830000Y-87630000D02*
X166370000Y-87630000D01*
%TO.N,/D2*%
X163830000Y-90170000D02*
X166370000Y-90170000D01*
%TO.N,Net-(RV1-Pad2)*%
X166369980Y-109855000D02*
X167005000Y-109855000D01*
X173175001Y-76105001D02*
X172000000Y-74930000D01*
X173175001Y-105974001D02*
X173175001Y-76105001D01*
X172564001Y-106585001D02*
X173175001Y-105974001D01*
X170274999Y-106585001D02*
X172564001Y-106585001D01*
X167005000Y-109855000D02*
X170274999Y-106585001D01*
X166369980Y-109855000D02*
X163195000Y-109855000D01*
%TO.N,/D13*%
X151130000Y-64770000D02*
X153670000Y-64770000D01*
%TO.N,/D10*%
X163830000Y-69850000D02*
X166370000Y-69850000D01*
%TO.N,/nRST*%
X151130000Y-95250000D02*
X153670000Y-95250000D01*
X163830000Y-95250000D02*
X166370000Y-95250000D01*
%TO.N,/D9*%
X163830000Y-72390000D02*
X166370000Y-72390000D01*
%TO.N,/D8*%
X163830000Y-74930000D02*
X166370000Y-74930000D01*
%TO.N,/A7*%
X151130000Y-90170000D02*
X153670000Y-90170000D01*
%TO.N,/D7*%
X163830000Y-77470000D02*
X166370000Y-77470000D01*
%TO.N,/A6*%
X151130000Y-87630000D02*
X153670000Y-87630000D01*
%TO.N,/D6*%
X163830000Y-80010000D02*
X166370000Y-80010000D01*
%TO.N,/A5*%
X151130000Y-85090000D02*
X153670000Y-85090000D01*
%TO.N,/A4*%
X151130000Y-82550000D02*
X153670000Y-82550000D01*
%TO.N,/A3*%
X151130000Y-80010000D02*
X153670000Y-80010000D01*
%TO.N,/A2*%
X151130000Y-77470000D02*
X153670000Y-77470000D01*
%TO.N,/A1*%
X151130000Y-74930000D02*
X153670000Y-74930000D01*
%TO.N,/A0*%
X151130000Y-72390000D02*
X153670000Y-72390000D01*
%TO.N,/AREF*%
X151130000Y-69850000D02*
X153670000Y-69850000D01*
%TO.N,/D0*%
X163830000Y-97790000D02*
X166370000Y-97790000D01*
D16*
%TO.N,/3V3*%
X151130000Y-67310000D02*
X153670000Y-67310000D01*
D15*
%TO.N,/D1*%
X163830000Y-100330000D02*
X166370000Y-100330000D01*
%TD*%
D18*
%TO.N,GND*%
G36*
X174600000Y-110457581D02*
G01*
X174600000Y-110457582D01*
X174600001Y-116815000D01*
X162198381Y-116815000D01*
X159239614Y-113856233D01*
X158628381Y-113245000D01*
X164246928Y-113245000D01*
X164259188Y-113369482D01*
X164295498Y-113489180D01*
X164354463Y-113599494D01*
X164433815Y-113696185D01*
X164530506Y-113775537D01*
X164640820Y-113834502D01*
X164760518Y-113870812D01*
X164885000Y-113883072D01*
X165449250Y-113880000D01*
X165608000Y-113721250D01*
X165608000Y-112522000D01*
X165862000Y-112522000D01*
X165862000Y-113721250D01*
X166020750Y-113880000D01*
X166585000Y-113883072D01*
X166709482Y-113870812D01*
X166829180Y-113834502D01*
X166939494Y-113775537D01*
X167036185Y-113696185D01*
X167115537Y-113599494D01*
X167174502Y-113489180D01*
X167184955Y-113454721D01*
X169865000Y-113454721D01*
X169865000Y-113875279D01*
X169947047Y-114287756D01*
X170107988Y-114676302D01*
X170341637Y-115025983D01*
X170639017Y-115323363D01*
X170988698Y-115557012D01*
X171377244Y-115717953D01*
X171789721Y-115800000D01*
X172210279Y-115800000D01*
X172622756Y-115717953D01*
X173011302Y-115557012D01*
X173360983Y-115323363D01*
X173658363Y-115025983D01*
X173892012Y-114676302D01*
X174052953Y-114287756D01*
X174135000Y-113875279D01*
X174135000Y-113454721D01*
X174052953Y-113042244D01*
X173892012Y-112653698D01*
X173658363Y-112304017D01*
X173360983Y-112006637D01*
X173011302Y-111772988D01*
X172622756Y-111612047D01*
X172210279Y-111530000D01*
X171789721Y-111530000D01*
X171377244Y-111612047D01*
X170988698Y-111772988D01*
X170639017Y-112006637D01*
X170341637Y-112304017D01*
X170107988Y-112653698D01*
X169947047Y-113042244D01*
X169865000Y-113454721D01*
X167184955Y-113454721D01*
X167210812Y-113369482D01*
X167223072Y-113245000D01*
X167220000Y-112680750D01*
X167061250Y-112522000D01*
X165862000Y-112522000D01*
X165608000Y-112522000D01*
X164408750Y-112522000D01*
X164250000Y-112680750D01*
X164246928Y-113245000D01*
X158628381Y-113245000D01*
X156928381Y-111545000D01*
X164246928Y-111545000D01*
X164250000Y-112109250D01*
X164408750Y-112268000D01*
X165608000Y-112268000D01*
X165608000Y-111068750D01*
X165862000Y-111068750D01*
X165862000Y-112268000D01*
X167061250Y-112268000D01*
X167220000Y-112109250D01*
X167223072Y-111545000D01*
X167210812Y-111420518D01*
X167174502Y-111300820D01*
X167115537Y-111190506D01*
X167036185Y-111093815D01*
X166939494Y-111014463D01*
X166829180Y-110955498D01*
X166709482Y-110919188D01*
X166585000Y-110906928D01*
X166020750Y-110910000D01*
X165862000Y-111068750D01*
X165608000Y-111068750D01*
X165449250Y-110910000D01*
X164885000Y-110906928D01*
X164760518Y-110919188D01*
X164640820Y-110955498D01*
X164530506Y-111014463D01*
X164433815Y-111093815D01*
X164354463Y-111190506D01*
X164295498Y-111300820D01*
X164259188Y-111420518D01*
X164246928Y-111545000D01*
X156928381Y-111545000D01*
X149885000Y-104501620D01*
X149885000Y-101049657D01*
X150015363Y-101244759D01*
X150215241Y-101444637D01*
X150450273Y-101601680D01*
X150711426Y-101709853D01*
X150988665Y-101765000D01*
X151271335Y-101765000D01*
X151548574Y-101709853D01*
X151809727Y-101601680D01*
X152044759Y-101444637D01*
X152244637Y-101244759D01*
X152369932Y-101057241D01*
X152516525Y-101276632D01*
X152723368Y-101483475D01*
X152966589Y-101645990D01*
X153236842Y-101757932D01*
X153523740Y-101815000D01*
X153816260Y-101815000D01*
X154103158Y-101757932D01*
X154373411Y-101645990D01*
X154616632Y-101483475D01*
X154823475Y-101276632D01*
X154985990Y-101033411D01*
X155097932Y-100763158D01*
X155155000Y-100476260D01*
X155155000Y-100183740D01*
X155097932Y-99896842D01*
X154985990Y-99626589D01*
X154823475Y-99383368D01*
X154616632Y-99176525D01*
X154434466Y-99054805D01*
X154551355Y-98985178D01*
X154767588Y-98790269D01*
X154941641Y-98556920D01*
X155066825Y-98294099D01*
X155111476Y-98146890D01*
X154990155Y-97917000D01*
X153797000Y-97917000D01*
X153797000Y-97937000D01*
X153543000Y-97937000D01*
X153543000Y-97917000D01*
X151257000Y-97917000D01*
X151257000Y-97937000D01*
X151003000Y-97937000D01*
X151003000Y-97917000D01*
X150983000Y-97917000D01*
X150983000Y-97663000D01*
X151003000Y-97663000D01*
X151003000Y-97643000D01*
X151257000Y-97643000D01*
X151257000Y-97663000D01*
X153543000Y-97663000D01*
X153543000Y-97643000D01*
X153797000Y-97643000D01*
X153797000Y-97663000D01*
X154990155Y-97663000D01*
X155111476Y-97433110D01*
X155066825Y-97285901D01*
X154941641Y-97023080D01*
X154767588Y-96789731D01*
X154551355Y-96594822D01*
X154434466Y-96525195D01*
X154616632Y-96403475D01*
X154823475Y-96196632D01*
X154985990Y-95953411D01*
X155080386Y-95725518D01*
X157615001Y-98260133D01*
X157615000Y-99639248D01*
X157609509Y-99695000D01*
X157615000Y-99750751D01*
X157631423Y-99917498D01*
X157696324Y-100131446D01*
X157801716Y-100328623D01*
X157943551Y-100501449D01*
X157986865Y-100536996D01*
X163622897Y-106173029D01*
X163658531Y-106216449D01*
X163831357Y-106358284D01*
X164028533Y-106463676D01*
X164242481Y-106528577D01*
X164460152Y-106550015D01*
X164419010Y-106611589D01*
X164307068Y-106881842D01*
X164250000Y-107168740D01*
X164250000Y-107461260D01*
X164307068Y-107748158D01*
X164419010Y-108018411D01*
X164581525Y-108261632D01*
X164788368Y-108468475D01*
X165031589Y-108630990D01*
X165301842Y-108742932D01*
X165588740Y-108800000D01*
X165881260Y-108800000D01*
X166168158Y-108742932D01*
X166438411Y-108630990D01*
X166681632Y-108468475D01*
X166888475Y-108261632D01*
X167050990Y-108018411D01*
X167162932Y-107748158D01*
X167220000Y-107461260D01*
X167220000Y-107168740D01*
X167162932Y-106881842D01*
X167050990Y-106611589D01*
X167006497Y-106545000D01*
X169240198Y-106545000D01*
X166690199Y-109095000D01*
X164473178Y-109095000D01*
X164348475Y-108908368D01*
X164141632Y-108701525D01*
X163898411Y-108539010D01*
X163628158Y-108427068D01*
X163341260Y-108370000D01*
X163048740Y-108370000D01*
X162761842Y-108427068D01*
X162491589Y-108539010D01*
X162248368Y-108701525D01*
X162041525Y-108908368D01*
X161879010Y-109151589D01*
X161767068Y-109421842D01*
X161710000Y-109708740D01*
X161710000Y-110001260D01*
X161767068Y-110288158D01*
X161879010Y-110558411D01*
X162041525Y-110801632D01*
X162248368Y-111008475D01*
X162491589Y-111170990D01*
X162761842Y-111282932D01*
X163048740Y-111340000D01*
X163341260Y-111340000D01*
X163628158Y-111282932D01*
X163898411Y-111170990D01*
X164141632Y-111008475D01*
X164348475Y-110801632D01*
X164473178Y-110615000D01*
X166967678Y-110615000D01*
X167005000Y-110618676D01*
X167042322Y-110615000D01*
X167042333Y-110615000D01*
X167153986Y-110604003D01*
X167297247Y-110560546D01*
X167429276Y-110489974D01*
X167545001Y-110395001D01*
X167568804Y-110365997D01*
X169627911Y-108306890D01*
X170558524Y-108306890D01*
X170603175Y-108454099D01*
X170728359Y-108716920D01*
X170902412Y-108950269D01*
X171118645Y-109145178D01*
X171368748Y-109294157D01*
X171643109Y-109391481D01*
X171873000Y-109270814D01*
X171873000Y-108077000D01*
X172127000Y-108077000D01*
X172127000Y-109270814D01*
X172356891Y-109391481D01*
X172631252Y-109294157D01*
X172881355Y-109145178D01*
X173097588Y-108950269D01*
X173271641Y-108716920D01*
X173396825Y-108454099D01*
X173441476Y-108306890D01*
X173320155Y-108077000D01*
X172127000Y-108077000D01*
X171873000Y-108077000D01*
X170679845Y-108077000D01*
X170558524Y-108306890D01*
X169627911Y-108306890D01*
X170589801Y-107345001D01*
X170651235Y-107345001D01*
X170603175Y-107445901D01*
X170558524Y-107593110D01*
X170679845Y-107823000D01*
X171873000Y-107823000D01*
X171873000Y-107803000D01*
X172127000Y-107803000D01*
X172127000Y-107823000D01*
X173320155Y-107823000D01*
X173441476Y-107593110D01*
X173396825Y-107445901D01*
X173271641Y-107183080D01*
X173172987Y-107050816D01*
X173686010Y-106537795D01*
X173715002Y-106514002D01*
X173738796Y-106485009D01*
X173738800Y-106485005D01*
X173809974Y-106398278D01*
X173809975Y-106398277D01*
X173880547Y-106266248D01*
X173924004Y-106122987D01*
X173935001Y-106011334D01*
X173935001Y-106011325D01*
X173938677Y-105974002D01*
X173935001Y-105936679D01*
X173935001Y-76142323D01*
X173938677Y-76105000D01*
X173935001Y-76067677D01*
X173935001Y-76067668D01*
X173924004Y-75956015D01*
X173880547Y-75812754D01*
X173809975Y-75680725D01*
X173715002Y-75565000D01*
X173686004Y-75541202D01*
X173441210Y-75296408D01*
X173485000Y-75076260D01*
X173485000Y-74783740D01*
X173427932Y-74496842D01*
X173315990Y-74226589D01*
X173153475Y-73983368D01*
X172946632Y-73776525D01*
X172772240Y-73660000D01*
X172946632Y-73543475D01*
X173153475Y-73336632D01*
X173315990Y-73093411D01*
X173427932Y-72823158D01*
X173485000Y-72536260D01*
X173485000Y-72243740D01*
X173427932Y-71956842D01*
X173315990Y-71686589D01*
X173153475Y-71443368D01*
X173021620Y-71311513D01*
X173094180Y-71289502D01*
X173204494Y-71230537D01*
X173301185Y-71151185D01*
X173380537Y-71054494D01*
X173439502Y-70944180D01*
X173475812Y-70824482D01*
X173488072Y-70700000D01*
X173485000Y-70135750D01*
X173326250Y-69977000D01*
X172127000Y-69977000D01*
X172127000Y-69997000D01*
X171873000Y-69997000D01*
X171873000Y-69977000D01*
X170673750Y-69977000D01*
X170515000Y-70135750D01*
X170514187Y-70285000D01*
X167743049Y-70285000D01*
X167749853Y-70268574D01*
X167805000Y-69991335D01*
X167805000Y-69708665D01*
X167749853Y-69431426D01*
X167641680Y-69170273D01*
X167527908Y-69000000D01*
X170511928Y-69000000D01*
X170515000Y-69564250D01*
X170673750Y-69723000D01*
X171873000Y-69723000D01*
X171873000Y-68523750D01*
X172127000Y-68523750D01*
X172127000Y-69723000D01*
X173326250Y-69723000D01*
X173485000Y-69564250D01*
X173488072Y-69000000D01*
X173475812Y-68875518D01*
X173439502Y-68755820D01*
X173380537Y-68645506D01*
X173301185Y-68548815D01*
X173204494Y-68469463D01*
X173094180Y-68410498D01*
X172974482Y-68374188D01*
X172850000Y-68361928D01*
X172285750Y-68365000D01*
X172127000Y-68523750D01*
X171873000Y-68523750D01*
X171714250Y-68365000D01*
X171150000Y-68361928D01*
X171025518Y-68374188D01*
X170905820Y-68410498D01*
X170795506Y-68469463D01*
X170698815Y-68548815D01*
X170619463Y-68645506D01*
X170560498Y-68755820D01*
X170524188Y-68875518D01*
X170511928Y-69000000D01*
X167527908Y-69000000D01*
X167484637Y-68935241D01*
X167284759Y-68735363D01*
X167052241Y-68580000D01*
X167284759Y-68424637D01*
X167484637Y-68224759D01*
X167641680Y-67989727D01*
X167749853Y-67728574D01*
X167805000Y-67451335D01*
X167805000Y-67168665D01*
X167749853Y-66891426D01*
X167641680Y-66630273D01*
X167484637Y-66395241D01*
X167284759Y-66195363D01*
X167052241Y-66040000D01*
X167284759Y-65884637D01*
X167484637Y-65684759D01*
X167641680Y-65449727D01*
X167749853Y-65188574D01*
X167805000Y-64911335D01*
X167805000Y-64628665D01*
X167749853Y-64351426D01*
X167641680Y-64090273D01*
X167484637Y-63855241D01*
X167284759Y-63655363D01*
X167049727Y-63498320D01*
X166788574Y-63390147D01*
X166511335Y-63335000D01*
X166228665Y-63335000D01*
X165951426Y-63390147D01*
X165690273Y-63498320D01*
X165455241Y-63655363D01*
X165306643Y-63803961D01*
X165305812Y-63795518D01*
X165269502Y-63675820D01*
X165210537Y-63565506D01*
X165131185Y-63468815D01*
X165034494Y-63389463D01*
X164924180Y-63330498D01*
X164804482Y-63294188D01*
X164680000Y-63281928D01*
X162980000Y-63281928D01*
X162855518Y-63294188D01*
X162735820Y-63330498D01*
X162625506Y-63389463D01*
X162528815Y-63468815D01*
X162449463Y-63565506D01*
X162390498Y-63675820D01*
X162354188Y-63795518D01*
X162341928Y-63920000D01*
X162341928Y-65620000D01*
X162354188Y-65744482D01*
X162390498Y-65864180D01*
X162449463Y-65974494D01*
X162528815Y-66071185D01*
X162625506Y-66150537D01*
X162735820Y-66209502D01*
X162808380Y-66231513D01*
X162676525Y-66363368D01*
X162514010Y-66606589D01*
X162402068Y-66876842D01*
X162345000Y-67163740D01*
X162345000Y-67456260D01*
X162402068Y-67743158D01*
X162514010Y-68013411D01*
X162676525Y-68256632D01*
X162883368Y-68463475D01*
X163057760Y-68580000D01*
X162883368Y-68696525D01*
X162676525Y-68903368D01*
X162514010Y-69146589D01*
X162402068Y-69416842D01*
X162345000Y-69703740D01*
X162345000Y-69996260D01*
X162402068Y-70283158D01*
X162402831Y-70285000D01*
X162061660Y-70285000D01*
X161923623Y-70171716D01*
X161726447Y-70066324D01*
X161512499Y-70001423D01*
X161290000Y-69979509D01*
X161067501Y-70001423D01*
X160853553Y-70066324D01*
X160656377Y-70171716D01*
X160526857Y-70278011D01*
X159891861Y-70913008D01*
X159891856Y-70913012D01*
X158621860Y-72183009D01*
X158578552Y-72218551D01*
X158436717Y-72391377D01*
X158380384Y-72496770D01*
X158331324Y-72588554D01*
X158266423Y-72802502D01*
X158244509Y-73025000D01*
X158250001Y-73080761D01*
X158250000Y-86524868D01*
X157986861Y-86788008D01*
X157986856Y-86788012D01*
X155080386Y-89694482D01*
X154985990Y-89466589D01*
X154823475Y-89223368D01*
X154616632Y-89016525D01*
X154442240Y-88900000D01*
X154616632Y-88783475D01*
X154823475Y-88576632D01*
X154985990Y-88333411D01*
X155097932Y-88063158D01*
X155155000Y-87776260D01*
X155155000Y-87483740D01*
X155097932Y-87196842D01*
X154985990Y-86926589D01*
X154823475Y-86683368D01*
X154616632Y-86476525D01*
X154442240Y-86360000D01*
X154616632Y-86243475D01*
X154823475Y-86036632D01*
X154985990Y-85793411D01*
X155097932Y-85523158D01*
X155155000Y-85236260D01*
X155155000Y-84943740D01*
X155097932Y-84656842D01*
X154985990Y-84386589D01*
X154823475Y-84143368D01*
X154616632Y-83936525D01*
X154442240Y-83820000D01*
X154616632Y-83703475D01*
X154823475Y-83496632D01*
X154985990Y-83253411D01*
X155097932Y-82983158D01*
X155155000Y-82696260D01*
X155155000Y-82403740D01*
X155097932Y-82116842D01*
X154985990Y-81846589D01*
X154823475Y-81603368D01*
X154616632Y-81396525D01*
X154442240Y-81280000D01*
X154616632Y-81163475D01*
X154823475Y-80956632D01*
X154985990Y-80713411D01*
X155097932Y-80443158D01*
X155155000Y-80156260D01*
X155155000Y-79863740D01*
X155097932Y-79576842D01*
X154985990Y-79306589D01*
X154823475Y-79063368D01*
X154616632Y-78856525D01*
X154442240Y-78740000D01*
X154616632Y-78623475D01*
X154823475Y-78416632D01*
X154985990Y-78173411D01*
X155097932Y-77903158D01*
X155155000Y-77616260D01*
X155155000Y-77323740D01*
X155097932Y-77036842D01*
X154985990Y-76766589D01*
X154823475Y-76523368D01*
X154616632Y-76316525D01*
X154442240Y-76200000D01*
X154616632Y-76083475D01*
X154823475Y-75876632D01*
X154985990Y-75633411D01*
X155097932Y-75363158D01*
X155155000Y-75076260D01*
X155155000Y-74783740D01*
X155097932Y-74496842D01*
X154985990Y-74226589D01*
X154823475Y-73983368D01*
X154616632Y-73776525D01*
X154442240Y-73660000D01*
X154616632Y-73543475D01*
X154823475Y-73336632D01*
X154985990Y-73093411D01*
X155097932Y-72823158D01*
X155155000Y-72536260D01*
X155155000Y-72243740D01*
X155097932Y-71956842D01*
X154985990Y-71686589D01*
X154823475Y-71443368D01*
X154616632Y-71236525D01*
X154442240Y-71120000D01*
X154616632Y-71003475D01*
X154823475Y-70796632D01*
X154985990Y-70553411D01*
X155097932Y-70283158D01*
X155155000Y-69996260D01*
X155155000Y-69703740D01*
X155097932Y-69416842D01*
X154985990Y-69146589D01*
X154823475Y-68903368D01*
X154616632Y-68696525D01*
X154442240Y-68580000D01*
X154616632Y-68463475D01*
X154823475Y-68256632D01*
X154985990Y-68013411D01*
X155097932Y-67743158D01*
X155155000Y-67456260D01*
X155155000Y-67163740D01*
X155097932Y-66876842D01*
X154985990Y-66606589D01*
X154823475Y-66363368D01*
X154691620Y-66231513D01*
X154764180Y-66209502D01*
X154874494Y-66150537D01*
X154971185Y-66071185D01*
X155050537Y-65974494D01*
X155109502Y-65864180D01*
X155145812Y-65744482D01*
X155158072Y-65620000D01*
X155158072Y-63920000D01*
X155145812Y-63795518D01*
X155109502Y-63675820D01*
X155050537Y-63565506D01*
X154971185Y-63468815D01*
X154874494Y-63389463D01*
X154764180Y-63330498D01*
X154644482Y-63294188D01*
X154520000Y-63281928D01*
X152820000Y-63281928D01*
X152695518Y-63294188D01*
X152575820Y-63330498D01*
X152465506Y-63389463D01*
X152368815Y-63468815D01*
X152289463Y-63565506D01*
X152230498Y-63675820D01*
X152194188Y-63795518D01*
X152193357Y-63803961D01*
X152044759Y-63655363D01*
X151809727Y-63498320D01*
X151548574Y-63390147D01*
X151271335Y-63335000D01*
X150988665Y-63335000D01*
X150711426Y-63390147D01*
X150450273Y-63498320D01*
X150215241Y-63655363D01*
X150015363Y-63855241D01*
X149885000Y-64050343D01*
X149885000Y-61639721D01*
X169865000Y-61639721D01*
X169865000Y-62060279D01*
X169947047Y-62472756D01*
X170107988Y-62861302D01*
X170341637Y-63210983D01*
X170639017Y-63508363D01*
X170988698Y-63742012D01*
X171377244Y-63902953D01*
X171789721Y-63985000D01*
X172210279Y-63985000D01*
X172622756Y-63902953D01*
X173011302Y-63742012D01*
X173360983Y-63508363D01*
X173658363Y-63210983D01*
X173892012Y-62861302D01*
X174052953Y-62472756D01*
X174135000Y-62060279D01*
X174135000Y-61639721D01*
X174052953Y-61227244D01*
X173892012Y-60838698D01*
X173658363Y-60489017D01*
X173360983Y-60191637D01*
X173011302Y-59957988D01*
X172622756Y-59797047D01*
X172210279Y-59715000D01*
X171789721Y-59715000D01*
X171377244Y-59797047D01*
X170988698Y-59957988D01*
X170639017Y-60191637D01*
X170341637Y-60489017D01*
X170107988Y-60838698D01*
X169947047Y-61227244D01*
X169865000Y-61639721D01*
X149885000Y-61639721D01*
X149885000Y-59080000D01*
X174600001Y-59080000D01*
X174600000Y-110457581D01*
G37*
X174600000Y-110457581D02*
X174600000Y-110457582D01*
X174600001Y-116815000D01*
X162198381Y-116815000D01*
X159239614Y-113856233D01*
X158628381Y-113245000D01*
X164246928Y-113245000D01*
X164259188Y-113369482D01*
X164295498Y-113489180D01*
X164354463Y-113599494D01*
X164433815Y-113696185D01*
X164530506Y-113775537D01*
X164640820Y-113834502D01*
X164760518Y-113870812D01*
X164885000Y-113883072D01*
X165449250Y-113880000D01*
X165608000Y-113721250D01*
X165608000Y-112522000D01*
X165862000Y-112522000D01*
X165862000Y-113721250D01*
X166020750Y-113880000D01*
X166585000Y-113883072D01*
X166709482Y-113870812D01*
X166829180Y-113834502D01*
X166939494Y-113775537D01*
X167036185Y-113696185D01*
X167115537Y-113599494D01*
X167174502Y-113489180D01*
X167184955Y-113454721D01*
X169865000Y-113454721D01*
X169865000Y-113875279D01*
X169947047Y-114287756D01*
X170107988Y-114676302D01*
X170341637Y-115025983D01*
X170639017Y-115323363D01*
X170988698Y-115557012D01*
X171377244Y-115717953D01*
X171789721Y-115800000D01*
X172210279Y-115800000D01*
X172622756Y-115717953D01*
X173011302Y-115557012D01*
X173360983Y-115323363D01*
X173658363Y-115025983D01*
X173892012Y-114676302D01*
X174052953Y-114287756D01*
X174135000Y-113875279D01*
X174135000Y-113454721D01*
X174052953Y-113042244D01*
X173892012Y-112653698D01*
X173658363Y-112304017D01*
X173360983Y-112006637D01*
X173011302Y-111772988D01*
X172622756Y-111612047D01*
X172210279Y-111530000D01*
X171789721Y-111530000D01*
X171377244Y-111612047D01*
X170988698Y-111772988D01*
X170639017Y-112006637D01*
X170341637Y-112304017D01*
X170107988Y-112653698D01*
X169947047Y-113042244D01*
X169865000Y-113454721D01*
X167184955Y-113454721D01*
X167210812Y-113369482D01*
X167223072Y-113245000D01*
X167220000Y-112680750D01*
X167061250Y-112522000D01*
X165862000Y-112522000D01*
X165608000Y-112522000D01*
X164408750Y-112522000D01*
X164250000Y-112680750D01*
X164246928Y-113245000D01*
X158628381Y-113245000D01*
X156928381Y-111545000D01*
X164246928Y-111545000D01*
X164250000Y-112109250D01*
X164408750Y-112268000D01*
X165608000Y-112268000D01*
X165608000Y-111068750D01*
X165862000Y-111068750D01*
X165862000Y-112268000D01*
X167061250Y-112268000D01*
X167220000Y-112109250D01*
X167223072Y-111545000D01*
X167210812Y-111420518D01*
X167174502Y-111300820D01*
X167115537Y-111190506D01*
X167036185Y-111093815D01*
X166939494Y-111014463D01*
X166829180Y-110955498D01*
X166709482Y-110919188D01*
X166585000Y-110906928D01*
X166020750Y-110910000D01*
X165862000Y-111068750D01*
X165608000Y-111068750D01*
X165449250Y-110910000D01*
X164885000Y-110906928D01*
X164760518Y-110919188D01*
X164640820Y-110955498D01*
X164530506Y-111014463D01*
X164433815Y-111093815D01*
X164354463Y-111190506D01*
X164295498Y-111300820D01*
X164259188Y-111420518D01*
X164246928Y-111545000D01*
X156928381Y-111545000D01*
X149885000Y-104501620D01*
X149885000Y-101049657D01*
X150015363Y-101244759D01*
X150215241Y-101444637D01*
X150450273Y-101601680D01*
X150711426Y-101709853D01*
X150988665Y-101765000D01*
X151271335Y-101765000D01*
X151548574Y-101709853D01*
X151809727Y-101601680D01*
X152044759Y-101444637D01*
X152244637Y-101244759D01*
X152369932Y-101057241D01*
X152516525Y-101276632D01*
X152723368Y-101483475D01*
X152966589Y-101645990D01*
X153236842Y-101757932D01*
X153523740Y-101815000D01*
X153816260Y-101815000D01*
X154103158Y-101757932D01*
X154373411Y-101645990D01*
X154616632Y-101483475D01*
X154823475Y-101276632D01*
X154985990Y-101033411D01*
X155097932Y-100763158D01*
X155155000Y-100476260D01*
X155155000Y-100183740D01*
X155097932Y-99896842D01*
X154985990Y-99626589D01*
X154823475Y-99383368D01*
X154616632Y-99176525D01*
X154434466Y-99054805D01*
X154551355Y-98985178D01*
X154767588Y-98790269D01*
X154941641Y-98556920D01*
X155066825Y-98294099D01*
X155111476Y-98146890D01*
X154990155Y-97917000D01*
X153797000Y-97917000D01*
X153797000Y-97937000D01*
X153543000Y-97937000D01*
X153543000Y-97917000D01*
X151257000Y-97917000D01*
X151257000Y-97937000D01*
X151003000Y-97937000D01*
X151003000Y-97917000D01*
X150983000Y-97917000D01*
X150983000Y-97663000D01*
X151003000Y-97663000D01*
X151003000Y-97643000D01*
X151257000Y-97643000D01*
X151257000Y-97663000D01*
X153543000Y-97663000D01*
X153543000Y-97643000D01*
X153797000Y-97643000D01*
X153797000Y-97663000D01*
X154990155Y-97663000D01*
X155111476Y-97433110D01*
X155066825Y-97285901D01*
X154941641Y-97023080D01*
X154767588Y-96789731D01*
X154551355Y-96594822D01*
X154434466Y-96525195D01*
X154616632Y-96403475D01*
X154823475Y-96196632D01*
X154985990Y-95953411D01*
X155080386Y-95725518D01*
X157615001Y-98260133D01*
X157615000Y-99639248D01*
X157609509Y-99695000D01*
X157615000Y-99750751D01*
X157631423Y-99917498D01*
X157696324Y-100131446D01*
X157801716Y-100328623D01*
X157943551Y-100501449D01*
X157986865Y-100536996D01*
X163622897Y-106173029D01*
X163658531Y-106216449D01*
X163831357Y-106358284D01*
X164028533Y-106463676D01*
X164242481Y-106528577D01*
X164460152Y-106550015D01*
X164419010Y-106611589D01*
X164307068Y-106881842D01*
X164250000Y-107168740D01*
X164250000Y-107461260D01*
X164307068Y-107748158D01*
X164419010Y-108018411D01*
X164581525Y-108261632D01*
X164788368Y-108468475D01*
X165031589Y-108630990D01*
X165301842Y-108742932D01*
X165588740Y-108800000D01*
X165881260Y-108800000D01*
X166168158Y-108742932D01*
X166438411Y-108630990D01*
X166681632Y-108468475D01*
X166888475Y-108261632D01*
X167050990Y-108018411D01*
X167162932Y-107748158D01*
X167220000Y-107461260D01*
X167220000Y-107168740D01*
X167162932Y-106881842D01*
X167050990Y-106611589D01*
X167006497Y-106545000D01*
X169240198Y-106545000D01*
X166690199Y-109095000D01*
X164473178Y-109095000D01*
X164348475Y-108908368D01*
X164141632Y-108701525D01*
X163898411Y-108539010D01*
X163628158Y-108427068D01*
X163341260Y-108370000D01*
X163048740Y-108370000D01*
X162761842Y-108427068D01*
X162491589Y-108539010D01*
X162248368Y-108701525D01*
X162041525Y-108908368D01*
X161879010Y-109151589D01*
X161767068Y-109421842D01*
X161710000Y-109708740D01*
X161710000Y-110001260D01*
X161767068Y-110288158D01*
X161879010Y-110558411D01*
X162041525Y-110801632D01*
X162248368Y-111008475D01*
X162491589Y-111170990D01*
X162761842Y-111282932D01*
X163048740Y-111340000D01*
X163341260Y-111340000D01*
X163628158Y-111282932D01*
X163898411Y-111170990D01*
X164141632Y-111008475D01*
X164348475Y-110801632D01*
X164473178Y-110615000D01*
X166967678Y-110615000D01*
X167005000Y-110618676D01*
X167042322Y-110615000D01*
X167042333Y-110615000D01*
X167153986Y-110604003D01*
X167297247Y-110560546D01*
X167429276Y-110489974D01*
X167545001Y-110395001D01*
X167568804Y-110365997D01*
X169627911Y-108306890D01*
X170558524Y-108306890D01*
X170603175Y-108454099D01*
X170728359Y-108716920D01*
X170902412Y-108950269D01*
X171118645Y-109145178D01*
X171368748Y-109294157D01*
X171643109Y-109391481D01*
X171873000Y-109270814D01*
X171873000Y-108077000D01*
X172127000Y-108077000D01*
X172127000Y-109270814D01*
X172356891Y-109391481D01*
X172631252Y-109294157D01*
X172881355Y-109145178D01*
X173097588Y-108950269D01*
X173271641Y-108716920D01*
X173396825Y-108454099D01*
X173441476Y-108306890D01*
X173320155Y-108077000D01*
X172127000Y-108077000D01*
X171873000Y-108077000D01*
X170679845Y-108077000D01*
X170558524Y-108306890D01*
X169627911Y-108306890D01*
X170589801Y-107345001D01*
X170651235Y-107345001D01*
X170603175Y-107445901D01*
X170558524Y-107593110D01*
X170679845Y-107823000D01*
X171873000Y-107823000D01*
X171873000Y-107803000D01*
X172127000Y-107803000D01*
X172127000Y-107823000D01*
X173320155Y-107823000D01*
X173441476Y-107593110D01*
X173396825Y-107445901D01*
X173271641Y-107183080D01*
X173172987Y-107050816D01*
X173686010Y-106537795D01*
X173715002Y-106514002D01*
X173738796Y-106485009D01*
X173738800Y-106485005D01*
X173809974Y-106398278D01*
X173809975Y-106398277D01*
X173880547Y-106266248D01*
X173924004Y-106122987D01*
X173935001Y-106011334D01*
X173935001Y-106011325D01*
X173938677Y-105974002D01*
X173935001Y-105936679D01*
X173935001Y-76142323D01*
X173938677Y-76105000D01*
X173935001Y-76067677D01*
X173935001Y-76067668D01*
X173924004Y-75956015D01*
X173880547Y-75812754D01*
X173809975Y-75680725D01*
X173715002Y-75565000D01*
X173686004Y-75541202D01*
X173441210Y-75296408D01*
X173485000Y-75076260D01*
X173485000Y-74783740D01*
X173427932Y-74496842D01*
X173315990Y-74226589D01*
X173153475Y-73983368D01*
X172946632Y-73776525D01*
X172772240Y-73660000D01*
X172946632Y-73543475D01*
X173153475Y-73336632D01*
X173315990Y-73093411D01*
X173427932Y-72823158D01*
X173485000Y-72536260D01*
X173485000Y-72243740D01*
X173427932Y-71956842D01*
X173315990Y-71686589D01*
X173153475Y-71443368D01*
X173021620Y-71311513D01*
X173094180Y-71289502D01*
X173204494Y-71230537D01*
X173301185Y-71151185D01*
X173380537Y-71054494D01*
X173439502Y-70944180D01*
X173475812Y-70824482D01*
X173488072Y-70700000D01*
X173485000Y-70135750D01*
X173326250Y-69977000D01*
X172127000Y-69977000D01*
X172127000Y-69997000D01*
X171873000Y-69997000D01*
X171873000Y-69977000D01*
X170673750Y-69977000D01*
X170515000Y-70135750D01*
X170514187Y-70285000D01*
X167743049Y-70285000D01*
X167749853Y-70268574D01*
X167805000Y-69991335D01*
X167805000Y-69708665D01*
X167749853Y-69431426D01*
X167641680Y-69170273D01*
X167527908Y-69000000D01*
X170511928Y-69000000D01*
X170515000Y-69564250D01*
X170673750Y-69723000D01*
X171873000Y-69723000D01*
X171873000Y-68523750D01*
X172127000Y-68523750D01*
X172127000Y-69723000D01*
X173326250Y-69723000D01*
X173485000Y-69564250D01*
X173488072Y-69000000D01*
X173475812Y-68875518D01*
X173439502Y-68755820D01*
X173380537Y-68645506D01*
X173301185Y-68548815D01*
X173204494Y-68469463D01*
X173094180Y-68410498D01*
X172974482Y-68374188D01*
X172850000Y-68361928D01*
X172285750Y-68365000D01*
X172127000Y-68523750D01*
X171873000Y-68523750D01*
X171714250Y-68365000D01*
X171150000Y-68361928D01*
X171025518Y-68374188D01*
X170905820Y-68410498D01*
X170795506Y-68469463D01*
X170698815Y-68548815D01*
X170619463Y-68645506D01*
X170560498Y-68755820D01*
X170524188Y-68875518D01*
X170511928Y-69000000D01*
X167527908Y-69000000D01*
X167484637Y-68935241D01*
X167284759Y-68735363D01*
X167052241Y-68580000D01*
X167284759Y-68424637D01*
X167484637Y-68224759D01*
X167641680Y-67989727D01*
X167749853Y-67728574D01*
X167805000Y-67451335D01*
X167805000Y-67168665D01*
X167749853Y-66891426D01*
X167641680Y-66630273D01*
X167484637Y-66395241D01*
X167284759Y-66195363D01*
X167052241Y-66040000D01*
X167284759Y-65884637D01*
X167484637Y-65684759D01*
X167641680Y-65449727D01*
X167749853Y-65188574D01*
X167805000Y-64911335D01*
X167805000Y-64628665D01*
X167749853Y-64351426D01*
X167641680Y-64090273D01*
X167484637Y-63855241D01*
X167284759Y-63655363D01*
X167049727Y-63498320D01*
X166788574Y-63390147D01*
X166511335Y-63335000D01*
X166228665Y-63335000D01*
X165951426Y-63390147D01*
X165690273Y-63498320D01*
X165455241Y-63655363D01*
X165306643Y-63803961D01*
X165305812Y-63795518D01*
X165269502Y-63675820D01*
X165210537Y-63565506D01*
X165131185Y-63468815D01*
X165034494Y-63389463D01*
X164924180Y-63330498D01*
X164804482Y-63294188D01*
X164680000Y-63281928D01*
X162980000Y-63281928D01*
X162855518Y-63294188D01*
X162735820Y-63330498D01*
X162625506Y-63389463D01*
X162528815Y-63468815D01*
X162449463Y-63565506D01*
X162390498Y-63675820D01*
X162354188Y-63795518D01*
X162341928Y-63920000D01*
X162341928Y-65620000D01*
X162354188Y-65744482D01*
X162390498Y-65864180D01*
X162449463Y-65974494D01*
X162528815Y-66071185D01*
X162625506Y-66150537D01*
X162735820Y-66209502D01*
X162808380Y-66231513D01*
X162676525Y-66363368D01*
X162514010Y-66606589D01*
X162402068Y-66876842D01*
X162345000Y-67163740D01*
X162345000Y-67456260D01*
X162402068Y-67743158D01*
X162514010Y-68013411D01*
X162676525Y-68256632D01*
X162883368Y-68463475D01*
X163057760Y-68580000D01*
X162883368Y-68696525D01*
X162676525Y-68903368D01*
X162514010Y-69146589D01*
X162402068Y-69416842D01*
X162345000Y-69703740D01*
X162345000Y-69996260D01*
X162402068Y-70283158D01*
X162402831Y-70285000D01*
X162061660Y-70285000D01*
X161923623Y-70171716D01*
X161726447Y-70066324D01*
X161512499Y-70001423D01*
X161290000Y-69979509D01*
X161067501Y-70001423D01*
X160853553Y-70066324D01*
X160656377Y-70171716D01*
X160526857Y-70278011D01*
X159891861Y-70913008D01*
X159891856Y-70913012D01*
X158621860Y-72183009D01*
X158578552Y-72218551D01*
X158436717Y-72391377D01*
X158380384Y-72496770D01*
X158331324Y-72588554D01*
X158266423Y-72802502D01*
X158244509Y-73025000D01*
X158250001Y-73080761D01*
X158250000Y-86524868D01*
X157986861Y-86788008D01*
X157986856Y-86788012D01*
X155080386Y-89694482D01*
X154985990Y-89466589D01*
X154823475Y-89223368D01*
X154616632Y-89016525D01*
X154442240Y-88900000D01*
X154616632Y-88783475D01*
X154823475Y-88576632D01*
X154985990Y-88333411D01*
X155097932Y-88063158D01*
X155155000Y-87776260D01*
X155155000Y-87483740D01*
X155097932Y-87196842D01*
X154985990Y-86926589D01*
X154823475Y-86683368D01*
X154616632Y-86476525D01*
X154442240Y-86360000D01*
X154616632Y-86243475D01*
X154823475Y-86036632D01*
X154985990Y-85793411D01*
X155097932Y-85523158D01*
X155155000Y-85236260D01*
X155155000Y-84943740D01*
X155097932Y-84656842D01*
X154985990Y-84386589D01*
X154823475Y-84143368D01*
X154616632Y-83936525D01*
X154442240Y-83820000D01*
X154616632Y-83703475D01*
X154823475Y-83496632D01*
X154985990Y-83253411D01*
X155097932Y-82983158D01*
X155155000Y-82696260D01*
X155155000Y-82403740D01*
X155097932Y-82116842D01*
X154985990Y-81846589D01*
X154823475Y-81603368D01*
X154616632Y-81396525D01*
X154442240Y-81280000D01*
X154616632Y-81163475D01*
X154823475Y-80956632D01*
X154985990Y-80713411D01*
X155097932Y-80443158D01*
X155155000Y-80156260D01*
X155155000Y-79863740D01*
X155097932Y-79576842D01*
X154985990Y-79306589D01*
X154823475Y-79063368D01*
X154616632Y-78856525D01*
X154442240Y-78740000D01*
X154616632Y-78623475D01*
X154823475Y-78416632D01*
X154985990Y-78173411D01*
X155097932Y-77903158D01*
X155155000Y-77616260D01*
X155155000Y-77323740D01*
X155097932Y-77036842D01*
X154985990Y-76766589D01*
X154823475Y-76523368D01*
X154616632Y-76316525D01*
X154442240Y-76200000D01*
X154616632Y-76083475D01*
X154823475Y-75876632D01*
X154985990Y-75633411D01*
X155097932Y-75363158D01*
X155155000Y-75076260D01*
X155155000Y-74783740D01*
X155097932Y-74496842D01*
X154985990Y-74226589D01*
X154823475Y-73983368D01*
X154616632Y-73776525D01*
X154442240Y-73660000D01*
X154616632Y-73543475D01*
X154823475Y-73336632D01*
X154985990Y-73093411D01*
X155097932Y-72823158D01*
X155155000Y-72536260D01*
X155155000Y-72243740D01*
X155097932Y-71956842D01*
X154985990Y-71686589D01*
X154823475Y-71443368D01*
X154616632Y-71236525D01*
X154442240Y-71120000D01*
X154616632Y-71003475D01*
X154823475Y-70796632D01*
X154985990Y-70553411D01*
X155097932Y-70283158D01*
X155155000Y-69996260D01*
X155155000Y-69703740D01*
X155097932Y-69416842D01*
X154985990Y-69146589D01*
X154823475Y-68903368D01*
X154616632Y-68696525D01*
X154442240Y-68580000D01*
X154616632Y-68463475D01*
X154823475Y-68256632D01*
X154985990Y-68013411D01*
X155097932Y-67743158D01*
X155155000Y-67456260D01*
X155155000Y-67163740D01*
X155097932Y-66876842D01*
X154985990Y-66606589D01*
X154823475Y-66363368D01*
X154691620Y-66231513D01*
X154764180Y-66209502D01*
X154874494Y-66150537D01*
X154971185Y-66071185D01*
X155050537Y-65974494D01*
X155109502Y-65864180D01*
X155145812Y-65744482D01*
X155158072Y-65620000D01*
X155158072Y-63920000D01*
X155145812Y-63795518D01*
X155109502Y-63675820D01*
X155050537Y-63565506D01*
X154971185Y-63468815D01*
X154874494Y-63389463D01*
X154764180Y-63330498D01*
X154644482Y-63294188D01*
X154520000Y-63281928D01*
X152820000Y-63281928D01*
X152695518Y-63294188D01*
X152575820Y-63330498D01*
X152465506Y-63389463D01*
X152368815Y-63468815D01*
X152289463Y-63565506D01*
X152230498Y-63675820D01*
X152194188Y-63795518D01*
X152193357Y-63803961D01*
X152044759Y-63655363D01*
X151809727Y-63498320D01*
X151548574Y-63390147D01*
X151271335Y-63335000D01*
X150988665Y-63335000D01*
X150711426Y-63390147D01*
X150450273Y-63498320D01*
X150215241Y-63655363D01*
X150015363Y-63855241D01*
X149885000Y-64050343D01*
X149885000Y-61639721D01*
X169865000Y-61639721D01*
X169865000Y-62060279D01*
X169947047Y-62472756D01*
X170107988Y-62861302D01*
X170341637Y-63210983D01*
X170639017Y-63508363D01*
X170988698Y-63742012D01*
X171377244Y-63902953D01*
X171789721Y-63985000D01*
X172210279Y-63985000D01*
X172622756Y-63902953D01*
X173011302Y-63742012D01*
X173360983Y-63508363D01*
X173658363Y-63210983D01*
X173892012Y-62861302D01*
X174052953Y-62472756D01*
X174135000Y-62060279D01*
X174135000Y-61639721D01*
X174052953Y-61227244D01*
X173892012Y-60838698D01*
X173658363Y-60489017D01*
X173360983Y-60191637D01*
X173011302Y-59957988D01*
X172622756Y-59797047D01*
X172210279Y-59715000D01*
X171789721Y-59715000D01*
X171377244Y-59797047D01*
X170988698Y-59957988D01*
X170639017Y-60191637D01*
X170341637Y-60489017D01*
X170107988Y-60838698D01*
X169947047Y-61227244D01*
X169865000Y-61639721D01*
X149885000Y-61639721D01*
X149885000Y-59080000D01*
X174600001Y-59080000D01*
X174600000Y-110457581D01*
G36*
X162402068Y-71956842D02*
G01*
X162345000Y-72243740D01*
X162345000Y-72536260D01*
X162402068Y-72823158D01*
X162514010Y-73093411D01*
X162676525Y-73336632D01*
X162883368Y-73543475D01*
X163057760Y-73660000D01*
X162883368Y-73776525D01*
X162676525Y-73983368D01*
X162514010Y-74226589D01*
X162402068Y-74496842D01*
X162345000Y-74783740D01*
X162345000Y-75076260D01*
X162402068Y-75363158D01*
X162514010Y-75633411D01*
X162676525Y-75876632D01*
X162883368Y-76083475D01*
X163057760Y-76200000D01*
X162883368Y-76316525D01*
X162676525Y-76523368D01*
X162514010Y-76766589D01*
X162402068Y-77036842D01*
X162345000Y-77323740D01*
X162345000Y-77616260D01*
X162402068Y-77903158D01*
X162514010Y-78173411D01*
X162676525Y-78416632D01*
X162883368Y-78623475D01*
X163057760Y-78740000D01*
X162883368Y-78856525D01*
X162676525Y-79063368D01*
X162514010Y-79306589D01*
X162402068Y-79576842D01*
X162345000Y-79863740D01*
X162345000Y-80156260D01*
X162402068Y-80443158D01*
X162514010Y-80713411D01*
X162676525Y-80956632D01*
X162883368Y-81163475D01*
X163057760Y-81280000D01*
X162883368Y-81396525D01*
X162676525Y-81603368D01*
X162514010Y-81846589D01*
X162402068Y-82116842D01*
X162345000Y-82403740D01*
X162345000Y-82696260D01*
X162402068Y-82983158D01*
X162514010Y-83253411D01*
X162676525Y-83496632D01*
X162883368Y-83703475D01*
X163057760Y-83820000D01*
X162883368Y-83936525D01*
X162676525Y-84143368D01*
X162514010Y-84386589D01*
X162402068Y-84656842D01*
X162345000Y-84943740D01*
X162345000Y-85236260D01*
X162402068Y-85523158D01*
X162514010Y-85793411D01*
X162676525Y-86036632D01*
X162883368Y-86243475D01*
X163057760Y-86360000D01*
X162883368Y-86476525D01*
X162676525Y-86683368D01*
X162514010Y-86926589D01*
X162402068Y-87196842D01*
X162345000Y-87483740D01*
X162345000Y-87776260D01*
X162402068Y-88063158D01*
X162514010Y-88333411D01*
X162676525Y-88576632D01*
X162883368Y-88783475D01*
X163057760Y-88900000D01*
X162883368Y-89016525D01*
X162676525Y-89223368D01*
X162514010Y-89466589D01*
X162402068Y-89736842D01*
X162345000Y-90023740D01*
X162345000Y-90316260D01*
X162402068Y-90603158D01*
X162514010Y-90873411D01*
X162676525Y-91116632D01*
X162883368Y-91323475D01*
X163065534Y-91445195D01*
X162948645Y-91514822D01*
X162732412Y-91709731D01*
X162558359Y-91943080D01*
X162433175Y-92205901D01*
X162388524Y-92353110D01*
X162509845Y-92583000D01*
X163703000Y-92583000D01*
X163703000Y-92563000D01*
X163957000Y-92563000D01*
X163957000Y-92583000D01*
X166243000Y-92583000D01*
X166243000Y-92563000D01*
X166497000Y-92563000D01*
X166497000Y-92583000D01*
X167639915Y-92583000D01*
X167761904Y-92360961D01*
X167721246Y-92226913D01*
X167601037Y-91972580D01*
X167433519Y-91746586D01*
X167225131Y-91557615D01*
X167039135Y-91446067D01*
X167049727Y-91441680D01*
X167284759Y-91284637D01*
X167484637Y-91084759D01*
X167641680Y-90849727D01*
X167749853Y-90588574D01*
X167805000Y-90311335D01*
X167805000Y-90028665D01*
X167749853Y-89751426D01*
X167641680Y-89490273D01*
X167484637Y-89255241D01*
X167284759Y-89055363D01*
X167052241Y-88900000D01*
X167284759Y-88744637D01*
X167484637Y-88544759D01*
X167641680Y-88309727D01*
X167749853Y-88048574D01*
X167805000Y-87771335D01*
X167805000Y-87488665D01*
X167749853Y-87211426D01*
X167641680Y-86950273D01*
X167484637Y-86715241D01*
X167284759Y-86515363D01*
X167052241Y-86360000D01*
X167284759Y-86204637D01*
X167484637Y-86004759D01*
X167641680Y-85769727D01*
X167749853Y-85508574D01*
X167805000Y-85231335D01*
X167805000Y-84948665D01*
X167749853Y-84671426D01*
X167641680Y-84410273D01*
X167484637Y-84175241D01*
X167284759Y-83975363D01*
X167052241Y-83820000D01*
X167284759Y-83664637D01*
X167484637Y-83464759D01*
X167641680Y-83229727D01*
X167749853Y-82968574D01*
X167805000Y-82691335D01*
X167805000Y-82408665D01*
X167749853Y-82131426D01*
X167641680Y-81870273D01*
X167484637Y-81635241D01*
X167284759Y-81435363D01*
X167052241Y-81280000D01*
X167284759Y-81124637D01*
X167484637Y-80924759D01*
X167641680Y-80689727D01*
X167749853Y-80428574D01*
X167805000Y-80151335D01*
X167805000Y-79868665D01*
X167749853Y-79591426D01*
X167641680Y-79330273D01*
X167484637Y-79095241D01*
X167284759Y-78895363D01*
X167052241Y-78740000D01*
X167284759Y-78584637D01*
X167484637Y-78384759D01*
X167641680Y-78149727D01*
X167749853Y-77888574D01*
X167805000Y-77611335D01*
X167805000Y-77328665D01*
X167749853Y-77051426D01*
X167641680Y-76790273D01*
X167484637Y-76555241D01*
X167284759Y-76355363D01*
X167052241Y-76200000D01*
X167284759Y-76044637D01*
X167484637Y-75844759D01*
X167641680Y-75609727D01*
X167749853Y-75348574D01*
X167805000Y-75071335D01*
X167805000Y-74788665D01*
X167749853Y-74511426D01*
X167641680Y-74250273D01*
X167484637Y-74015241D01*
X167284759Y-73815363D01*
X167052241Y-73660000D01*
X167284759Y-73504637D01*
X167484637Y-73304759D01*
X167641680Y-73069727D01*
X167749853Y-72808574D01*
X167805000Y-72531335D01*
X167805000Y-72248665D01*
X167749853Y-71971426D01*
X167743049Y-71955000D01*
X170384133Y-71955000D01*
X170541193Y-72112060D01*
X170515000Y-72243740D01*
X170515000Y-72536260D01*
X170572068Y-72823158D01*
X170684010Y-73093411D01*
X170846525Y-73336632D01*
X171053368Y-73543475D01*
X171227760Y-73660000D01*
X171053368Y-73776525D01*
X170846525Y-73983368D01*
X170684010Y-74226589D01*
X170572068Y-74496842D01*
X170515000Y-74783740D01*
X170515000Y-75076260D01*
X170572068Y-75363158D01*
X170684010Y-75633411D01*
X170846525Y-75876632D01*
X171053368Y-76083475D01*
X171227760Y-76200000D01*
X171053368Y-76316525D01*
X170846525Y-76523368D01*
X170684010Y-76766589D01*
X170572068Y-77036842D01*
X170515000Y-77323740D01*
X170515000Y-77616260D01*
X170572068Y-77903158D01*
X170684010Y-78173411D01*
X170846525Y-78416632D01*
X171053368Y-78623475D01*
X171235534Y-78745195D01*
X171118645Y-78814822D01*
X170902412Y-79009731D01*
X170728359Y-79243080D01*
X170603175Y-79505901D01*
X170558524Y-79653110D01*
X170679845Y-79883000D01*
X171873000Y-79883000D01*
X171873000Y-79863000D01*
X172127000Y-79863000D01*
X172127000Y-79883000D01*
X172147000Y-79883000D01*
X172147000Y-80137000D01*
X172127000Y-80137000D01*
X172127000Y-80157000D01*
X171873000Y-80157000D01*
X171873000Y-80137000D01*
X170679845Y-80137000D01*
X170558524Y-80366890D01*
X170603175Y-80514099D01*
X170728359Y-80776920D01*
X170902412Y-81010269D01*
X171118645Y-81205178D01*
X171235534Y-81274805D01*
X171053368Y-81396525D01*
X170846525Y-81603368D01*
X170684010Y-81846589D01*
X170572068Y-82116842D01*
X170515000Y-82403740D01*
X170515000Y-82696260D01*
X170572068Y-82983158D01*
X170684010Y-83253411D01*
X170846525Y-83496632D01*
X171053368Y-83703475D01*
X171227760Y-83820000D01*
X171053368Y-83936525D01*
X170846525Y-84143368D01*
X170684010Y-84386589D01*
X170572068Y-84656842D01*
X170515000Y-84943740D01*
X170515000Y-85236260D01*
X170572068Y-85523158D01*
X170684010Y-85793411D01*
X170846525Y-86036632D01*
X171053368Y-86243475D01*
X171227760Y-86360000D01*
X171053368Y-86476525D01*
X170846525Y-86683368D01*
X170684010Y-86926589D01*
X170572068Y-87196842D01*
X170515000Y-87483740D01*
X170515000Y-87776260D01*
X170572068Y-88063158D01*
X170684010Y-88333411D01*
X170846525Y-88576632D01*
X171053368Y-88783475D01*
X171227760Y-88900000D01*
X171053368Y-89016525D01*
X170846525Y-89223368D01*
X170684010Y-89466589D01*
X170572068Y-89736842D01*
X170515000Y-90023740D01*
X170515000Y-90316260D01*
X170572068Y-90603158D01*
X170684010Y-90873411D01*
X170846525Y-91116632D01*
X171053368Y-91323475D01*
X171227760Y-91440000D01*
X171053368Y-91556525D01*
X170846525Y-91763368D01*
X170684010Y-92006589D01*
X170572068Y-92276842D01*
X170515000Y-92563740D01*
X170515000Y-92856260D01*
X170572068Y-93143158D01*
X170684010Y-93413411D01*
X170846525Y-93656632D01*
X171053368Y-93863475D01*
X171227760Y-93980000D01*
X171053368Y-94096525D01*
X170846525Y-94303368D01*
X170684010Y-94546589D01*
X170572068Y-94816842D01*
X170515000Y-95103740D01*
X170515000Y-95396260D01*
X170572068Y-95683158D01*
X170684010Y-95953411D01*
X170846525Y-96196632D01*
X171053368Y-96403475D01*
X171227760Y-96520000D01*
X171053368Y-96636525D01*
X170846525Y-96843368D01*
X170684010Y-97086589D01*
X170572068Y-97356842D01*
X170515000Y-97643740D01*
X170515000Y-97936260D01*
X170572068Y-98223158D01*
X170684010Y-98493411D01*
X170846525Y-98736632D01*
X171053368Y-98943475D01*
X171227760Y-99060000D01*
X171053368Y-99176525D01*
X170846525Y-99383368D01*
X170684010Y-99626589D01*
X170572068Y-99896842D01*
X170515000Y-100183740D01*
X170515000Y-100476260D01*
X170572068Y-100763158D01*
X170684010Y-101033411D01*
X170846525Y-101276632D01*
X171053368Y-101483475D01*
X171227760Y-101600000D01*
X171053368Y-101716525D01*
X170846525Y-101923368D01*
X170684010Y-102166589D01*
X170572068Y-102436842D01*
X170515000Y-102723740D01*
X170515000Y-103016260D01*
X170572068Y-103303158D01*
X170684010Y-103573411D01*
X170846525Y-103816632D01*
X171053368Y-104023475D01*
X171227760Y-104140000D01*
X171053368Y-104256525D01*
X171034893Y-104275000D01*
X166425752Y-104275000D01*
X166370000Y-104269509D01*
X166314248Y-104275000D01*
X165790752Y-104275000D01*
X165735000Y-104269509D01*
X165679249Y-104275000D01*
X165155751Y-104275000D01*
X165100000Y-104269509D01*
X165044249Y-104275000D01*
X164935132Y-104275000D01*
X159885000Y-99224869D01*
X159885000Y-97845751D01*
X159890491Y-97790000D01*
X159868577Y-97567501D01*
X159803676Y-97353553D01*
X159698284Y-97156377D01*
X159639258Y-97084454D01*
X159556449Y-96983551D01*
X159513141Y-96948009D01*
X157668872Y-95103740D01*
X162345000Y-95103740D01*
X162345000Y-95396260D01*
X162402068Y-95683158D01*
X162514010Y-95953411D01*
X162676525Y-96196632D01*
X162883368Y-96403475D01*
X163057760Y-96520000D01*
X162883368Y-96636525D01*
X162676525Y-96843368D01*
X162514010Y-97086589D01*
X162402068Y-97356842D01*
X162345000Y-97643740D01*
X162345000Y-97936260D01*
X162402068Y-98223158D01*
X162514010Y-98493411D01*
X162676525Y-98736632D01*
X162883368Y-98943475D01*
X163057760Y-99060000D01*
X162883368Y-99176525D01*
X162676525Y-99383368D01*
X162514010Y-99626589D01*
X162402068Y-99896842D01*
X162345000Y-100183740D01*
X162345000Y-100476260D01*
X162402068Y-100763158D01*
X162514010Y-101033411D01*
X162676525Y-101276632D01*
X162883368Y-101483475D01*
X163126589Y-101645990D01*
X163396842Y-101757932D01*
X163683740Y-101815000D01*
X163976260Y-101815000D01*
X164263158Y-101757932D01*
X164533411Y-101645990D01*
X164776632Y-101483475D01*
X164958487Y-101301620D01*
X164980498Y-101374180D01*
X165039463Y-101484494D01*
X165118815Y-101581185D01*
X165215506Y-101660537D01*
X165325820Y-101719502D01*
X165445518Y-101755812D01*
X165570000Y-101768072D01*
X167170000Y-101768072D01*
X167294482Y-101755812D01*
X167414180Y-101719502D01*
X167524494Y-101660537D01*
X167621185Y-101581185D01*
X167700537Y-101484494D01*
X167759502Y-101374180D01*
X167795812Y-101254482D01*
X167808072Y-101130000D01*
X167808072Y-99530000D01*
X167795812Y-99405518D01*
X167759502Y-99285820D01*
X167700537Y-99175506D01*
X167621185Y-99078815D01*
X167524494Y-98999463D01*
X167414180Y-98940498D01*
X167294482Y-98904188D01*
X167286039Y-98903357D01*
X167484637Y-98704759D01*
X167641680Y-98469727D01*
X167749853Y-98208574D01*
X167805000Y-97931335D01*
X167805000Y-97648665D01*
X167749853Y-97371426D01*
X167641680Y-97110273D01*
X167484637Y-96875241D01*
X167284759Y-96675363D01*
X167052241Y-96520000D01*
X167284759Y-96364637D01*
X167484637Y-96164759D01*
X167641680Y-95929727D01*
X167749853Y-95668574D01*
X167805000Y-95391335D01*
X167805000Y-95108665D01*
X167749853Y-94831426D01*
X167641680Y-94570273D01*
X167484637Y-94335241D01*
X167284759Y-94135363D01*
X167049727Y-93978320D01*
X167039135Y-93973933D01*
X167225131Y-93862385D01*
X167433519Y-93673414D01*
X167601037Y-93447420D01*
X167721246Y-93193087D01*
X167761904Y-93059039D01*
X167639915Y-92837000D01*
X166497000Y-92837000D01*
X166497000Y-92857000D01*
X166243000Y-92857000D01*
X166243000Y-92837000D01*
X163957000Y-92837000D01*
X163957000Y-92857000D01*
X163703000Y-92857000D01*
X163703000Y-92837000D01*
X162509845Y-92837000D01*
X162388524Y-93066890D01*
X162433175Y-93214099D01*
X162558359Y-93476920D01*
X162732412Y-93710269D01*
X162948645Y-93905178D01*
X163065534Y-93974805D01*
X162883368Y-94096525D01*
X162676525Y-94303368D01*
X162514010Y-94546589D01*
X162402068Y-94816842D01*
X162345000Y-95103740D01*
X157668872Y-95103740D01*
X155275131Y-92710000D01*
X159591988Y-88393144D01*
X159591992Y-88393139D01*
X160148140Y-87836992D01*
X160191449Y-87801449D01*
X160333284Y-87628623D01*
X160438676Y-87431447D01*
X160503577Y-87217499D01*
X160520000Y-87050752D01*
X160520000Y-87050751D01*
X160525491Y-86995000D01*
X160520000Y-86939248D01*
X160520000Y-73495131D01*
X161496988Y-72518144D01*
X161496992Y-72518139D01*
X162060132Y-71955000D01*
X162402831Y-71955000D01*
X162402068Y-71956842D01*
G37*
X162402068Y-71956842D02*
X162345000Y-72243740D01*
X162345000Y-72536260D01*
X162402068Y-72823158D01*
X162514010Y-73093411D01*
X162676525Y-73336632D01*
X162883368Y-73543475D01*
X163057760Y-73660000D01*
X162883368Y-73776525D01*
X162676525Y-73983368D01*
X162514010Y-74226589D01*
X162402068Y-74496842D01*
X162345000Y-74783740D01*
X162345000Y-75076260D01*
X162402068Y-75363158D01*
X162514010Y-75633411D01*
X162676525Y-75876632D01*
X162883368Y-76083475D01*
X163057760Y-76200000D01*
X162883368Y-76316525D01*
X162676525Y-76523368D01*
X162514010Y-76766589D01*
X162402068Y-77036842D01*
X162345000Y-77323740D01*
X162345000Y-77616260D01*
X162402068Y-77903158D01*
X162514010Y-78173411D01*
X162676525Y-78416632D01*
X162883368Y-78623475D01*
X163057760Y-78740000D01*
X162883368Y-78856525D01*
X162676525Y-79063368D01*
X162514010Y-79306589D01*
X162402068Y-79576842D01*
X162345000Y-79863740D01*
X162345000Y-80156260D01*
X162402068Y-80443158D01*
X162514010Y-80713411D01*
X162676525Y-80956632D01*
X162883368Y-81163475D01*
X163057760Y-81280000D01*
X162883368Y-81396525D01*
X162676525Y-81603368D01*
X162514010Y-81846589D01*
X162402068Y-82116842D01*
X162345000Y-82403740D01*
X162345000Y-82696260D01*
X162402068Y-82983158D01*
X162514010Y-83253411D01*
X162676525Y-83496632D01*
X162883368Y-83703475D01*
X163057760Y-83820000D01*
X162883368Y-83936525D01*
X162676525Y-84143368D01*
X162514010Y-84386589D01*
X162402068Y-84656842D01*
X162345000Y-84943740D01*
X162345000Y-85236260D01*
X162402068Y-85523158D01*
X162514010Y-85793411D01*
X162676525Y-86036632D01*
X162883368Y-86243475D01*
X163057760Y-86360000D01*
X162883368Y-86476525D01*
X162676525Y-86683368D01*
X162514010Y-86926589D01*
X162402068Y-87196842D01*
X162345000Y-87483740D01*
X162345000Y-87776260D01*
X162402068Y-88063158D01*
X162514010Y-88333411D01*
X162676525Y-88576632D01*
X162883368Y-88783475D01*
X163057760Y-88900000D01*
X162883368Y-89016525D01*
X162676525Y-89223368D01*
X162514010Y-89466589D01*
X162402068Y-89736842D01*
X162345000Y-90023740D01*
X162345000Y-90316260D01*
X162402068Y-90603158D01*
X162514010Y-90873411D01*
X162676525Y-91116632D01*
X162883368Y-91323475D01*
X163065534Y-91445195D01*
X162948645Y-91514822D01*
X162732412Y-91709731D01*
X162558359Y-91943080D01*
X162433175Y-92205901D01*
X162388524Y-92353110D01*
X162509845Y-92583000D01*
X163703000Y-92583000D01*
X163703000Y-92563000D01*
X163957000Y-92563000D01*
X163957000Y-92583000D01*
X166243000Y-92583000D01*
X166243000Y-92563000D01*
X166497000Y-92563000D01*
X166497000Y-92583000D01*
X167639915Y-92583000D01*
X167761904Y-92360961D01*
X167721246Y-92226913D01*
X167601037Y-91972580D01*
X167433519Y-91746586D01*
X167225131Y-91557615D01*
X167039135Y-91446067D01*
X167049727Y-91441680D01*
X167284759Y-91284637D01*
X167484637Y-91084759D01*
X167641680Y-90849727D01*
X167749853Y-90588574D01*
X167805000Y-90311335D01*
X167805000Y-90028665D01*
X167749853Y-89751426D01*
X167641680Y-89490273D01*
X167484637Y-89255241D01*
X167284759Y-89055363D01*
X167052241Y-88900000D01*
X167284759Y-88744637D01*
X167484637Y-88544759D01*
X167641680Y-88309727D01*
X167749853Y-88048574D01*
X167805000Y-87771335D01*
X167805000Y-87488665D01*
X167749853Y-87211426D01*
X167641680Y-86950273D01*
X167484637Y-86715241D01*
X167284759Y-86515363D01*
X167052241Y-86360000D01*
X167284759Y-86204637D01*
X167484637Y-86004759D01*
X167641680Y-85769727D01*
X167749853Y-85508574D01*
X167805000Y-85231335D01*
X167805000Y-84948665D01*
X167749853Y-84671426D01*
X167641680Y-84410273D01*
X167484637Y-84175241D01*
X167284759Y-83975363D01*
X167052241Y-83820000D01*
X167284759Y-83664637D01*
X167484637Y-83464759D01*
X167641680Y-83229727D01*
X167749853Y-82968574D01*
X167805000Y-82691335D01*
X167805000Y-82408665D01*
X167749853Y-82131426D01*
X167641680Y-81870273D01*
X167484637Y-81635241D01*
X167284759Y-81435363D01*
X167052241Y-81280000D01*
X167284759Y-81124637D01*
X167484637Y-80924759D01*
X167641680Y-80689727D01*
X167749853Y-80428574D01*
X167805000Y-80151335D01*
X167805000Y-79868665D01*
X167749853Y-79591426D01*
X167641680Y-79330273D01*
X167484637Y-79095241D01*
X167284759Y-78895363D01*
X167052241Y-78740000D01*
X167284759Y-78584637D01*
X167484637Y-78384759D01*
X167641680Y-78149727D01*
X167749853Y-77888574D01*
X167805000Y-77611335D01*
X167805000Y-77328665D01*
X167749853Y-77051426D01*
X167641680Y-76790273D01*
X167484637Y-76555241D01*
X167284759Y-76355363D01*
X167052241Y-76200000D01*
X167284759Y-76044637D01*
X167484637Y-75844759D01*
X167641680Y-75609727D01*
X167749853Y-75348574D01*
X167805000Y-75071335D01*
X167805000Y-74788665D01*
X167749853Y-74511426D01*
X167641680Y-74250273D01*
X167484637Y-74015241D01*
X167284759Y-73815363D01*
X167052241Y-73660000D01*
X167284759Y-73504637D01*
X167484637Y-73304759D01*
X167641680Y-73069727D01*
X167749853Y-72808574D01*
X167805000Y-72531335D01*
X167805000Y-72248665D01*
X167749853Y-71971426D01*
X167743049Y-71955000D01*
X170384133Y-71955000D01*
X170541193Y-72112060D01*
X170515000Y-72243740D01*
X170515000Y-72536260D01*
X170572068Y-72823158D01*
X170684010Y-73093411D01*
X170846525Y-73336632D01*
X171053368Y-73543475D01*
X171227760Y-73660000D01*
X171053368Y-73776525D01*
X170846525Y-73983368D01*
X170684010Y-74226589D01*
X170572068Y-74496842D01*
X170515000Y-74783740D01*
X170515000Y-75076260D01*
X170572068Y-75363158D01*
X170684010Y-75633411D01*
X170846525Y-75876632D01*
X171053368Y-76083475D01*
X171227760Y-76200000D01*
X171053368Y-76316525D01*
X170846525Y-76523368D01*
X170684010Y-76766589D01*
X170572068Y-77036842D01*
X170515000Y-77323740D01*
X170515000Y-77616260D01*
X170572068Y-77903158D01*
X170684010Y-78173411D01*
X170846525Y-78416632D01*
X171053368Y-78623475D01*
X171235534Y-78745195D01*
X171118645Y-78814822D01*
X170902412Y-79009731D01*
X170728359Y-79243080D01*
X170603175Y-79505901D01*
X170558524Y-79653110D01*
X170679845Y-79883000D01*
X171873000Y-79883000D01*
X171873000Y-79863000D01*
X172127000Y-79863000D01*
X172127000Y-79883000D01*
X172147000Y-79883000D01*
X172147000Y-80137000D01*
X172127000Y-80137000D01*
X172127000Y-80157000D01*
X171873000Y-80157000D01*
X171873000Y-80137000D01*
X170679845Y-80137000D01*
X170558524Y-80366890D01*
X170603175Y-80514099D01*
X170728359Y-80776920D01*
X170902412Y-81010269D01*
X171118645Y-81205178D01*
X171235534Y-81274805D01*
X171053368Y-81396525D01*
X170846525Y-81603368D01*
X170684010Y-81846589D01*
X170572068Y-82116842D01*
X170515000Y-82403740D01*
X170515000Y-82696260D01*
X170572068Y-82983158D01*
X170684010Y-83253411D01*
X170846525Y-83496632D01*
X171053368Y-83703475D01*
X171227760Y-83820000D01*
X171053368Y-83936525D01*
X170846525Y-84143368D01*
X170684010Y-84386589D01*
X170572068Y-84656842D01*
X170515000Y-84943740D01*
X170515000Y-85236260D01*
X170572068Y-85523158D01*
X170684010Y-85793411D01*
X170846525Y-86036632D01*
X171053368Y-86243475D01*
X171227760Y-86360000D01*
X171053368Y-86476525D01*
X170846525Y-86683368D01*
X170684010Y-86926589D01*
X170572068Y-87196842D01*
X170515000Y-87483740D01*
X170515000Y-87776260D01*
X170572068Y-88063158D01*
X170684010Y-88333411D01*
X170846525Y-88576632D01*
X171053368Y-88783475D01*
X171227760Y-88900000D01*
X171053368Y-89016525D01*
X170846525Y-89223368D01*
X170684010Y-89466589D01*
X170572068Y-89736842D01*
X170515000Y-90023740D01*
X170515000Y-90316260D01*
X170572068Y-90603158D01*
X170684010Y-90873411D01*
X170846525Y-91116632D01*
X171053368Y-91323475D01*
X171227760Y-91440000D01*
X171053368Y-91556525D01*
X170846525Y-91763368D01*
X170684010Y-92006589D01*
X170572068Y-92276842D01*
X170515000Y-92563740D01*
X170515000Y-92856260D01*
X170572068Y-93143158D01*
X170684010Y-93413411D01*
X170846525Y-93656632D01*
X171053368Y-93863475D01*
X171227760Y-93980000D01*
X171053368Y-94096525D01*
X170846525Y-94303368D01*
X170684010Y-94546589D01*
X170572068Y-94816842D01*
X170515000Y-95103740D01*
X170515000Y-95396260D01*
X170572068Y-95683158D01*
X170684010Y-95953411D01*
X170846525Y-96196632D01*
X171053368Y-96403475D01*
X171227760Y-96520000D01*
X171053368Y-96636525D01*
X170846525Y-96843368D01*
X170684010Y-97086589D01*
X170572068Y-97356842D01*
X170515000Y-97643740D01*
X170515000Y-97936260D01*
X170572068Y-98223158D01*
X170684010Y-98493411D01*
X170846525Y-98736632D01*
X171053368Y-98943475D01*
X171227760Y-99060000D01*
X171053368Y-99176525D01*
X170846525Y-99383368D01*
X170684010Y-99626589D01*
X170572068Y-99896842D01*
X170515000Y-100183740D01*
X170515000Y-100476260D01*
X170572068Y-100763158D01*
X170684010Y-101033411D01*
X170846525Y-101276632D01*
X171053368Y-101483475D01*
X171227760Y-101600000D01*
X171053368Y-101716525D01*
X170846525Y-101923368D01*
X170684010Y-102166589D01*
X170572068Y-102436842D01*
X170515000Y-102723740D01*
X170515000Y-103016260D01*
X170572068Y-103303158D01*
X170684010Y-103573411D01*
X170846525Y-103816632D01*
X171053368Y-104023475D01*
X171227760Y-104140000D01*
X171053368Y-104256525D01*
X171034893Y-104275000D01*
X166425752Y-104275000D01*
X166370000Y-104269509D01*
X166314248Y-104275000D01*
X165790752Y-104275000D01*
X165735000Y-104269509D01*
X165679249Y-104275000D01*
X165155751Y-104275000D01*
X165100000Y-104269509D01*
X165044249Y-104275000D01*
X164935132Y-104275000D01*
X159885000Y-99224869D01*
X159885000Y-97845751D01*
X159890491Y-97790000D01*
X159868577Y-97567501D01*
X159803676Y-97353553D01*
X159698284Y-97156377D01*
X159639258Y-97084454D01*
X159556449Y-96983551D01*
X159513141Y-96948009D01*
X157668872Y-95103740D01*
X162345000Y-95103740D01*
X162345000Y-95396260D01*
X162402068Y-95683158D01*
X162514010Y-95953411D01*
X162676525Y-96196632D01*
X162883368Y-96403475D01*
X163057760Y-96520000D01*
X162883368Y-96636525D01*
X162676525Y-96843368D01*
X162514010Y-97086589D01*
X162402068Y-97356842D01*
X162345000Y-97643740D01*
X162345000Y-97936260D01*
X162402068Y-98223158D01*
X162514010Y-98493411D01*
X162676525Y-98736632D01*
X162883368Y-98943475D01*
X163057760Y-99060000D01*
X162883368Y-99176525D01*
X162676525Y-99383368D01*
X162514010Y-99626589D01*
X162402068Y-99896842D01*
X162345000Y-100183740D01*
X162345000Y-100476260D01*
X162402068Y-100763158D01*
X162514010Y-101033411D01*
X162676525Y-101276632D01*
X162883368Y-101483475D01*
X163126589Y-101645990D01*
X163396842Y-101757932D01*
X163683740Y-101815000D01*
X163976260Y-101815000D01*
X164263158Y-101757932D01*
X164533411Y-101645990D01*
X164776632Y-101483475D01*
X164958487Y-101301620D01*
X164980498Y-101374180D01*
X165039463Y-101484494D01*
X165118815Y-101581185D01*
X165215506Y-101660537D01*
X165325820Y-101719502D01*
X165445518Y-101755812D01*
X165570000Y-101768072D01*
X167170000Y-101768072D01*
X167294482Y-101755812D01*
X167414180Y-101719502D01*
X167524494Y-101660537D01*
X167621185Y-101581185D01*
X167700537Y-101484494D01*
X167759502Y-101374180D01*
X167795812Y-101254482D01*
X167808072Y-101130000D01*
X167808072Y-99530000D01*
X167795812Y-99405518D01*
X167759502Y-99285820D01*
X167700537Y-99175506D01*
X167621185Y-99078815D01*
X167524494Y-98999463D01*
X167414180Y-98940498D01*
X167294482Y-98904188D01*
X167286039Y-98903357D01*
X167484637Y-98704759D01*
X167641680Y-98469727D01*
X167749853Y-98208574D01*
X167805000Y-97931335D01*
X167805000Y-97648665D01*
X167749853Y-97371426D01*
X167641680Y-97110273D01*
X167484637Y-96875241D01*
X167284759Y-96675363D01*
X167052241Y-96520000D01*
X167284759Y-96364637D01*
X167484637Y-96164759D01*
X167641680Y-95929727D01*
X167749853Y-95668574D01*
X167805000Y-95391335D01*
X167805000Y-95108665D01*
X167749853Y-94831426D01*
X167641680Y-94570273D01*
X167484637Y-94335241D01*
X167284759Y-94135363D01*
X167049727Y-93978320D01*
X167039135Y-93973933D01*
X167225131Y-93862385D01*
X167433519Y-93673414D01*
X167601037Y-93447420D01*
X167721246Y-93193087D01*
X167761904Y-93059039D01*
X167639915Y-92837000D01*
X166497000Y-92837000D01*
X166497000Y-92857000D01*
X166243000Y-92857000D01*
X166243000Y-92837000D01*
X163957000Y-92837000D01*
X163957000Y-92857000D01*
X163703000Y-92857000D01*
X163703000Y-92837000D01*
X162509845Y-92837000D01*
X162388524Y-93066890D01*
X162433175Y-93214099D01*
X162558359Y-93476920D01*
X162732412Y-93710269D01*
X162948645Y-93905178D01*
X163065534Y-93974805D01*
X162883368Y-94096525D01*
X162676525Y-94303368D01*
X162514010Y-94546589D01*
X162402068Y-94816842D01*
X162345000Y-95103740D01*
X157668872Y-95103740D01*
X155275131Y-92710000D01*
X159591988Y-88393144D01*
X159591992Y-88393139D01*
X160148140Y-87836992D01*
X160191449Y-87801449D01*
X160333284Y-87628623D01*
X160438676Y-87431447D01*
X160503577Y-87217499D01*
X160520000Y-87050752D01*
X160520000Y-87050751D01*
X160525491Y-86995000D01*
X160520000Y-86939248D01*
X160520000Y-73495131D01*
X161496988Y-72518144D01*
X161496992Y-72518139D01*
X162060132Y-71955000D01*
X162402831Y-71955000D01*
X162402068Y-71956842D01*
%TD*%
M02*
