M48
; DRILL file {KiCad (5.1.6)-1} date 01/07/22 17:36:47
; FORMAT={-:-/ absolute / inch / decimal}
; #@! TF.CreationDate,2022-01-07T17:36:47-04:00
; #@! TF.GenerationSoftware,Kicad,Pcbnew,(5.1.6)-1
; #@! TF.FileFunction,Plated,1,2,PTH
FMAT,2
INCH
T1C0.0157
T2C0.0394
%
G90
G05
T1
X5.9Y-2.5
X5.95Y-4.1
X6.05Y-2.95
X6.05Y-3.85
X6.15Y-2.525
X6.15Y-2.85
X6.15Y-3.275
X6.15Y-3.65
X6.15Y-3.85
X6.275Y-4.075
X6.275Y-4.425
X6.35Y-2.525
X6.35Y-2.725
X6.35Y-3.65
X6.45Y-2.95
X6.45Y-3.675
X6.525Y-4.025
X6.65Y-4.025
X6.775Y-2.525
X6.775Y-2.65
X6.775Y-4.425
T2
X6.45Y-2.55
X6.45Y-2.65
X6.45Y-2.75
X6.45Y-2.85
X6.45Y-2.95
X6.45Y-3.05
X6.45Y-3.15
X6.45Y-3.25
X6.45Y-3.35
X6.45Y-3.45
X6.45Y-3.55
X6.45Y-3.65
X6.45Y-3.75
X6.45Y-3.85
X6.45Y-3.95
X6.425Y-4.325
X6.525Y-4.225
X6.525Y-4.425
X6.7717Y-2.75
X6.7717Y-2.85
X6.7717Y-2.95
X6.7717Y-3.05
X6.7717Y-3.15
X6.7717Y-3.25
X6.7717Y-3.35
X6.7717Y-3.45
X6.7717Y-3.55
X6.7717Y-3.65
X6.7717Y-3.75
X6.7717Y-3.85
X6.7717Y-3.95
X6.7717Y-4.05
X6.7717Y-4.15
X6.7717Y-4.25
X6.05Y-2.55
X6.05Y-2.65
X6.05Y-2.75
X6.05Y-2.85
X6.05Y-2.95
X6.05Y-3.05
X6.05Y-3.15
X6.05Y-3.25
X6.05Y-3.35
X6.05Y-3.45
X6.05Y-3.55
X6.05Y-3.65
X6.05Y-3.75
X6.05Y-3.85
X6.05Y-3.95
X5.95Y-2.55
X5.95Y-2.65
X5.95Y-2.75
X5.95Y-2.85
X5.95Y-2.95
X5.95Y-3.05
X5.95Y-3.15
X5.95Y-3.25
X5.95Y-3.35
X5.95Y-3.45
X5.95Y-3.55
X5.95Y-3.65
X5.95Y-3.75
X5.95Y-3.85
X5.95Y-3.95
X6.55Y-2.55
X6.55Y-2.65
X6.55Y-2.75
X6.55Y-2.85
X6.55Y-2.95
X6.55Y-3.05
X6.55Y-3.15
X6.55Y-3.25
X6.55Y-3.35
X6.55Y-3.45
X6.55Y-3.55
X6.55Y-3.65
X6.55Y-3.75
X6.55Y-3.85
X6.55Y-3.95
T0
M30
