%TF.GenerationSoftware,KiCad,Pcbnew,(5.1.6)-1*%
%TF.CreationDate,2022-01-07T17:36:53-04:00*%
%TF.ProjectId,LCD_adapter,4c43445f-6164-4617-9074-65722e6b6963,rev?*%
%TF.SameCoordinates,Original*%
%TF.FileFunction,Legend,Top*%
%TF.FilePolarity,Positive*%
%FSLAX46Y46*%
G04 Gerber Fmt 4.6, Leading zero omitted, Abs format (unit mm)*
G04 Created by KiCad (PCBNEW (5.1.6)-1) date 2022-01-07 17:36:53*
%MOMM*%
%LPD*%
G01*
G04 APERTURE LIST*
%ADD10C,0.120000*%
%ADD11C,0.150000*%
G04 APERTURE END LIST*
D10*
%TO.C,J2*%
X162500000Y-63440000D02*
X163830000Y-63440000D01*
X162500000Y-64770000D02*
X162500000Y-63440000D01*
X162500000Y-66040000D02*
X165160000Y-66040000D01*
X165160000Y-66040000D02*
X165160000Y-101660000D01*
X162500000Y-66040000D02*
X162500000Y-101660000D01*
X162500000Y-101660000D02*
X165160000Y-101660000D01*
%TO.C,J1*%
X152340000Y-63440000D02*
X153670000Y-63440000D01*
X152340000Y-64770000D02*
X152340000Y-63440000D01*
X152340000Y-66040000D02*
X155000000Y-66040000D01*
X155000000Y-66040000D02*
X155000000Y-101660000D01*
X152340000Y-66040000D02*
X152340000Y-101660000D01*
X152340000Y-101660000D02*
X155000000Y-101660000D01*
%TO.C,A1*%
X165100000Y-99060000D02*
X165100000Y-101600000D01*
X165100000Y-101600000D02*
X167770000Y-101600000D01*
X167770000Y-99060000D02*
X167770000Y-60830000D01*
X167770000Y-104270000D02*
X167770000Y-101600000D01*
X152400000Y-101600000D02*
X149730000Y-101600000D01*
X152400000Y-101600000D02*
X152400000Y-63500000D01*
X152400000Y-63500000D02*
X149730000Y-63500000D01*
X165100000Y-99060000D02*
X167770000Y-99060000D01*
X165100000Y-99060000D02*
X165100000Y-63500000D01*
X165100000Y-63500000D02*
X167770000Y-63500000D01*
X167770000Y-60830000D02*
X149730000Y-60830000D01*
X149730000Y-60830000D02*
X149730000Y-104270000D01*
X149730000Y-104270000D02*
X167770000Y-104270000D01*
%TO.C,RV1*%
X167065000Y-105985000D02*
X161865000Y-105985000D01*
X167065000Y-111125000D02*
X167065000Y-105985000D01*
X161865000Y-113725000D02*
X161865000Y-105985000D01*
X167065000Y-111125000D02*
X164465000Y-111125000D01*
X164465000Y-111125000D02*
X164465000Y-113725000D01*
X164465000Y-113725000D02*
X161865000Y-113725000D01*
X167065000Y-112395000D02*
X167065000Y-113725000D01*
X167065000Y-113725000D02*
X165735000Y-113725000D01*
%TO.C,U1*%
X170670000Y-109280000D02*
X173330000Y-109280000D01*
X170670000Y-71120000D02*
X170670000Y-109280000D01*
X173330000Y-71120000D02*
X173330000Y-109280000D01*
X170670000Y-71120000D02*
X173330000Y-71120000D01*
X170670000Y-69850000D02*
X170670000Y-68520000D01*
X170670000Y-68520000D02*
X172000000Y-68520000D01*
%TO.C,J2*%
D11*
X163496666Y-61892380D02*
X163496666Y-62606666D01*
X163449047Y-62749523D01*
X163353809Y-62844761D01*
X163210952Y-62892380D01*
X163115714Y-62892380D01*
X163925238Y-61987619D02*
X163972857Y-61940000D01*
X164068095Y-61892380D01*
X164306190Y-61892380D01*
X164401428Y-61940000D01*
X164449047Y-61987619D01*
X164496666Y-62082857D01*
X164496666Y-62178095D01*
X164449047Y-62320952D01*
X163877619Y-62892380D01*
X164496666Y-62892380D01*
%TO.C,J1*%
X153336666Y-61892380D02*
X153336666Y-62606666D01*
X153289047Y-62749523D01*
X153193809Y-62844761D01*
X153050952Y-62892380D01*
X152955714Y-62892380D01*
X154336666Y-62892380D02*
X153765238Y-62892380D01*
X154050952Y-62892380D02*
X154050952Y-61892380D01*
X153955714Y-62035238D01*
X153860476Y-62130476D01*
X153765238Y-62178095D01*
%TO.C,A1*%
X158035714Y-105576666D02*
X158511904Y-105576666D01*
X157940476Y-105862380D02*
X158273809Y-104862380D01*
X158607142Y-105862380D01*
X159464285Y-105862380D02*
X158892857Y-105862380D01*
X159178571Y-105862380D02*
X159178571Y-104862380D01*
X159083333Y-105005238D01*
X158988095Y-105100476D01*
X158892857Y-105148095D01*
%TO.C,RV1*%
X163869761Y-115177380D02*
X163536428Y-114701190D01*
X163298333Y-115177380D02*
X163298333Y-114177380D01*
X163679285Y-114177380D01*
X163774523Y-114225000D01*
X163822142Y-114272619D01*
X163869761Y-114367857D01*
X163869761Y-114510714D01*
X163822142Y-114605952D01*
X163774523Y-114653571D01*
X163679285Y-114701190D01*
X163298333Y-114701190D01*
X164155476Y-114177380D02*
X164488809Y-115177380D01*
X164822142Y-114177380D01*
X165679285Y-115177380D02*
X165107857Y-115177380D01*
X165393571Y-115177380D02*
X165393571Y-114177380D01*
X165298333Y-114320238D01*
X165203095Y-114415476D01*
X165107857Y-114463095D01*
%TO.C,U1*%
X171238095Y-66972380D02*
X171238095Y-67781904D01*
X171285714Y-67877142D01*
X171333333Y-67924761D01*
X171428571Y-67972380D01*
X171619047Y-67972380D01*
X171714285Y-67924761D01*
X171761904Y-67877142D01*
X171809523Y-67781904D01*
X171809523Y-66972380D01*
X172809523Y-67972380D02*
X172238095Y-67972380D01*
X172523809Y-67972380D02*
X172523809Y-66972380D01*
X172428571Y-67115238D01*
X172333333Y-67210476D01*
X172238095Y-67258095D01*
%TD*%
M02*
