%TF.GenerationSoftware,KiCad,Pcbnew,(5.1.6)-1*%
%TF.CreationDate,2022-01-07T17:36:53-04:00*%
%TF.ProjectId,LCD_adapter,4c43445f-6164-4617-9074-65722e6b6963,rev?*%
%TF.SameCoordinates,Original*%
%TF.FileFunction,Soldermask,Top*%
%TF.FilePolarity,Negative*%
%FSLAX46Y46*%
G04 Gerber Fmt 4.6, Leading zero omitted, Abs format (unit mm)*
G04 Created by KiCad (PCBNEW (5.1.6)-1) date 2022-01-07 17:36:53*
%MOMM*%
%LPD*%
G01*
G04 APERTURE LIST*
%ADD10O,1.800000X1.800000*%
%ADD11R,1.800000X1.800000*%
%ADD12O,1.700000X1.700000*%
%ADD13R,1.700000X1.700000*%
G04 APERTURE END LIST*
D10*
%TO.C,J2*%
X163830000Y-100330000D03*
X163830000Y-97790000D03*
X163830000Y-95250000D03*
X163830000Y-92710000D03*
X163830000Y-90170000D03*
X163830000Y-87630000D03*
X163830000Y-85090000D03*
X163830000Y-82550000D03*
X163830000Y-80010000D03*
X163830000Y-77470000D03*
X163830000Y-74930000D03*
X163830000Y-72390000D03*
X163830000Y-69850000D03*
X163830000Y-67310000D03*
D11*
X163830000Y-64770000D03*
%TD*%
D10*
%TO.C,J1*%
X153670000Y-100330000D03*
X153670000Y-97790000D03*
X153670000Y-95250000D03*
X153670000Y-92710000D03*
X153670000Y-90170000D03*
X153670000Y-87630000D03*
X153670000Y-85090000D03*
X153670000Y-82550000D03*
X153670000Y-80010000D03*
X153670000Y-77470000D03*
X153670000Y-74930000D03*
X153670000Y-72390000D03*
X153670000Y-69850000D03*
X153670000Y-67310000D03*
D11*
X153670000Y-64770000D03*
%TD*%
D12*
%TO.C,A1*%
X151130000Y-64770000D03*
X166370000Y-64770000D03*
X151130000Y-100330000D03*
X166370000Y-67310000D03*
X151130000Y-97790000D03*
X166370000Y-69850000D03*
X151130000Y-95250000D03*
X166370000Y-72390000D03*
X151130000Y-92710000D03*
X166370000Y-74930000D03*
X151130000Y-90170000D03*
X166370000Y-77470000D03*
X151130000Y-87630000D03*
X166370000Y-80010000D03*
X151130000Y-85090000D03*
X166370000Y-82550000D03*
X151130000Y-82550000D03*
X166370000Y-85090000D03*
X151130000Y-80010000D03*
X166370000Y-87630000D03*
X151130000Y-77470000D03*
X166370000Y-90170000D03*
X151130000Y-74930000D03*
X166370000Y-92710000D03*
X151130000Y-72390000D03*
X166370000Y-95250000D03*
X151130000Y-69850000D03*
X166370000Y-97790000D03*
X151130000Y-67310000D03*
D13*
X166370000Y-100330000D03*
%TD*%
D10*
%TO.C,RV1*%
X165735000Y-107315000D03*
X163195000Y-109855000D03*
D11*
X165735000Y-112395000D03*
%TD*%
D10*
%TO.C,U1*%
X172000000Y-107950000D03*
X172000000Y-105410000D03*
X172000000Y-102870000D03*
X172000000Y-100330000D03*
X172000000Y-97790000D03*
X172000000Y-95250000D03*
X172000000Y-92710000D03*
X172000000Y-90170000D03*
X172000000Y-87630000D03*
X172000000Y-85090000D03*
X172000000Y-82550000D03*
X172000000Y-80010000D03*
X172000000Y-77470000D03*
X172000000Y-74930000D03*
X172000000Y-72390000D03*
D11*
X172000000Y-69850000D03*
%TD*%
M02*
