%TF.GenerationSoftware,KiCad,Pcbnew,(5.1.6)-1*%
%TF.CreationDate,2022-01-11T18:37:24-04:00*%
%TF.ProjectId,LCD_adapter,4c43445f-6164-4617-9074-65722e6b6963,rev?*%
%TF.SameCoordinates,Original*%
%TF.FileFunction,Copper,L2,Bot*%
%TF.FilePolarity,Positive*%
%FSLAX46Y46*%
G04 Gerber Fmt 4.6, Leading zero omitted, Abs format (unit mm)*
G04 Created by KiCad (PCBNEW (5.1.6)-1) date 2022-01-11 18:37:24*
%MOMM*%
%LPD*%
G01*
G04 APERTURE LIST*
%TA.AperFunction,ComponentPad*%
%ADD10O,1.700000X1.700000*%
%TD*%
%TA.AperFunction,ComponentPad*%
%ADD11R,1.700000X1.700000*%
%TD*%
%TA.AperFunction,ComponentPad*%
%ADD12C,2.000000*%
%TD*%
%TA.AperFunction,ComponentPad*%
%ADD13O,1.600000X1.600000*%
%TD*%
%TA.AperFunction,ComponentPad*%
%ADD14C,1.600000*%
%TD*%
%TA.AperFunction,ComponentPad*%
%ADD15R,1.600000X1.600000*%
%TD*%
%TA.AperFunction,ViaPad*%
%ADD16C,0.800000*%
%TD*%
%TA.AperFunction,Conductor*%
%ADD17C,0.250000*%
%TD*%
%TA.AperFunction,Conductor*%
%ADD18C,1.000000*%
%TD*%
%TA.AperFunction,Conductor*%
%ADD19C,0.400000*%
%TD*%
%TA.AperFunction,Conductor*%
%ADD20C,0.254000*%
%TD*%
G04 APERTURE END LIST*
D10*
%TO.P,J4,2*%
%TO.N,/D7*%
X170180000Y-111760000D03*
D11*
%TO.P,J4,1*%
%TO.N,/STAT*%
X170180000Y-114300000D03*
%TD*%
D10*
%TO.P,J3,2*%
%TO.N,/D8*%
X173355000Y-111760000D03*
D11*
%TO.P,J3,1*%
%TO.N,/PWRC*%
X173355000Y-114300000D03*
%TD*%
D12*
%TO.P,SW2,4*%
%TO.N,/D9*%
X136040000Y-74930000D03*
%TO.P,SW2,3*%
X136040000Y-79430000D03*
%TO.P,SW2,1*%
%TO.N,VDD*%
X129540000Y-74930000D03*
%TO.P,SW2,2*%
X129540000Y-79430000D03*
%TD*%
%TO.P,SW1,4*%
%TO.N,/D10*%
X136040000Y-66675000D03*
%TO.P,SW1,3*%
X136040000Y-71175000D03*
%TO.P,SW1,1*%
%TO.N,VDD*%
X129540000Y-66675000D03*
%TO.P,SW1,2*%
X129540000Y-71175000D03*
%TD*%
D13*
%TO.P,R2,2*%
%TO.N,GND*%
X141605000Y-86995000D03*
D14*
%TO.P,R2,1*%
%TO.N,/D9*%
X141605000Y-79375000D03*
%TD*%
D13*
%TO.P,R1,2*%
%TO.N,GND*%
X145415000Y-86995000D03*
D14*
%TO.P,R1,1*%
%TO.N,/D10*%
X145415000Y-79375000D03*
%TD*%
D10*
%TO.P,J2,15*%
%TO.N,/D1*%
X163830000Y-100330000D03*
%TO.P,J2,14*%
%TO.N,/D0*%
X163830000Y-97790000D03*
%TO.P,J2,13*%
%TO.N,/nRST*%
X163830000Y-95250000D03*
%TO.P,J2,12*%
%TO.N,GND*%
X163830000Y-92710000D03*
%TO.P,J2,11*%
%TO.N,/D2*%
X163830000Y-90170000D03*
%TO.P,J2,10*%
%TO.N,/D3*%
X163830000Y-87630000D03*
%TO.P,J2,9*%
%TO.N,/D4*%
X163830000Y-85090000D03*
%TO.P,J2,8*%
%TO.N,/D5*%
X163830000Y-82550000D03*
%TO.P,J2,7*%
%TO.N,/D6*%
X163830000Y-80010000D03*
%TO.P,J2,6*%
%TO.N,/D7*%
X163830000Y-77470000D03*
%TO.P,J2,5*%
%TO.N,/D8*%
X163830000Y-74930000D03*
%TO.P,J2,4*%
%TO.N,/D9*%
X163830000Y-72390000D03*
%TO.P,J2,3*%
%TO.N,/D10*%
X163830000Y-69850000D03*
%TO.P,J2,2*%
%TO.N,/D11*%
X163830000Y-67310000D03*
D11*
%TO.P,J2,1*%
%TO.N,/D12*%
X163830000Y-64770000D03*
%TD*%
D10*
%TO.P,J1,15*%
%TO.N,/Vin*%
X153670000Y-100330000D03*
%TO.P,J1,14*%
%TO.N,GND*%
X153670000Y-97790000D03*
%TO.P,J1,13*%
%TO.N,/nRST*%
X153670000Y-95250000D03*
%TO.P,J1,12*%
%TO.N,VDD*%
X153670000Y-92710000D03*
%TO.P,J1,11*%
%TO.N,/A7*%
X153670000Y-90170000D03*
%TO.P,J1,10*%
%TO.N,/A6*%
X153670000Y-87630000D03*
%TO.P,J1,9*%
%TO.N,/A5*%
X153670000Y-85090000D03*
%TO.P,J1,8*%
%TO.N,/A4*%
X153670000Y-82550000D03*
%TO.P,J1,7*%
%TO.N,/A3*%
X153670000Y-80010000D03*
%TO.P,J1,6*%
%TO.N,/A2*%
X153670000Y-77470000D03*
%TO.P,J1,5*%
%TO.N,/A1*%
X153670000Y-74930000D03*
%TO.P,J1,4*%
%TO.N,/A0*%
X153670000Y-72390000D03*
%TO.P,J1,3*%
%TO.N,/AREF*%
X153670000Y-69850000D03*
%TO.P,J1,2*%
%TO.N,+3V3*%
X153670000Y-67310000D03*
D11*
%TO.P,J1,1*%
%TO.N,/D13*%
X153670000Y-64770000D03*
%TD*%
D13*
%TO.P,A1,16*%
%TO.N,/D13*%
X151130000Y-64770000D03*
%TO.P,A1,15*%
%TO.N,/D12*%
X166370000Y-64770000D03*
%TO.P,A1,30*%
%TO.N,/Vin*%
X151130000Y-100330000D03*
%TO.P,A1,14*%
%TO.N,/D11*%
X166370000Y-67310000D03*
%TO.P,A1,29*%
%TO.N,GND*%
X151130000Y-97790000D03*
%TO.P,A1,13*%
%TO.N,/D10*%
X166370000Y-69850000D03*
%TO.P,A1,28*%
%TO.N,/nRST*%
X151130000Y-95250000D03*
%TO.P,A1,12*%
%TO.N,/D9*%
X166370000Y-72390000D03*
%TO.P,A1,27*%
%TO.N,VDD*%
X151130000Y-92710000D03*
%TO.P,A1,11*%
%TO.N,/D8*%
X166370000Y-74930000D03*
%TO.P,A1,26*%
%TO.N,/A7*%
X151130000Y-90170000D03*
%TO.P,A1,10*%
%TO.N,/D7*%
X166370000Y-77470000D03*
%TO.P,A1,25*%
%TO.N,/A6*%
X151130000Y-87630000D03*
%TO.P,A1,9*%
%TO.N,/D6*%
X166370000Y-80010000D03*
%TO.P,A1,24*%
%TO.N,/A5*%
X151130000Y-85090000D03*
%TO.P,A1,8*%
%TO.N,/D5*%
X166370000Y-82550000D03*
%TO.P,A1,23*%
%TO.N,/A4*%
X151130000Y-82550000D03*
%TO.P,A1,7*%
%TO.N,/D4*%
X166370000Y-85090000D03*
%TO.P,A1,22*%
%TO.N,/A3*%
X151130000Y-80010000D03*
%TO.P,A1,6*%
%TO.N,/D3*%
X166370000Y-87630000D03*
%TO.P,A1,21*%
%TO.N,/A2*%
X151130000Y-77470000D03*
%TO.P,A1,5*%
%TO.N,/D2*%
X166370000Y-90170000D03*
%TO.P,A1,20*%
%TO.N,/A1*%
X151130000Y-74930000D03*
%TO.P,A1,4*%
%TO.N,GND*%
X166370000Y-92710000D03*
%TO.P,A1,19*%
%TO.N,/A0*%
X151130000Y-72390000D03*
%TO.P,A1,3*%
%TO.N,/nRST*%
X166370000Y-95250000D03*
%TO.P,A1,18*%
%TO.N,/AREF*%
X151130000Y-69850000D03*
%TO.P,A1,2*%
%TO.N,/D0*%
X166370000Y-97790000D03*
%TO.P,A1,17*%
%TO.N,+3V3*%
X151130000Y-67310000D03*
D15*
%TO.P,A1,1*%
%TO.N,/D1*%
X166370000Y-100330000D03*
%TD*%
D10*
%TO.P,RV1,3*%
%TO.N,VDD*%
X147320000Y-90805000D03*
%TO.P,RV1,2*%
%TO.N,Net-(RV1-Pad2)*%
X144780000Y-93345000D03*
D11*
%TO.P,RV1,1*%
%TO.N,GND*%
X147320000Y-95885000D03*
%TD*%
D10*
%TO.P,U1,16*%
%TO.N,GND*%
X172000000Y-107950000D03*
%TO.P,U1,15*%
%TO.N,VDD*%
X172000000Y-105410000D03*
%TO.P,U1,14*%
%TO.N,/D2*%
X172000000Y-102870000D03*
%TO.P,U1,13*%
%TO.N,/D3*%
X172000000Y-100330000D03*
%TO.P,U1,12*%
%TO.N,/D4*%
X172000000Y-97790000D03*
%TO.P,U1,11*%
%TO.N,/D5*%
X172000000Y-95250000D03*
%TO.P,U1,10*%
%TO.N,Net-(U1-Pad10)*%
X172000000Y-92710000D03*
%TO.P,U1,9*%
%TO.N,Net-(U1-Pad9)*%
X172000000Y-90170000D03*
%TO.P,U1,8*%
%TO.N,Net-(U1-Pad8)*%
X172000000Y-87630000D03*
%TO.P,U1,7*%
%TO.N,Net-(U1-Pad7)*%
X172000000Y-85090000D03*
%TO.P,U1,6*%
%TO.N,/D11*%
X172000000Y-82550000D03*
%TO.P,U1,5*%
%TO.N,GND*%
X172000000Y-80010000D03*
%TO.P,U1,4*%
%TO.N,/D12*%
X172000000Y-77470000D03*
%TO.P,U1,3*%
%TO.N,Net-(RV1-Pad2)*%
X172000000Y-74930000D03*
%TO.P,U1,2*%
%TO.N,VDD*%
X172000000Y-72390000D03*
D11*
%TO.P,U1,1*%
%TO.N,GND*%
X172000000Y-69850000D03*
%TD*%
D16*
%TO.N,GND*%
X150495000Y-60325000D03*
X151130000Y-104140000D03*
X153670000Y-97790000D03*
X140970000Y-93345000D03*
X161290000Y-92710000D03*
X156210000Y-83185000D03*
X165354000Y-102870000D03*
X168910000Y-102235000D03*
X172085000Y-67310000D03*
X168910000Y-64770000D03*
X156210000Y-64135000D03*
X161290000Y-64135000D03*
X161290000Y-69215000D03*
X156210000Y-72390000D03*
X156210000Y-92710000D03*
X161290000Y-83185000D03*
X156210000Y-60325000D03*
X161290000Y-60325000D03*
X167640000Y-60325000D03*
X144145000Y-96520000D03*
X137795000Y-90170000D03*
X133350000Y-86360000D03*
X128905000Y-81915000D03*
X128905000Y-60325000D03*
X133350000Y-60325000D03*
X133350000Y-66675000D03*
X133350000Y-76835000D03*
X133350000Y-71755000D03*
X137160000Y-60325000D03*
X144780000Y-60325000D03*
X140970000Y-66040000D03*
X144780000Y-66040000D03*
X138430000Y-71120000D03*
X143510000Y-75565000D03*
X146685000Y-77470000D03*
X143510000Y-71120000D03*
X154305000Y-122555000D03*
X163830000Y-122555000D03*
X166370000Y-125095000D03*
X173990000Y-118745000D03*
X168910000Y-117475000D03*
X159385000Y-106045000D03*
X159385000Y-114300000D03*
X154305000Y-110490000D03*
X158115000Y-118745000D03*
X164465000Y-114935000D03*
X147320000Y-69215000D03*
X137795000Y-83185000D03*
%TO.N,/D8*%
X163830000Y-74930000D03*
%TO.N,/A1*%
X153670000Y-74930000D03*
%TO.N,+3V3*%
X148590000Y-87630000D03*
%TO.N,/STAT*%
X154305000Y-120015000D03*
%TD*%
D17*
%TO.N,/D12*%
X163830000Y-64770000D02*
X166370000Y-64770000D01*
%TO.N,/D11*%
X163830000Y-67310000D02*
X166370000Y-67310000D01*
D18*
%TO.N,VDD*%
X167640000Y-105410000D02*
X172000000Y-105410000D01*
X164464980Y-105410000D02*
X165100000Y-105410000D01*
X165100000Y-105410000D02*
X165735000Y-105410000D01*
X165735000Y-105410000D02*
X166370000Y-105410000D01*
X166370000Y-105410000D02*
X167640000Y-105410000D01*
X153035000Y-92710000D02*
X153670000Y-92710000D01*
X151130000Y-92710000D02*
X153035000Y-92710000D01*
X164464980Y-105410000D02*
X164464980Y-105409980D01*
X164464980Y-105409980D02*
X158750000Y-99695000D01*
X158750000Y-97790000D02*
X153670000Y-92710000D01*
X158750000Y-99695000D02*
X158750000Y-97790000D01*
X153670000Y-92710000D02*
X158750000Y-87630000D01*
X158750000Y-87630000D02*
X159385000Y-86995000D01*
X159385000Y-86995000D02*
X159385000Y-73025000D01*
X159385000Y-73025000D02*
X160655000Y-71755000D01*
X160655000Y-71755000D02*
X161290000Y-71120000D01*
D19*
X170730000Y-71120000D02*
X161290000Y-71120000D01*
X172000000Y-72390000D02*
X170730000Y-71120000D01*
D18*
X129540000Y-66675000D02*
X129540000Y-71175000D01*
X129540000Y-71175000D02*
X129540000Y-74930000D01*
X129540000Y-74930000D02*
X129540000Y-79430000D01*
X149225000Y-90805000D02*
X151130000Y-92710000D01*
X129540000Y-79430000D02*
X140915000Y-90805000D01*
X140915000Y-90805000D02*
X149225000Y-90805000D01*
D17*
%TO.N,/D5*%
X163830000Y-82550000D02*
X166370000Y-82550000D01*
%TO.N,/D4*%
X163830000Y-85090000D02*
X166370000Y-85090000D01*
%TO.N,/D3*%
X163830000Y-87630000D02*
X166370000Y-87630000D01*
%TO.N,/D2*%
X163830000Y-90170000D02*
X166370000Y-90170000D01*
%TO.N,Net-(RV1-Pad2)*%
X172469002Y-106680000D02*
X173175001Y-105974001D01*
X147559998Y-93345000D02*
X150829997Y-96614999D01*
X144780000Y-93345000D02*
X147559998Y-93345000D01*
X150829997Y-96614999D02*
X154234001Y-96614999D01*
X154234001Y-96614999D02*
X164299002Y-106680000D01*
X164299002Y-106680000D02*
X172469002Y-106680000D01*
X170874999Y-73804999D02*
X172000000Y-74930000D01*
X165829999Y-73804999D02*
X170874999Y-73804999D01*
X165244999Y-74389999D02*
X165829999Y-73804999D01*
X165829999Y-78595001D02*
X165244999Y-78010001D01*
X166620003Y-78595001D02*
X165829999Y-78595001D01*
X167495001Y-79469999D02*
X166620003Y-78595001D01*
X167495001Y-97564003D02*
X167495001Y-79469999D01*
X171435999Y-101505001D02*
X167495001Y-97564003D01*
X172374003Y-101505001D02*
X171435999Y-101505001D01*
X173175001Y-102305999D02*
X172374003Y-101505001D01*
X165244999Y-78010001D02*
X165244999Y-74389999D01*
X173175001Y-105974001D02*
X173175001Y-102305999D01*
%TO.N,/D13*%
X151130000Y-64770000D02*
X153670000Y-64770000D01*
%TO.N,/D10*%
X163830000Y-69850000D02*
X166370000Y-69850000D01*
X136040000Y-66675000D02*
X136040000Y-71175000D01*
%TO.N,/nRST*%
X151130000Y-95250000D02*
X153670000Y-95250000D01*
X163830000Y-95250000D02*
X166370000Y-95250000D01*
%TO.N,/D9*%
X163830000Y-72390000D02*
X166370000Y-72390000D01*
X136040000Y-74930000D02*
X136040000Y-79430000D01*
%TO.N,/D8*%
X167545001Y-76105001D02*
X166370000Y-74930000D01*
X172374003Y-76105001D02*
X167545001Y-76105001D01*
X174204999Y-77935997D02*
X172374003Y-76105001D01*
X174204999Y-110910001D02*
X174204999Y-77935997D01*
X173355000Y-111760000D02*
X174204999Y-110910001D01*
%TO.N,/A7*%
X151130000Y-90170000D02*
X153670000Y-90170000D01*
%TO.N,/D7*%
X167545001Y-78645001D02*
X166370000Y-77470000D01*
X172564001Y-78645001D02*
X167545001Y-78645001D01*
X173625010Y-108314990D02*
X173625010Y-79706010D01*
X173625010Y-79706010D02*
X172564001Y-78645001D01*
X170180000Y-111760000D02*
X173625010Y-108314990D01*
%TO.N,/A6*%
X151130000Y-87630000D02*
X153670000Y-87630000D01*
%TO.N,/D6*%
X163830000Y-80010000D02*
X166370000Y-80010000D01*
%TO.N,/A5*%
X151130000Y-85090000D02*
X153670000Y-85090000D01*
%TO.N,/A4*%
X151130000Y-82550000D02*
X153670000Y-82550000D01*
%TO.N,/A3*%
X151130000Y-80010000D02*
X153670000Y-80010000D01*
%TO.N,/A2*%
X151130000Y-77470000D02*
X153670000Y-77470000D01*
%TO.N,/A1*%
X151130000Y-74930000D02*
X153670000Y-74930000D01*
%TO.N,/A0*%
X151130000Y-72390000D02*
X153670000Y-72390000D01*
%TO.N,/AREF*%
X151130000Y-69850000D02*
X153670000Y-69850000D01*
%TO.N,/D0*%
X163830000Y-97790000D02*
X166370000Y-97790000D01*
%TO.N,/D1*%
X163830000Y-100330000D02*
X166370000Y-100330000D01*
D18*
%TO.N,+3V3*%
X151130000Y-67310000D02*
X153670000Y-67310000D01*
D19*
X148590000Y-87630000D02*
X148590000Y-87630000D01*
X148590000Y-77774998D02*
X148590000Y-87630000D01*
X148590000Y-67945000D02*
X148590000Y-77774998D01*
X151130000Y-67310000D02*
X149225000Y-67310000D01*
X149225000Y-67310000D02*
X148590000Y-67945000D01*
D17*
%TO.N,/STAT*%
X164465000Y-120015000D02*
X170180000Y-114300000D01*
X154305000Y-120015000D02*
X164465000Y-120015000D01*
%TD*%
D20*
%TO.N,GND*%
G36*
X128497748Y-80699987D02*
G01*
X128765537Y-80878918D01*
X129063088Y-81002168D01*
X129378967Y-81065000D01*
X129569869Y-81065000D01*
X140073009Y-91568141D01*
X140108551Y-91611449D01*
X140281377Y-91753284D01*
X140478553Y-91858676D01*
X140692501Y-91923577D01*
X140859248Y-91940000D01*
X140859257Y-91940000D01*
X140914999Y-91945490D01*
X140970741Y-91940000D01*
X144291479Y-91940000D01*
X144076589Y-92029010D01*
X143833368Y-92191525D01*
X143626525Y-92398368D01*
X143464010Y-92641589D01*
X143352068Y-92911842D01*
X143295000Y-93198740D01*
X143295000Y-93491260D01*
X143352068Y-93778158D01*
X143464010Y-94048411D01*
X143626525Y-94291632D01*
X143833368Y-94498475D01*
X144076589Y-94660990D01*
X144346842Y-94772932D01*
X144633740Y-94830000D01*
X144926260Y-94830000D01*
X145213158Y-94772932D01*
X145483411Y-94660990D01*
X145726632Y-94498475D01*
X145933475Y-94291632D01*
X146058178Y-94105000D01*
X147245197Y-94105000D01*
X147572973Y-94432777D01*
X147447000Y-94558750D01*
X147447000Y-95758000D01*
X148646250Y-95758000D01*
X148772223Y-95632027D01*
X150024039Y-96883843D01*
X149898963Y-97052580D01*
X149778754Y-97306913D01*
X149738096Y-97440961D01*
X149860085Y-97663000D01*
X151003000Y-97663000D01*
X151003000Y-97643000D01*
X151257000Y-97643000D01*
X151257000Y-97663000D01*
X153543000Y-97663000D01*
X153543000Y-97643000D01*
X153797000Y-97643000D01*
X153797000Y-97663000D01*
X153817000Y-97663000D01*
X153817000Y-97917000D01*
X153797000Y-97917000D01*
X153797000Y-97937000D01*
X153543000Y-97937000D01*
X153543000Y-97917000D01*
X151257000Y-97917000D01*
X151257000Y-97937000D01*
X151003000Y-97937000D01*
X151003000Y-97917000D01*
X149860085Y-97917000D01*
X149738096Y-98139039D01*
X149778754Y-98273087D01*
X149898963Y-98527420D01*
X150066481Y-98753414D01*
X150274869Y-98942385D01*
X150460865Y-99053933D01*
X150450273Y-99058320D01*
X150215241Y-99215363D01*
X150015363Y-99415241D01*
X149858320Y-99650273D01*
X149750147Y-99911426D01*
X149695000Y-100188665D01*
X149695000Y-100471335D01*
X149750147Y-100748574D01*
X149858320Y-101009727D01*
X150015363Y-101244759D01*
X150215241Y-101444637D01*
X150450273Y-101601680D01*
X150711426Y-101709853D01*
X150988665Y-101765000D01*
X151271335Y-101765000D01*
X151548574Y-101709853D01*
X151809727Y-101601680D01*
X152044759Y-101444637D01*
X152244637Y-101244759D01*
X152369932Y-101057241D01*
X152516525Y-101276632D01*
X152723368Y-101483475D01*
X152966589Y-101645990D01*
X153236842Y-101757932D01*
X153523740Y-101815000D01*
X153816260Y-101815000D01*
X154103158Y-101757932D01*
X154373411Y-101645990D01*
X154616632Y-101483475D01*
X154823475Y-101276632D01*
X154985990Y-101033411D01*
X155097932Y-100763158D01*
X155155000Y-100476260D01*
X155155000Y-100183740D01*
X155097932Y-99896842D01*
X154985990Y-99626589D01*
X154823475Y-99383368D01*
X154616632Y-99176525D01*
X154434466Y-99054805D01*
X154551355Y-98985178D01*
X154767588Y-98790269D01*
X154941641Y-98556920D01*
X154993095Y-98448894D01*
X163735203Y-107191003D01*
X163759001Y-107220001D01*
X163787999Y-107243799D01*
X163874725Y-107314974D01*
X164006755Y-107385546D01*
X164150016Y-107429003D01*
X164261669Y-107440000D01*
X164261679Y-107440000D01*
X164299002Y-107443676D01*
X164336325Y-107440000D01*
X170605986Y-107440000D01*
X170603175Y-107445901D01*
X170558524Y-107593110D01*
X170679845Y-107823000D01*
X171873000Y-107823000D01*
X171873000Y-107803000D01*
X172127000Y-107803000D01*
X172127000Y-107823000D01*
X172147000Y-107823000D01*
X172147000Y-108077000D01*
X172127000Y-108077000D01*
X172127000Y-108097000D01*
X171873000Y-108097000D01*
X171873000Y-108077000D01*
X170679845Y-108077000D01*
X170558524Y-108306890D01*
X170603175Y-108454099D01*
X170728359Y-108716920D01*
X170902412Y-108950269D01*
X171118645Y-109145178D01*
X171368748Y-109294157D01*
X171518072Y-109347127D01*
X170546408Y-110318791D01*
X170326260Y-110275000D01*
X170033740Y-110275000D01*
X169746842Y-110332068D01*
X169476589Y-110444010D01*
X169233368Y-110606525D01*
X169026525Y-110813368D01*
X168864010Y-111056589D01*
X168752068Y-111326842D01*
X168695000Y-111613740D01*
X168695000Y-111906260D01*
X168752068Y-112193158D01*
X168864010Y-112463411D01*
X169026525Y-112706632D01*
X169158380Y-112838487D01*
X169085820Y-112860498D01*
X168975506Y-112919463D01*
X168878815Y-112998815D01*
X168799463Y-113095506D01*
X168740498Y-113205820D01*
X168704188Y-113325518D01*
X168691928Y-113450000D01*
X168691928Y-114713270D01*
X164150199Y-119255000D01*
X155008711Y-119255000D01*
X154964774Y-119211063D01*
X154795256Y-119097795D01*
X154606898Y-119019774D01*
X154406939Y-118980000D01*
X154203061Y-118980000D01*
X154003102Y-119019774D01*
X153814744Y-119097795D01*
X153645226Y-119211063D01*
X153501063Y-119355226D01*
X153387795Y-119524744D01*
X153309774Y-119713102D01*
X153270000Y-119913061D01*
X153270000Y-120116939D01*
X153309774Y-120316898D01*
X153387795Y-120505256D01*
X153501063Y-120674774D01*
X153645226Y-120818937D01*
X153814744Y-120932205D01*
X154003102Y-121010226D01*
X154203061Y-121050000D01*
X154406939Y-121050000D01*
X154606898Y-121010226D01*
X154795256Y-120932205D01*
X154964774Y-120818937D01*
X155008711Y-120775000D01*
X164427678Y-120775000D01*
X164465000Y-120778676D01*
X164502322Y-120775000D01*
X164502333Y-120775000D01*
X164613986Y-120764003D01*
X164757247Y-120720546D01*
X164889276Y-120649974D01*
X165005001Y-120555001D01*
X165028804Y-120525997D01*
X169766730Y-115788072D01*
X171030000Y-115788072D01*
X171154482Y-115775812D01*
X171274180Y-115739502D01*
X171384494Y-115680537D01*
X171481185Y-115601185D01*
X171560537Y-115504494D01*
X171619502Y-115394180D01*
X171655812Y-115274482D01*
X171668072Y-115150000D01*
X171668072Y-113450000D01*
X171655812Y-113325518D01*
X171619502Y-113205820D01*
X171560537Y-113095506D01*
X171481185Y-112998815D01*
X171384494Y-112919463D01*
X171274180Y-112860498D01*
X171201620Y-112838487D01*
X171333475Y-112706632D01*
X171495990Y-112463411D01*
X171607932Y-112193158D01*
X171665000Y-111906260D01*
X171665000Y-111613740D01*
X171621209Y-111393592D01*
X173444999Y-109569803D01*
X173444999Y-110275000D01*
X173208740Y-110275000D01*
X172921842Y-110332068D01*
X172651589Y-110444010D01*
X172408368Y-110606525D01*
X172201525Y-110813368D01*
X172039010Y-111056589D01*
X171927068Y-111326842D01*
X171870000Y-111613740D01*
X171870000Y-111906260D01*
X171927068Y-112193158D01*
X172039010Y-112463411D01*
X172201525Y-112706632D01*
X172333380Y-112838487D01*
X172260820Y-112860498D01*
X172150506Y-112919463D01*
X172053815Y-112998815D01*
X171974463Y-113095506D01*
X171915498Y-113205820D01*
X171879188Y-113325518D01*
X171866928Y-113450000D01*
X171866928Y-115150000D01*
X171879188Y-115274482D01*
X171915498Y-115394180D01*
X171974463Y-115504494D01*
X172053815Y-115601185D01*
X172150506Y-115680537D01*
X172260820Y-115739502D01*
X172380518Y-115775812D01*
X172505000Y-115788072D01*
X174205000Y-115788072D01*
X174329482Y-115775812D01*
X174449180Y-115739502D01*
X174559494Y-115680537D01*
X174600001Y-115647294D01*
X174600001Y-117442572D01*
X174600000Y-117442582D01*
X174600001Y-126340000D01*
X149885000Y-126340000D01*
X149885000Y-122454721D01*
X169865000Y-122454721D01*
X169865000Y-122875279D01*
X169947047Y-123287756D01*
X170107988Y-123676302D01*
X170341637Y-124025983D01*
X170639017Y-124323363D01*
X170988698Y-124557012D01*
X171377244Y-124717953D01*
X171789721Y-124800000D01*
X172210279Y-124800000D01*
X172622756Y-124717953D01*
X173011302Y-124557012D01*
X173360983Y-124323363D01*
X173658363Y-124025983D01*
X173892012Y-123676302D01*
X174052953Y-123287756D01*
X174135000Y-122875279D01*
X174135000Y-122454721D01*
X174052953Y-122042244D01*
X173892012Y-121653698D01*
X173658363Y-121304017D01*
X173360983Y-121006637D01*
X173011302Y-120772988D01*
X172622756Y-120612047D01*
X172210279Y-120530000D01*
X171789721Y-120530000D01*
X171377244Y-120612047D01*
X170988698Y-120772988D01*
X170639017Y-121006637D01*
X170341637Y-121304017D01*
X170107988Y-121653698D01*
X169947047Y-122042244D01*
X169865000Y-122454721D01*
X149885000Y-122454721D01*
X149885000Y-104807409D01*
X149888192Y-104775000D01*
X149885000Y-104742591D01*
X149885000Y-104742581D01*
X149875450Y-104645617D01*
X149837710Y-104521207D01*
X149776425Y-104406550D01*
X149714614Y-104331233D01*
X149714612Y-104331231D01*
X149693948Y-104306052D01*
X149668770Y-104285389D01*
X142118381Y-96735000D01*
X145831928Y-96735000D01*
X145844188Y-96859482D01*
X145880498Y-96979180D01*
X145939463Y-97089494D01*
X146018815Y-97186185D01*
X146115506Y-97265537D01*
X146225820Y-97324502D01*
X146345518Y-97360812D01*
X146470000Y-97373072D01*
X147034250Y-97370000D01*
X147193000Y-97211250D01*
X147193000Y-96012000D01*
X147447000Y-96012000D01*
X147447000Y-97211250D01*
X147605750Y-97370000D01*
X148170000Y-97373072D01*
X148294482Y-97360812D01*
X148414180Y-97324502D01*
X148524494Y-97265537D01*
X148621185Y-97186185D01*
X148700537Y-97089494D01*
X148759502Y-96979180D01*
X148795812Y-96859482D01*
X148808072Y-96735000D01*
X148805000Y-96170750D01*
X148646250Y-96012000D01*
X147447000Y-96012000D01*
X147193000Y-96012000D01*
X145993750Y-96012000D01*
X145835000Y-96170750D01*
X145831928Y-96735000D01*
X142118381Y-96735000D01*
X140418381Y-95035000D01*
X145831928Y-95035000D01*
X145835000Y-95599250D01*
X145993750Y-95758000D01*
X147193000Y-95758000D01*
X147193000Y-94558750D01*
X147034250Y-94400000D01*
X146470000Y-94396928D01*
X146345518Y-94409188D01*
X146225820Y-94445498D01*
X146115506Y-94504463D01*
X146018815Y-94583815D01*
X145939463Y-94680506D01*
X145880498Y-94790820D01*
X145844188Y-94910518D01*
X145831928Y-95035000D01*
X140418381Y-95035000D01*
X128295000Y-82911620D01*
X128295000Y-80497239D01*
X128497748Y-80699987D01*
G37*
X128497748Y-80699987D02*
X128765537Y-80878918D01*
X129063088Y-81002168D01*
X129378967Y-81065000D01*
X129569869Y-81065000D01*
X140073009Y-91568141D01*
X140108551Y-91611449D01*
X140281377Y-91753284D01*
X140478553Y-91858676D01*
X140692501Y-91923577D01*
X140859248Y-91940000D01*
X140859257Y-91940000D01*
X140914999Y-91945490D01*
X140970741Y-91940000D01*
X144291479Y-91940000D01*
X144076589Y-92029010D01*
X143833368Y-92191525D01*
X143626525Y-92398368D01*
X143464010Y-92641589D01*
X143352068Y-92911842D01*
X143295000Y-93198740D01*
X143295000Y-93491260D01*
X143352068Y-93778158D01*
X143464010Y-94048411D01*
X143626525Y-94291632D01*
X143833368Y-94498475D01*
X144076589Y-94660990D01*
X144346842Y-94772932D01*
X144633740Y-94830000D01*
X144926260Y-94830000D01*
X145213158Y-94772932D01*
X145483411Y-94660990D01*
X145726632Y-94498475D01*
X145933475Y-94291632D01*
X146058178Y-94105000D01*
X147245197Y-94105000D01*
X147572973Y-94432777D01*
X147447000Y-94558750D01*
X147447000Y-95758000D01*
X148646250Y-95758000D01*
X148772223Y-95632027D01*
X150024039Y-96883843D01*
X149898963Y-97052580D01*
X149778754Y-97306913D01*
X149738096Y-97440961D01*
X149860085Y-97663000D01*
X151003000Y-97663000D01*
X151003000Y-97643000D01*
X151257000Y-97643000D01*
X151257000Y-97663000D01*
X153543000Y-97663000D01*
X153543000Y-97643000D01*
X153797000Y-97643000D01*
X153797000Y-97663000D01*
X153817000Y-97663000D01*
X153817000Y-97917000D01*
X153797000Y-97917000D01*
X153797000Y-97937000D01*
X153543000Y-97937000D01*
X153543000Y-97917000D01*
X151257000Y-97917000D01*
X151257000Y-97937000D01*
X151003000Y-97937000D01*
X151003000Y-97917000D01*
X149860085Y-97917000D01*
X149738096Y-98139039D01*
X149778754Y-98273087D01*
X149898963Y-98527420D01*
X150066481Y-98753414D01*
X150274869Y-98942385D01*
X150460865Y-99053933D01*
X150450273Y-99058320D01*
X150215241Y-99215363D01*
X150015363Y-99415241D01*
X149858320Y-99650273D01*
X149750147Y-99911426D01*
X149695000Y-100188665D01*
X149695000Y-100471335D01*
X149750147Y-100748574D01*
X149858320Y-101009727D01*
X150015363Y-101244759D01*
X150215241Y-101444637D01*
X150450273Y-101601680D01*
X150711426Y-101709853D01*
X150988665Y-101765000D01*
X151271335Y-101765000D01*
X151548574Y-101709853D01*
X151809727Y-101601680D01*
X152044759Y-101444637D01*
X152244637Y-101244759D01*
X152369932Y-101057241D01*
X152516525Y-101276632D01*
X152723368Y-101483475D01*
X152966589Y-101645990D01*
X153236842Y-101757932D01*
X153523740Y-101815000D01*
X153816260Y-101815000D01*
X154103158Y-101757932D01*
X154373411Y-101645990D01*
X154616632Y-101483475D01*
X154823475Y-101276632D01*
X154985990Y-101033411D01*
X155097932Y-100763158D01*
X155155000Y-100476260D01*
X155155000Y-100183740D01*
X155097932Y-99896842D01*
X154985990Y-99626589D01*
X154823475Y-99383368D01*
X154616632Y-99176525D01*
X154434466Y-99054805D01*
X154551355Y-98985178D01*
X154767588Y-98790269D01*
X154941641Y-98556920D01*
X154993095Y-98448894D01*
X163735203Y-107191003D01*
X163759001Y-107220001D01*
X163787999Y-107243799D01*
X163874725Y-107314974D01*
X164006755Y-107385546D01*
X164150016Y-107429003D01*
X164261669Y-107440000D01*
X164261679Y-107440000D01*
X164299002Y-107443676D01*
X164336325Y-107440000D01*
X170605986Y-107440000D01*
X170603175Y-107445901D01*
X170558524Y-107593110D01*
X170679845Y-107823000D01*
X171873000Y-107823000D01*
X171873000Y-107803000D01*
X172127000Y-107803000D01*
X172127000Y-107823000D01*
X172147000Y-107823000D01*
X172147000Y-108077000D01*
X172127000Y-108077000D01*
X172127000Y-108097000D01*
X171873000Y-108097000D01*
X171873000Y-108077000D01*
X170679845Y-108077000D01*
X170558524Y-108306890D01*
X170603175Y-108454099D01*
X170728359Y-108716920D01*
X170902412Y-108950269D01*
X171118645Y-109145178D01*
X171368748Y-109294157D01*
X171518072Y-109347127D01*
X170546408Y-110318791D01*
X170326260Y-110275000D01*
X170033740Y-110275000D01*
X169746842Y-110332068D01*
X169476589Y-110444010D01*
X169233368Y-110606525D01*
X169026525Y-110813368D01*
X168864010Y-111056589D01*
X168752068Y-111326842D01*
X168695000Y-111613740D01*
X168695000Y-111906260D01*
X168752068Y-112193158D01*
X168864010Y-112463411D01*
X169026525Y-112706632D01*
X169158380Y-112838487D01*
X169085820Y-112860498D01*
X168975506Y-112919463D01*
X168878815Y-112998815D01*
X168799463Y-113095506D01*
X168740498Y-113205820D01*
X168704188Y-113325518D01*
X168691928Y-113450000D01*
X168691928Y-114713270D01*
X164150199Y-119255000D01*
X155008711Y-119255000D01*
X154964774Y-119211063D01*
X154795256Y-119097795D01*
X154606898Y-119019774D01*
X154406939Y-118980000D01*
X154203061Y-118980000D01*
X154003102Y-119019774D01*
X153814744Y-119097795D01*
X153645226Y-119211063D01*
X153501063Y-119355226D01*
X153387795Y-119524744D01*
X153309774Y-119713102D01*
X153270000Y-119913061D01*
X153270000Y-120116939D01*
X153309774Y-120316898D01*
X153387795Y-120505256D01*
X153501063Y-120674774D01*
X153645226Y-120818937D01*
X153814744Y-120932205D01*
X154003102Y-121010226D01*
X154203061Y-121050000D01*
X154406939Y-121050000D01*
X154606898Y-121010226D01*
X154795256Y-120932205D01*
X154964774Y-120818937D01*
X155008711Y-120775000D01*
X164427678Y-120775000D01*
X164465000Y-120778676D01*
X164502322Y-120775000D01*
X164502333Y-120775000D01*
X164613986Y-120764003D01*
X164757247Y-120720546D01*
X164889276Y-120649974D01*
X165005001Y-120555001D01*
X165028804Y-120525997D01*
X169766730Y-115788072D01*
X171030000Y-115788072D01*
X171154482Y-115775812D01*
X171274180Y-115739502D01*
X171384494Y-115680537D01*
X171481185Y-115601185D01*
X171560537Y-115504494D01*
X171619502Y-115394180D01*
X171655812Y-115274482D01*
X171668072Y-115150000D01*
X171668072Y-113450000D01*
X171655812Y-113325518D01*
X171619502Y-113205820D01*
X171560537Y-113095506D01*
X171481185Y-112998815D01*
X171384494Y-112919463D01*
X171274180Y-112860498D01*
X171201620Y-112838487D01*
X171333475Y-112706632D01*
X171495990Y-112463411D01*
X171607932Y-112193158D01*
X171665000Y-111906260D01*
X171665000Y-111613740D01*
X171621209Y-111393592D01*
X173444999Y-109569803D01*
X173444999Y-110275000D01*
X173208740Y-110275000D01*
X172921842Y-110332068D01*
X172651589Y-110444010D01*
X172408368Y-110606525D01*
X172201525Y-110813368D01*
X172039010Y-111056589D01*
X171927068Y-111326842D01*
X171870000Y-111613740D01*
X171870000Y-111906260D01*
X171927068Y-112193158D01*
X172039010Y-112463411D01*
X172201525Y-112706632D01*
X172333380Y-112838487D01*
X172260820Y-112860498D01*
X172150506Y-112919463D01*
X172053815Y-112998815D01*
X171974463Y-113095506D01*
X171915498Y-113205820D01*
X171879188Y-113325518D01*
X171866928Y-113450000D01*
X171866928Y-115150000D01*
X171879188Y-115274482D01*
X171915498Y-115394180D01*
X171974463Y-115504494D01*
X172053815Y-115601185D01*
X172150506Y-115680537D01*
X172260820Y-115739502D01*
X172380518Y-115775812D01*
X172505000Y-115788072D01*
X174205000Y-115788072D01*
X174329482Y-115775812D01*
X174449180Y-115739502D01*
X174559494Y-115680537D01*
X174600001Y-115647294D01*
X174600001Y-117442572D01*
X174600000Y-117442582D01*
X174600001Y-126340000D01*
X149885000Y-126340000D01*
X149885000Y-122454721D01*
X169865000Y-122454721D01*
X169865000Y-122875279D01*
X169947047Y-123287756D01*
X170107988Y-123676302D01*
X170341637Y-124025983D01*
X170639017Y-124323363D01*
X170988698Y-124557012D01*
X171377244Y-124717953D01*
X171789721Y-124800000D01*
X172210279Y-124800000D01*
X172622756Y-124717953D01*
X173011302Y-124557012D01*
X173360983Y-124323363D01*
X173658363Y-124025983D01*
X173892012Y-123676302D01*
X174052953Y-123287756D01*
X174135000Y-122875279D01*
X174135000Y-122454721D01*
X174052953Y-122042244D01*
X173892012Y-121653698D01*
X173658363Y-121304017D01*
X173360983Y-121006637D01*
X173011302Y-120772988D01*
X172622756Y-120612047D01*
X172210279Y-120530000D01*
X171789721Y-120530000D01*
X171377244Y-120612047D01*
X170988698Y-120772988D01*
X170639017Y-121006637D01*
X170341637Y-121304017D01*
X170107988Y-121653698D01*
X169947047Y-122042244D01*
X169865000Y-122454721D01*
X149885000Y-122454721D01*
X149885000Y-104807409D01*
X149888192Y-104775000D01*
X149885000Y-104742591D01*
X149885000Y-104742581D01*
X149875450Y-104645617D01*
X149837710Y-104521207D01*
X149776425Y-104406550D01*
X149714614Y-104331233D01*
X149714612Y-104331231D01*
X149693948Y-104306052D01*
X149668770Y-104285389D01*
X142118381Y-96735000D01*
X145831928Y-96735000D01*
X145844188Y-96859482D01*
X145880498Y-96979180D01*
X145939463Y-97089494D01*
X146018815Y-97186185D01*
X146115506Y-97265537D01*
X146225820Y-97324502D01*
X146345518Y-97360812D01*
X146470000Y-97373072D01*
X147034250Y-97370000D01*
X147193000Y-97211250D01*
X147193000Y-96012000D01*
X147447000Y-96012000D01*
X147447000Y-97211250D01*
X147605750Y-97370000D01*
X148170000Y-97373072D01*
X148294482Y-97360812D01*
X148414180Y-97324502D01*
X148524494Y-97265537D01*
X148621185Y-97186185D01*
X148700537Y-97089494D01*
X148759502Y-96979180D01*
X148795812Y-96859482D01*
X148808072Y-96735000D01*
X148805000Y-96170750D01*
X148646250Y-96012000D01*
X147447000Y-96012000D01*
X147193000Y-96012000D01*
X145993750Y-96012000D01*
X145835000Y-96170750D01*
X145831928Y-96735000D01*
X142118381Y-96735000D01*
X140418381Y-95035000D01*
X145831928Y-95035000D01*
X145835000Y-95599250D01*
X145993750Y-95758000D01*
X147193000Y-95758000D01*
X147193000Y-94558750D01*
X147034250Y-94400000D01*
X146470000Y-94396928D01*
X146345518Y-94409188D01*
X146225820Y-94445498D01*
X146115506Y-94504463D01*
X146018815Y-94583815D01*
X145939463Y-94680506D01*
X145880498Y-94790820D01*
X145844188Y-94910518D01*
X145831928Y-95035000D01*
X140418381Y-95035000D01*
X128295000Y-82911620D01*
X128295000Y-80497239D01*
X128497748Y-80699987D01*
G36*
X162402068Y-71956842D02*
G01*
X162345000Y-72243740D01*
X162345000Y-72536260D01*
X162402068Y-72823158D01*
X162514010Y-73093411D01*
X162676525Y-73336632D01*
X162883368Y-73543475D01*
X163057760Y-73660000D01*
X162883368Y-73776525D01*
X162676525Y-73983368D01*
X162514010Y-74226589D01*
X162402068Y-74496842D01*
X162345000Y-74783740D01*
X162345000Y-75076260D01*
X162402068Y-75363158D01*
X162514010Y-75633411D01*
X162676525Y-75876632D01*
X162883368Y-76083475D01*
X163057760Y-76200000D01*
X162883368Y-76316525D01*
X162676525Y-76523368D01*
X162514010Y-76766589D01*
X162402068Y-77036842D01*
X162345000Y-77323740D01*
X162345000Y-77616260D01*
X162402068Y-77903158D01*
X162514010Y-78173411D01*
X162676525Y-78416632D01*
X162883368Y-78623475D01*
X163057760Y-78740000D01*
X162883368Y-78856525D01*
X162676525Y-79063368D01*
X162514010Y-79306589D01*
X162402068Y-79576842D01*
X162345000Y-79863740D01*
X162345000Y-80156260D01*
X162402068Y-80443158D01*
X162514010Y-80713411D01*
X162676525Y-80956632D01*
X162883368Y-81163475D01*
X163057760Y-81280000D01*
X162883368Y-81396525D01*
X162676525Y-81603368D01*
X162514010Y-81846589D01*
X162402068Y-82116842D01*
X162345000Y-82403740D01*
X162345000Y-82696260D01*
X162402068Y-82983158D01*
X162514010Y-83253411D01*
X162676525Y-83496632D01*
X162883368Y-83703475D01*
X163057760Y-83820000D01*
X162883368Y-83936525D01*
X162676525Y-84143368D01*
X162514010Y-84386589D01*
X162402068Y-84656842D01*
X162345000Y-84943740D01*
X162345000Y-85236260D01*
X162402068Y-85523158D01*
X162514010Y-85793411D01*
X162676525Y-86036632D01*
X162883368Y-86243475D01*
X163057760Y-86360000D01*
X162883368Y-86476525D01*
X162676525Y-86683368D01*
X162514010Y-86926589D01*
X162402068Y-87196842D01*
X162345000Y-87483740D01*
X162345000Y-87776260D01*
X162402068Y-88063158D01*
X162514010Y-88333411D01*
X162676525Y-88576632D01*
X162883368Y-88783475D01*
X163057760Y-88900000D01*
X162883368Y-89016525D01*
X162676525Y-89223368D01*
X162514010Y-89466589D01*
X162402068Y-89736842D01*
X162345000Y-90023740D01*
X162345000Y-90316260D01*
X162402068Y-90603158D01*
X162514010Y-90873411D01*
X162676525Y-91116632D01*
X162883368Y-91323475D01*
X163065534Y-91445195D01*
X162948645Y-91514822D01*
X162732412Y-91709731D01*
X162558359Y-91943080D01*
X162433175Y-92205901D01*
X162388524Y-92353110D01*
X162509845Y-92583000D01*
X163703000Y-92583000D01*
X163703000Y-92563000D01*
X163957000Y-92563000D01*
X163957000Y-92583000D01*
X166243000Y-92583000D01*
X166243000Y-92563000D01*
X166497000Y-92563000D01*
X166497000Y-92583000D01*
X166517000Y-92583000D01*
X166517000Y-92837000D01*
X166497000Y-92837000D01*
X166497000Y-92857000D01*
X166243000Y-92857000D01*
X166243000Y-92837000D01*
X163957000Y-92837000D01*
X163957000Y-92857000D01*
X163703000Y-92857000D01*
X163703000Y-92837000D01*
X162509845Y-92837000D01*
X162388524Y-93066890D01*
X162433175Y-93214099D01*
X162558359Y-93476920D01*
X162732412Y-93710269D01*
X162948645Y-93905178D01*
X163065534Y-93974805D01*
X162883368Y-94096525D01*
X162676525Y-94303368D01*
X162514010Y-94546589D01*
X162402068Y-94816842D01*
X162345000Y-95103740D01*
X162345000Y-95396260D01*
X162402068Y-95683158D01*
X162514010Y-95953411D01*
X162676525Y-96196632D01*
X162883368Y-96403475D01*
X163057760Y-96520000D01*
X162883368Y-96636525D01*
X162676525Y-96843368D01*
X162514010Y-97086589D01*
X162402068Y-97356842D01*
X162345000Y-97643740D01*
X162345000Y-97936260D01*
X162402068Y-98223158D01*
X162514010Y-98493411D01*
X162676525Y-98736632D01*
X162883368Y-98943475D01*
X163057760Y-99060000D01*
X162883368Y-99176525D01*
X162676525Y-99383368D01*
X162514010Y-99626589D01*
X162402068Y-99896842D01*
X162345000Y-100183740D01*
X162345000Y-100476260D01*
X162402068Y-100763158D01*
X162514010Y-101033411D01*
X162676525Y-101276632D01*
X162883368Y-101483475D01*
X163126589Y-101645990D01*
X163396842Y-101757932D01*
X163683740Y-101815000D01*
X163976260Y-101815000D01*
X164263158Y-101757932D01*
X164533411Y-101645990D01*
X164776632Y-101483475D01*
X164958487Y-101301620D01*
X164980498Y-101374180D01*
X165039463Y-101484494D01*
X165118815Y-101581185D01*
X165215506Y-101660537D01*
X165325820Y-101719502D01*
X165445518Y-101755812D01*
X165570000Y-101768072D01*
X167170000Y-101768072D01*
X167294482Y-101755812D01*
X167414180Y-101719502D01*
X167524494Y-101660537D01*
X167621185Y-101581185D01*
X167700537Y-101484494D01*
X167759502Y-101374180D01*
X167795812Y-101254482D01*
X167808072Y-101130000D01*
X167808072Y-99530000D01*
X167795812Y-99405518D01*
X167759502Y-99285820D01*
X167700537Y-99175506D01*
X167621185Y-99078815D01*
X167524494Y-98999463D01*
X167414180Y-98940498D01*
X167294482Y-98904188D01*
X167286039Y-98903357D01*
X167484637Y-98704759D01*
X167515206Y-98659009D01*
X170819704Y-101963508D01*
X170684010Y-102166589D01*
X170572068Y-102436842D01*
X170515000Y-102723740D01*
X170515000Y-103016260D01*
X170572068Y-103303158D01*
X170684010Y-103573411D01*
X170846525Y-103816632D01*
X171053368Y-104023475D01*
X171227760Y-104140000D01*
X171053368Y-104256525D01*
X171034893Y-104275000D01*
X164935132Y-104275000D01*
X159885000Y-99224869D01*
X159885000Y-97845751D01*
X159890491Y-97790000D01*
X159868577Y-97567501D01*
X159803676Y-97353553D01*
X159698284Y-97156377D01*
X159639258Y-97084454D01*
X159556449Y-96983551D01*
X159513141Y-96948009D01*
X155702000Y-93136869D01*
X155702000Y-92283131D01*
X159591988Y-88393144D01*
X159591992Y-88393139D01*
X160148140Y-87836992D01*
X160191449Y-87801449D01*
X160333284Y-87628623D01*
X160438676Y-87431447D01*
X160503577Y-87217499D01*
X160520000Y-87050752D01*
X160520000Y-87050751D01*
X160525491Y-86995000D01*
X160520000Y-86939248D01*
X160520000Y-73495131D01*
X161496988Y-72518144D01*
X161496992Y-72518139D01*
X162060132Y-71955000D01*
X162402831Y-71955000D01*
X162402068Y-71956842D01*
G37*
X162402068Y-71956842D02*
X162345000Y-72243740D01*
X162345000Y-72536260D01*
X162402068Y-72823158D01*
X162514010Y-73093411D01*
X162676525Y-73336632D01*
X162883368Y-73543475D01*
X163057760Y-73660000D01*
X162883368Y-73776525D01*
X162676525Y-73983368D01*
X162514010Y-74226589D01*
X162402068Y-74496842D01*
X162345000Y-74783740D01*
X162345000Y-75076260D01*
X162402068Y-75363158D01*
X162514010Y-75633411D01*
X162676525Y-75876632D01*
X162883368Y-76083475D01*
X163057760Y-76200000D01*
X162883368Y-76316525D01*
X162676525Y-76523368D01*
X162514010Y-76766589D01*
X162402068Y-77036842D01*
X162345000Y-77323740D01*
X162345000Y-77616260D01*
X162402068Y-77903158D01*
X162514010Y-78173411D01*
X162676525Y-78416632D01*
X162883368Y-78623475D01*
X163057760Y-78740000D01*
X162883368Y-78856525D01*
X162676525Y-79063368D01*
X162514010Y-79306589D01*
X162402068Y-79576842D01*
X162345000Y-79863740D01*
X162345000Y-80156260D01*
X162402068Y-80443158D01*
X162514010Y-80713411D01*
X162676525Y-80956632D01*
X162883368Y-81163475D01*
X163057760Y-81280000D01*
X162883368Y-81396525D01*
X162676525Y-81603368D01*
X162514010Y-81846589D01*
X162402068Y-82116842D01*
X162345000Y-82403740D01*
X162345000Y-82696260D01*
X162402068Y-82983158D01*
X162514010Y-83253411D01*
X162676525Y-83496632D01*
X162883368Y-83703475D01*
X163057760Y-83820000D01*
X162883368Y-83936525D01*
X162676525Y-84143368D01*
X162514010Y-84386589D01*
X162402068Y-84656842D01*
X162345000Y-84943740D01*
X162345000Y-85236260D01*
X162402068Y-85523158D01*
X162514010Y-85793411D01*
X162676525Y-86036632D01*
X162883368Y-86243475D01*
X163057760Y-86360000D01*
X162883368Y-86476525D01*
X162676525Y-86683368D01*
X162514010Y-86926589D01*
X162402068Y-87196842D01*
X162345000Y-87483740D01*
X162345000Y-87776260D01*
X162402068Y-88063158D01*
X162514010Y-88333411D01*
X162676525Y-88576632D01*
X162883368Y-88783475D01*
X163057760Y-88900000D01*
X162883368Y-89016525D01*
X162676525Y-89223368D01*
X162514010Y-89466589D01*
X162402068Y-89736842D01*
X162345000Y-90023740D01*
X162345000Y-90316260D01*
X162402068Y-90603158D01*
X162514010Y-90873411D01*
X162676525Y-91116632D01*
X162883368Y-91323475D01*
X163065534Y-91445195D01*
X162948645Y-91514822D01*
X162732412Y-91709731D01*
X162558359Y-91943080D01*
X162433175Y-92205901D01*
X162388524Y-92353110D01*
X162509845Y-92583000D01*
X163703000Y-92583000D01*
X163703000Y-92563000D01*
X163957000Y-92563000D01*
X163957000Y-92583000D01*
X166243000Y-92583000D01*
X166243000Y-92563000D01*
X166497000Y-92563000D01*
X166497000Y-92583000D01*
X166517000Y-92583000D01*
X166517000Y-92837000D01*
X166497000Y-92837000D01*
X166497000Y-92857000D01*
X166243000Y-92857000D01*
X166243000Y-92837000D01*
X163957000Y-92837000D01*
X163957000Y-92857000D01*
X163703000Y-92857000D01*
X163703000Y-92837000D01*
X162509845Y-92837000D01*
X162388524Y-93066890D01*
X162433175Y-93214099D01*
X162558359Y-93476920D01*
X162732412Y-93710269D01*
X162948645Y-93905178D01*
X163065534Y-93974805D01*
X162883368Y-94096525D01*
X162676525Y-94303368D01*
X162514010Y-94546589D01*
X162402068Y-94816842D01*
X162345000Y-95103740D01*
X162345000Y-95396260D01*
X162402068Y-95683158D01*
X162514010Y-95953411D01*
X162676525Y-96196632D01*
X162883368Y-96403475D01*
X163057760Y-96520000D01*
X162883368Y-96636525D01*
X162676525Y-96843368D01*
X162514010Y-97086589D01*
X162402068Y-97356842D01*
X162345000Y-97643740D01*
X162345000Y-97936260D01*
X162402068Y-98223158D01*
X162514010Y-98493411D01*
X162676525Y-98736632D01*
X162883368Y-98943475D01*
X163057760Y-99060000D01*
X162883368Y-99176525D01*
X162676525Y-99383368D01*
X162514010Y-99626589D01*
X162402068Y-99896842D01*
X162345000Y-100183740D01*
X162345000Y-100476260D01*
X162402068Y-100763158D01*
X162514010Y-101033411D01*
X162676525Y-101276632D01*
X162883368Y-101483475D01*
X163126589Y-101645990D01*
X163396842Y-101757932D01*
X163683740Y-101815000D01*
X163976260Y-101815000D01*
X164263158Y-101757932D01*
X164533411Y-101645990D01*
X164776632Y-101483475D01*
X164958487Y-101301620D01*
X164980498Y-101374180D01*
X165039463Y-101484494D01*
X165118815Y-101581185D01*
X165215506Y-101660537D01*
X165325820Y-101719502D01*
X165445518Y-101755812D01*
X165570000Y-101768072D01*
X167170000Y-101768072D01*
X167294482Y-101755812D01*
X167414180Y-101719502D01*
X167524494Y-101660537D01*
X167621185Y-101581185D01*
X167700537Y-101484494D01*
X167759502Y-101374180D01*
X167795812Y-101254482D01*
X167808072Y-101130000D01*
X167808072Y-99530000D01*
X167795812Y-99405518D01*
X167759502Y-99285820D01*
X167700537Y-99175506D01*
X167621185Y-99078815D01*
X167524494Y-98999463D01*
X167414180Y-98940498D01*
X167294482Y-98904188D01*
X167286039Y-98903357D01*
X167484637Y-98704759D01*
X167515206Y-98659009D01*
X170819704Y-101963508D01*
X170684010Y-102166589D01*
X170572068Y-102436842D01*
X170515000Y-102723740D01*
X170515000Y-103016260D01*
X170572068Y-103303158D01*
X170684010Y-103573411D01*
X170846525Y-103816632D01*
X171053368Y-104023475D01*
X171227760Y-104140000D01*
X171053368Y-104256525D01*
X171034893Y-104275000D01*
X164935132Y-104275000D01*
X159885000Y-99224869D01*
X159885000Y-97845751D01*
X159890491Y-97790000D01*
X159868577Y-97567501D01*
X159803676Y-97353553D01*
X159698284Y-97156377D01*
X159639258Y-97084454D01*
X159556449Y-96983551D01*
X159513141Y-96948009D01*
X155702000Y-93136869D01*
X155702000Y-92283131D01*
X159591988Y-88393144D01*
X159591992Y-88393139D01*
X160148140Y-87836992D01*
X160191449Y-87801449D01*
X160333284Y-87628623D01*
X160438676Y-87431447D01*
X160503577Y-87217499D01*
X160520000Y-87050752D01*
X160520000Y-87050751D01*
X160525491Y-86995000D01*
X160520000Y-86939248D01*
X160520000Y-73495131D01*
X161496988Y-72518144D01*
X161496992Y-72518139D01*
X162060132Y-71955000D01*
X162402831Y-71955000D01*
X162402068Y-71956842D01*
G36*
X174600001Y-77256196D02*
G01*
X173180296Y-75836492D01*
X173315990Y-75633411D01*
X173427932Y-75363158D01*
X173485000Y-75076260D01*
X173485000Y-74783740D01*
X173427932Y-74496842D01*
X173315990Y-74226589D01*
X173153475Y-73983368D01*
X172946632Y-73776525D01*
X172772240Y-73660000D01*
X172946632Y-73543475D01*
X173153475Y-73336632D01*
X173315990Y-73093411D01*
X173427932Y-72823158D01*
X173485000Y-72536260D01*
X173485000Y-72243740D01*
X173427932Y-71956842D01*
X173315990Y-71686589D01*
X173153475Y-71443368D01*
X173021620Y-71311513D01*
X173094180Y-71289502D01*
X173204494Y-71230537D01*
X173301185Y-71151185D01*
X173380537Y-71054494D01*
X173439502Y-70944180D01*
X173475812Y-70824482D01*
X173488072Y-70700000D01*
X173485000Y-70135750D01*
X173326250Y-69977000D01*
X172127000Y-69977000D01*
X172127000Y-69997000D01*
X171873000Y-69997000D01*
X171873000Y-69977000D01*
X170673750Y-69977000D01*
X170515000Y-70135750D01*
X170514187Y-70285000D01*
X167743049Y-70285000D01*
X167749853Y-70268574D01*
X167805000Y-69991335D01*
X167805000Y-69708665D01*
X167749853Y-69431426D01*
X167641680Y-69170273D01*
X167527908Y-69000000D01*
X170511928Y-69000000D01*
X170515000Y-69564250D01*
X170673750Y-69723000D01*
X171873000Y-69723000D01*
X171873000Y-68523750D01*
X172127000Y-68523750D01*
X172127000Y-69723000D01*
X173326250Y-69723000D01*
X173485000Y-69564250D01*
X173488072Y-69000000D01*
X173475812Y-68875518D01*
X173439502Y-68755820D01*
X173380537Y-68645506D01*
X173301185Y-68548815D01*
X173204494Y-68469463D01*
X173094180Y-68410498D01*
X172974482Y-68374188D01*
X172850000Y-68361928D01*
X172285750Y-68365000D01*
X172127000Y-68523750D01*
X171873000Y-68523750D01*
X171714250Y-68365000D01*
X171150000Y-68361928D01*
X171025518Y-68374188D01*
X170905820Y-68410498D01*
X170795506Y-68469463D01*
X170698815Y-68548815D01*
X170619463Y-68645506D01*
X170560498Y-68755820D01*
X170524188Y-68875518D01*
X170511928Y-69000000D01*
X167527908Y-69000000D01*
X167484637Y-68935241D01*
X167284759Y-68735363D01*
X167052241Y-68580000D01*
X167284759Y-68424637D01*
X167484637Y-68224759D01*
X167641680Y-67989727D01*
X167749853Y-67728574D01*
X167805000Y-67451335D01*
X167805000Y-67168665D01*
X167749853Y-66891426D01*
X167641680Y-66630273D01*
X167484637Y-66395241D01*
X167284759Y-66195363D01*
X167052241Y-66040000D01*
X167284759Y-65884637D01*
X167484637Y-65684759D01*
X167641680Y-65449727D01*
X167749853Y-65188574D01*
X167805000Y-64911335D01*
X167805000Y-64628665D01*
X167749853Y-64351426D01*
X167641680Y-64090273D01*
X167484637Y-63855241D01*
X167284759Y-63655363D01*
X167049727Y-63498320D01*
X166788574Y-63390147D01*
X166511335Y-63335000D01*
X166228665Y-63335000D01*
X165951426Y-63390147D01*
X165690273Y-63498320D01*
X165455241Y-63655363D01*
X165306643Y-63803961D01*
X165305812Y-63795518D01*
X165269502Y-63675820D01*
X165210537Y-63565506D01*
X165131185Y-63468815D01*
X165034494Y-63389463D01*
X164924180Y-63330498D01*
X164804482Y-63294188D01*
X164680000Y-63281928D01*
X162980000Y-63281928D01*
X162855518Y-63294188D01*
X162735820Y-63330498D01*
X162625506Y-63389463D01*
X162528815Y-63468815D01*
X162449463Y-63565506D01*
X162390498Y-63675820D01*
X162354188Y-63795518D01*
X162341928Y-63920000D01*
X162341928Y-65620000D01*
X162354188Y-65744482D01*
X162390498Y-65864180D01*
X162449463Y-65974494D01*
X162528815Y-66071185D01*
X162625506Y-66150537D01*
X162735820Y-66209502D01*
X162808380Y-66231513D01*
X162676525Y-66363368D01*
X162514010Y-66606589D01*
X162402068Y-66876842D01*
X162345000Y-67163740D01*
X162345000Y-67456260D01*
X162402068Y-67743158D01*
X162514010Y-68013411D01*
X162676525Y-68256632D01*
X162883368Y-68463475D01*
X163057760Y-68580000D01*
X162883368Y-68696525D01*
X162676525Y-68903368D01*
X162514010Y-69146589D01*
X162402068Y-69416842D01*
X162345000Y-69703740D01*
X162345000Y-69996260D01*
X162402068Y-70283158D01*
X162402831Y-70285000D01*
X162061660Y-70285000D01*
X161923623Y-70171716D01*
X161726447Y-70066324D01*
X161512499Y-70001423D01*
X161290000Y-69979509D01*
X161067501Y-70001423D01*
X160853553Y-70066324D01*
X160656377Y-70171716D01*
X160526857Y-70278011D01*
X159891861Y-70913008D01*
X159891856Y-70913012D01*
X158621860Y-72183009D01*
X158578552Y-72218551D01*
X158436717Y-72391377D01*
X158408062Y-72444987D01*
X158331324Y-72588554D01*
X158266423Y-72802502D01*
X158244509Y-73025000D01*
X158250001Y-73080761D01*
X158250000Y-86524868D01*
X157986861Y-86788008D01*
X157986856Y-86788012D01*
X155080386Y-89694482D01*
X154985990Y-89466589D01*
X154823475Y-89223368D01*
X154616632Y-89016525D01*
X154442240Y-88900000D01*
X154616632Y-88783475D01*
X154823475Y-88576632D01*
X154985990Y-88333411D01*
X155097932Y-88063158D01*
X155155000Y-87776260D01*
X155155000Y-87483740D01*
X155097932Y-87196842D01*
X154985990Y-86926589D01*
X154823475Y-86683368D01*
X154616632Y-86476525D01*
X154442240Y-86360000D01*
X154616632Y-86243475D01*
X154823475Y-86036632D01*
X154985990Y-85793411D01*
X155097932Y-85523158D01*
X155155000Y-85236260D01*
X155155000Y-84943740D01*
X155097932Y-84656842D01*
X154985990Y-84386589D01*
X154823475Y-84143368D01*
X154616632Y-83936525D01*
X154442240Y-83820000D01*
X154616632Y-83703475D01*
X154823475Y-83496632D01*
X154985990Y-83253411D01*
X155097932Y-82983158D01*
X155155000Y-82696260D01*
X155155000Y-82403740D01*
X155097932Y-82116842D01*
X154985990Y-81846589D01*
X154823475Y-81603368D01*
X154616632Y-81396525D01*
X154442240Y-81280000D01*
X154616632Y-81163475D01*
X154823475Y-80956632D01*
X154985990Y-80713411D01*
X155097932Y-80443158D01*
X155155000Y-80156260D01*
X155155000Y-79863740D01*
X155097932Y-79576842D01*
X154985990Y-79306589D01*
X154823475Y-79063368D01*
X154616632Y-78856525D01*
X154442240Y-78740000D01*
X154616632Y-78623475D01*
X154823475Y-78416632D01*
X154985990Y-78173411D01*
X155097932Y-77903158D01*
X155155000Y-77616260D01*
X155155000Y-77323740D01*
X155097932Y-77036842D01*
X154985990Y-76766589D01*
X154823475Y-76523368D01*
X154616632Y-76316525D01*
X154442240Y-76200000D01*
X154616632Y-76083475D01*
X154823475Y-75876632D01*
X154985990Y-75633411D01*
X155097932Y-75363158D01*
X155155000Y-75076260D01*
X155155000Y-74783740D01*
X155097932Y-74496842D01*
X154985990Y-74226589D01*
X154823475Y-73983368D01*
X154616632Y-73776525D01*
X154442240Y-73660000D01*
X154616632Y-73543475D01*
X154823475Y-73336632D01*
X154985990Y-73093411D01*
X155097932Y-72823158D01*
X155155000Y-72536260D01*
X155155000Y-72243740D01*
X155097932Y-71956842D01*
X154985990Y-71686589D01*
X154823475Y-71443368D01*
X154616632Y-71236525D01*
X154442240Y-71120000D01*
X154616632Y-71003475D01*
X154823475Y-70796632D01*
X154985990Y-70553411D01*
X155097932Y-70283158D01*
X155155000Y-69996260D01*
X155155000Y-69703740D01*
X155097932Y-69416842D01*
X154985990Y-69146589D01*
X154823475Y-68903368D01*
X154616632Y-68696525D01*
X154442240Y-68580000D01*
X154616632Y-68463475D01*
X154823475Y-68256632D01*
X154985990Y-68013411D01*
X155097932Y-67743158D01*
X155155000Y-67456260D01*
X155155000Y-67163740D01*
X155097932Y-66876842D01*
X154985990Y-66606589D01*
X154823475Y-66363368D01*
X154691620Y-66231513D01*
X154764180Y-66209502D01*
X154874494Y-66150537D01*
X154971185Y-66071185D01*
X155050537Y-65974494D01*
X155109502Y-65864180D01*
X155145812Y-65744482D01*
X155158072Y-65620000D01*
X155158072Y-63920000D01*
X155145812Y-63795518D01*
X155109502Y-63675820D01*
X155050537Y-63565506D01*
X154971185Y-63468815D01*
X154874494Y-63389463D01*
X154764180Y-63330498D01*
X154644482Y-63294188D01*
X154520000Y-63281928D01*
X152820000Y-63281928D01*
X152695518Y-63294188D01*
X152575820Y-63330498D01*
X152465506Y-63389463D01*
X152368815Y-63468815D01*
X152289463Y-63565506D01*
X152230498Y-63675820D01*
X152194188Y-63795518D01*
X152193357Y-63803961D01*
X152044759Y-63655363D01*
X151809727Y-63498320D01*
X151548574Y-63390147D01*
X151271335Y-63335000D01*
X150988665Y-63335000D01*
X150711426Y-63390147D01*
X150450273Y-63498320D01*
X150215241Y-63655363D01*
X150015363Y-63855241D01*
X149858320Y-64090273D01*
X149750147Y-64351426D01*
X149695000Y-64628665D01*
X149695000Y-64911335D01*
X149750147Y-65188574D01*
X149858320Y-65449727D01*
X150015363Y-65684759D01*
X150215241Y-65884637D01*
X150447759Y-66040000D01*
X150215241Y-66195363D01*
X150015363Y-66395241D01*
X149962070Y-66475000D01*
X149266018Y-66475000D01*
X149225000Y-66470960D01*
X149183982Y-66475000D01*
X149183981Y-66475000D01*
X149061311Y-66487082D01*
X149007020Y-66503551D01*
X148903913Y-66534828D01*
X148758854Y-66612364D01*
X148680854Y-66676377D01*
X148631709Y-66716709D01*
X148605562Y-66748569D01*
X148028578Y-67325555D01*
X147996709Y-67351709D01*
X147914949Y-67451335D01*
X147892364Y-67478855D01*
X147814828Y-67623914D01*
X147767082Y-67781312D01*
X147750960Y-67945000D01*
X147755000Y-67986019D01*
X147755001Y-77733970D01*
X147755000Y-77733980D01*
X147755001Y-87016714D01*
X147672795Y-87139744D01*
X147594774Y-87328102D01*
X147555000Y-87528061D01*
X147555000Y-87731939D01*
X147594774Y-87931898D01*
X147672795Y-88120256D01*
X147786063Y-88289774D01*
X147930226Y-88433937D01*
X148099744Y-88547205D01*
X148288102Y-88625226D01*
X148488061Y-88665000D01*
X148691939Y-88665000D01*
X148891898Y-88625226D01*
X149080256Y-88547205D01*
X149249774Y-88433937D01*
X149393937Y-88289774D01*
X149507205Y-88120256D01*
X149585226Y-87931898D01*
X149625000Y-87731939D01*
X149625000Y-87528061D01*
X149585226Y-87328102D01*
X149507205Y-87139744D01*
X149425000Y-87016715D01*
X149425000Y-68290868D01*
X149570868Y-68145000D01*
X149962070Y-68145000D01*
X150015363Y-68224759D01*
X150215241Y-68424637D01*
X150447759Y-68580000D01*
X150215241Y-68735363D01*
X150015363Y-68935241D01*
X149858320Y-69170273D01*
X149750147Y-69431426D01*
X149695000Y-69708665D01*
X149695000Y-69991335D01*
X149750147Y-70268574D01*
X149858320Y-70529727D01*
X150015363Y-70764759D01*
X150215241Y-70964637D01*
X150447759Y-71120000D01*
X150215241Y-71275363D01*
X150015363Y-71475241D01*
X149858320Y-71710273D01*
X149750147Y-71971426D01*
X149695000Y-72248665D01*
X149695000Y-72531335D01*
X149750147Y-72808574D01*
X149858320Y-73069727D01*
X150015363Y-73304759D01*
X150215241Y-73504637D01*
X150447759Y-73660000D01*
X150215241Y-73815363D01*
X150015363Y-74015241D01*
X149858320Y-74250273D01*
X149750147Y-74511426D01*
X149695000Y-74788665D01*
X149695000Y-75071335D01*
X149750147Y-75348574D01*
X149858320Y-75609727D01*
X150015363Y-75844759D01*
X150215241Y-76044637D01*
X150447759Y-76200000D01*
X150215241Y-76355363D01*
X150015363Y-76555241D01*
X149858320Y-76790273D01*
X149750147Y-77051426D01*
X149695000Y-77328665D01*
X149695000Y-77611335D01*
X149750147Y-77888574D01*
X149858320Y-78149727D01*
X150015363Y-78384759D01*
X150215241Y-78584637D01*
X150447759Y-78740000D01*
X150215241Y-78895363D01*
X150015363Y-79095241D01*
X149858320Y-79330273D01*
X149750147Y-79591426D01*
X149695000Y-79868665D01*
X149695000Y-80151335D01*
X149750147Y-80428574D01*
X149858320Y-80689727D01*
X150015363Y-80924759D01*
X150215241Y-81124637D01*
X150447759Y-81280000D01*
X150215241Y-81435363D01*
X150015363Y-81635241D01*
X149858320Y-81870273D01*
X149750147Y-82131426D01*
X149695000Y-82408665D01*
X149695000Y-82691335D01*
X149750147Y-82968574D01*
X149858320Y-83229727D01*
X150015363Y-83464759D01*
X150215241Y-83664637D01*
X150447759Y-83820000D01*
X150215241Y-83975363D01*
X150015363Y-84175241D01*
X149858320Y-84410273D01*
X149750147Y-84671426D01*
X149695000Y-84948665D01*
X149695000Y-85231335D01*
X149750147Y-85508574D01*
X149858320Y-85769727D01*
X150015363Y-86004759D01*
X150215241Y-86204637D01*
X150447759Y-86360000D01*
X150215241Y-86515363D01*
X150015363Y-86715241D01*
X149858320Y-86950273D01*
X149750147Y-87211426D01*
X149695000Y-87488665D01*
X149695000Y-87771335D01*
X149750147Y-88048574D01*
X149858320Y-88309727D01*
X150015363Y-88544759D01*
X150215241Y-88744637D01*
X150447759Y-88900000D01*
X150215241Y-89055363D01*
X150015363Y-89255241D01*
X149858320Y-89490273D01*
X149750147Y-89751426D01*
X149741641Y-89794188D01*
X149661447Y-89751324D01*
X149447499Y-89686423D01*
X149280752Y-89670000D01*
X149280751Y-89670000D01*
X149225000Y-89664509D01*
X149169249Y-89670000D01*
X148285107Y-89670000D01*
X148266632Y-89651525D01*
X148023411Y-89489010D01*
X147753158Y-89377068D01*
X147466260Y-89320000D01*
X147173740Y-89320000D01*
X146886842Y-89377068D01*
X146616589Y-89489010D01*
X146373368Y-89651525D01*
X146354893Y-89670000D01*
X141385132Y-89670000D01*
X139059172Y-87344040D01*
X140213091Y-87344040D01*
X140307930Y-87608881D01*
X140452615Y-87850131D01*
X140641586Y-88058519D01*
X140867580Y-88226037D01*
X141121913Y-88346246D01*
X141255961Y-88386904D01*
X141478000Y-88264915D01*
X141478000Y-87122000D01*
X141732000Y-87122000D01*
X141732000Y-88264915D01*
X141954039Y-88386904D01*
X142088087Y-88346246D01*
X142342420Y-88226037D01*
X142568414Y-88058519D01*
X142757385Y-87850131D01*
X142902070Y-87608881D01*
X142996909Y-87344040D01*
X144023091Y-87344040D01*
X144117930Y-87608881D01*
X144262615Y-87850131D01*
X144451586Y-88058519D01*
X144677580Y-88226037D01*
X144931913Y-88346246D01*
X145065961Y-88386904D01*
X145288000Y-88264915D01*
X145288000Y-87122000D01*
X145542000Y-87122000D01*
X145542000Y-88264915D01*
X145764039Y-88386904D01*
X145898087Y-88346246D01*
X146152420Y-88226037D01*
X146378414Y-88058519D01*
X146567385Y-87850131D01*
X146712070Y-87608881D01*
X146806909Y-87344040D01*
X146685624Y-87122000D01*
X145542000Y-87122000D01*
X145288000Y-87122000D01*
X144144376Y-87122000D01*
X144023091Y-87344040D01*
X142996909Y-87344040D01*
X142875624Y-87122000D01*
X141732000Y-87122000D01*
X141478000Y-87122000D01*
X140334376Y-87122000D01*
X140213091Y-87344040D01*
X139059172Y-87344040D01*
X138361092Y-86645960D01*
X140213091Y-86645960D01*
X140334376Y-86868000D01*
X141478000Y-86868000D01*
X141478000Y-85725085D01*
X141732000Y-85725085D01*
X141732000Y-86868000D01*
X142875624Y-86868000D01*
X142996909Y-86645960D01*
X144023091Y-86645960D01*
X144144376Y-86868000D01*
X145288000Y-86868000D01*
X145288000Y-85725085D01*
X145542000Y-85725085D01*
X145542000Y-86868000D01*
X146685624Y-86868000D01*
X146806909Y-86645960D01*
X146712070Y-86381119D01*
X146567385Y-86139869D01*
X146378414Y-85931481D01*
X146152420Y-85763963D01*
X145898087Y-85643754D01*
X145764039Y-85603096D01*
X145542000Y-85725085D01*
X145288000Y-85725085D01*
X145065961Y-85603096D01*
X144931913Y-85643754D01*
X144677580Y-85763963D01*
X144451586Y-85931481D01*
X144262615Y-86139869D01*
X144117930Y-86381119D01*
X144023091Y-86645960D01*
X142996909Y-86645960D01*
X142902070Y-86381119D01*
X142757385Y-86139869D01*
X142568414Y-85931481D01*
X142342420Y-85763963D01*
X142088087Y-85643754D01*
X141954039Y-85603096D01*
X141732000Y-85725085D01*
X141478000Y-85725085D01*
X141255961Y-85603096D01*
X141121913Y-85643754D01*
X140867580Y-85763963D01*
X140641586Y-85931481D01*
X140452615Y-86139869D01*
X140307930Y-86381119D01*
X140213091Y-86645960D01*
X138361092Y-86645960D01*
X131175000Y-79459869D01*
X131175000Y-79268967D01*
X131112168Y-78953088D01*
X130988918Y-78655537D01*
X130809987Y-78387748D01*
X130675000Y-78252761D01*
X130675000Y-76107239D01*
X130809987Y-75972252D01*
X130988918Y-75704463D01*
X131112168Y-75406912D01*
X131175000Y-75091033D01*
X131175000Y-74768967D01*
X134405000Y-74768967D01*
X134405000Y-75091033D01*
X134467832Y-75406912D01*
X134591082Y-75704463D01*
X134770013Y-75972252D01*
X134997748Y-76199987D01*
X135265537Y-76378918D01*
X135280000Y-76384909D01*
X135280001Y-77975091D01*
X135265537Y-77981082D01*
X134997748Y-78160013D01*
X134770013Y-78387748D01*
X134591082Y-78655537D01*
X134467832Y-78953088D01*
X134405000Y-79268967D01*
X134405000Y-79591033D01*
X134467832Y-79906912D01*
X134591082Y-80204463D01*
X134770013Y-80472252D01*
X134997748Y-80699987D01*
X135265537Y-80878918D01*
X135563088Y-81002168D01*
X135878967Y-81065000D01*
X136201033Y-81065000D01*
X136516912Y-81002168D01*
X136814463Y-80878918D01*
X137082252Y-80699987D01*
X137309987Y-80472252D01*
X137488918Y-80204463D01*
X137612168Y-79906912D01*
X137675000Y-79591033D01*
X137675000Y-79268967D01*
X137667979Y-79233665D01*
X140170000Y-79233665D01*
X140170000Y-79516335D01*
X140225147Y-79793574D01*
X140333320Y-80054727D01*
X140490363Y-80289759D01*
X140690241Y-80489637D01*
X140925273Y-80646680D01*
X141186426Y-80754853D01*
X141463665Y-80810000D01*
X141746335Y-80810000D01*
X142023574Y-80754853D01*
X142284727Y-80646680D01*
X142519759Y-80489637D01*
X142719637Y-80289759D01*
X142876680Y-80054727D01*
X142984853Y-79793574D01*
X143040000Y-79516335D01*
X143040000Y-79233665D01*
X143980000Y-79233665D01*
X143980000Y-79516335D01*
X144035147Y-79793574D01*
X144143320Y-80054727D01*
X144300363Y-80289759D01*
X144500241Y-80489637D01*
X144735273Y-80646680D01*
X144996426Y-80754853D01*
X145273665Y-80810000D01*
X145556335Y-80810000D01*
X145833574Y-80754853D01*
X146094727Y-80646680D01*
X146329759Y-80489637D01*
X146529637Y-80289759D01*
X146686680Y-80054727D01*
X146794853Y-79793574D01*
X146850000Y-79516335D01*
X146850000Y-79233665D01*
X146794853Y-78956426D01*
X146686680Y-78695273D01*
X146529637Y-78460241D01*
X146329759Y-78260363D01*
X146094727Y-78103320D01*
X145833574Y-77995147D01*
X145556335Y-77940000D01*
X145273665Y-77940000D01*
X144996426Y-77995147D01*
X144735273Y-78103320D01*
X144500241Y-78260363D01*
X144300363Y-78460241D01*
X144143320Y-78695273D01*
X144035147Y-78956426D01*
X143980000Y-79233665D01*
X143040000Y-79233665D01*
X142984853Y-78956426D01*
X142876680Y-78695273D01*
X142719637Y-78460241D01*
X142519759Y-78260363D01*
X142284727Y-78103320D01*
X142023574Y-77995147D01*
X141746335Y-77940000D01*
X141463665Y-77940000D01*
X141186426Y-77995147D01*
X140925273Y-78103320D01*
X140690241Y-78260363D01*
X140490363Y-78460241D01*
X140333320Y-78695273D01*
X140225147Y-78956426D01*
X140170000Y-79233665D01*
X137667979Y-79233665D01*
X137612168Y-78953088D01*
X137488918Y-78655537D01*
X137309987Y-78387748D01*
X137082252Y-78160013D01*
X136814463Y-77981082D01*
X136800000Y-77975091D01*
X136800000Y-76384909D01*
X136814463Y-76378918D01*
X137082252Y-76199987D01*
X137309987Y-75972252D01*
X137488918Y-75704463D01*
X137612168Y-75406912D01*
X137675000Y-75091033D01*
X137675000Y-74768967D01*
X137612168Y-74453088D01*
X137488918Y-74155537D01*
X137309987Y-73887748D01*
X137082252Y-73660013D01*
X136814463Y-73481082D01*
X136516912Y-73357832D01*
X136201033Y-73295000D01*
X135878967Y-73295000D01*
X135563088Y-73357832D01*
X135265537Y-73481082D01*
X134997748Y-73660013D01*
X134770013Y-73887748D01*
X134591082Y-74155537D01*
X134467832Y-74453088D01*
X134405000Y-74768967D01*
X131175000Y-74768967D01*
X131112168Y-74453088D01*
X130988918Y-74155537D01*
X130809987Y-73887748D01*
X130675000Y-73752761D01*
X130675000Y-72352239D01*
X130809987Y-72217252D01*
X130988918Y-71949463D01*
X131112168Y-71651912D01*
X131175000Y-71336033D01*
X131175000Y-71013967D01*
X131112168Y-70698088D01*
X130988918Y-70400537D01*
X130809987Y-70132748D01*
X130675000Y-69997761D01*
X130675000Y-67852239D01*
X130809987Y-67717252D01*
X130988918Y-67449463D01*
X131112168Y-67151912D01*
X131175000Y-66836033D01*
X131175000Y-66513967D01*
X134405000Y-66513967D01*
X134405000Y-66836033D01*
X134467832Y-67151912D01*
X134591082Y-67449463D01*
X134770013Y-67717252D01*
X134997748Y-67944987D01*
X135265537Y-68123918D01*
X135280000Y-68129909D01*
X135280001Y-69720091D01*
X135265537Y-69726082D01*
X134997748Y-69905013D01*
X134770013Y-70132748D01*
X134591082Y-70400537D01*
X134467832Y-70698088D01*
X134405000Y-71013967D01*
X134405000Y-71336033D01*
X134467832Y-71651912D01*
X134591082Y-71949463D01*
X134770013Y-72217252D01*
X134997748Y-72444987D01*
X135265537Y-72623918D01*
X135563088Y-72747168D01*
X135878967Y-72810000D01*
X136201033Y-72810000D01*
X136516912Y-72747168D01*
X136814463Y-72623918D01*
X137082252Y-72444987D01*
X137309987Y-72217252D01*
X137488918Y-71949463D01*
X137612168Y-71651912D01*
X137675000Y-71336033D01*
X137675000Y-71013967D01*
X137612168Y-70698088D01*
X137488918Y-70400537D01*
X137309987Y-70132748D01*
X137082252Y-69905013D01*
X136814463Y-69726082D01*
X136800000Y-69720091D01*
X136800000Y-68129909D01*
X136814463Y-68123918D01*
X137082252Y-67944987D01*
X137309987Y-67717252D01*
X137488918Y-67449463D01*
X137612168Y-67151912D01*
X137675000Y-66836033D01*
X137675000Y-66513967D01*
X137612168Y-66198088D01*
X137488918Y-65900537D01*
X137309987Y-65632748D01*
X137082252Y-65405013D01*
X136814463Y-65226082D01*
X136516912Y-65102832D01*
X136201033Y-65040000D01*
X135878967Y-65040000D01*
X135563088Y-65102832D01*
X135265537Y-65226082D01*
X134997748Y-65405013D01*
X134770013Y-65632748D01*
X134591082Y-65900537D01*
X134467832Y-66198088D01*
X134405000Y-66513967D01*
X131175000Y-66513967D01*
X131112168Y-66198088D01*
X130988918Y-65900537D01*
X130809987Y-65632748D01*
X130582252Y-65405013D01*
X130314463Y-65226082D01*
X130016912Y-65102832D01*
X129701033Y-65040000D01*
X129378967Y-65040000D01*
X129063088Y-65102832D01*
X128765537Y-65226082D01*
X128497748Y-65405013D01*
X128295000Y-65607761D01*
X128295000Y-61639721D01*
X138865000Y-61639721D01*
X138865000Y-62060279D01*
X138947047Y-62472756D01*
X139107988Y-62861302D01*
X139341637Y-63210983D01*
X139639017Y-63508363D01*
X139988698Y-63742012D01*
X140377244Y-63902953D01*
X140789721Y-63985000D01*
X141210279Y-63985000D01*
X141622756Y-63902953D01*
X142011302Y-63742012D01*
X142360983Y-63508363D01*
X142658363Y-63210983D01*
X142892012Y-62861302D01*
X143052953Y-62472756D01*
X143135000Y-62060279D01*
X143135000Y-61639721D01*
X169865000Y-61639721D01*
X169865000Y-62060279D01*
X169947047Y-62472756D01*
X170107988Y-62861302D01*
X170341637Y-63210983D01*
X170639017Y-63508363D01*
X170988698Y-63742012D01*
X171377244Y-63902953D01*
X171789721Y-63985000D01*
X172210279Y-63985000D01*
X172622756Y-63902953D01*
X173011302Y-63742012D01*
X173360983Y-63508363D01*
X173658363Y-63210983D01*
X173892012Y-62861302D01*
X174052953Y-62472756D01*
X174135000Y-62060279D01*
X174135000Y-61639721D01*
X174052953Y-61227244D01*
X173892012Y-60838698D01*
X173658363Y-60489017D01*
X173360983Y-60191637D01*
X173011302Y-59957988D01*
X172622756Y-59797047D01*
X172210279Y-59715000D01*
X171789721Y-59715000D01*
X171377244Y-59797047D01*
X170988698Y-59957988D01*
X170639017Y-60191637D01*
X170341637Y-60489017D01*
X170107988Y-60838698D01*
X169947047Y-61227244D01*
X169865000Y-61639721D01*
X143135000Y-61639721D01*
X143052953Y-61227244D01*
X142892012Y-60838698D01*
X142658363Y-60489017D01*
X142360983Y-60191637D01*
X142011302Y-59957988D01*
X141622756Y-59797047D01*
X141210279Y-59715000D01*
X140789721Y-59715000D01*
X140377244Y-59797047D01*
X139988698Y-59957988D01*
X139639017Y-60191637D01*
X139341637Y-60489017D01*
X139107988Y-60838698D01*
X138947047Y-61227244D01*
X138865000Y-61639721D01*
X128295000Y-61639721D01*
X128295000Y-59080000D01*
X174600001Y-59080000D01*
X174600001Y-77256196D01*
G37*
X174600001Y-77256196D02*
X173180296Y-75836492D01*
X173315990Y-75633411D01*
X173427932Y-75363158D01*
X173485000Y-75076260D01*
X173485000Y-74783740D01*
X173427932Y-74496842D01*
X173315990Y-74226589D01*
X173153475Y-73983368D01*
X172946632Y-73776525D01*
X172772240Y-73660000D01*
X172946632Y-73543475D01*
X173153475Y-73336632D01*
X173315990Y-73093411D01*
X173427932Y-72823158D01*
X173485000Y-72536260D01*
X173485000Y-72243740D01*
X173427932Y-71956842D01*
X173315990Y-71686589D01*
X173153475Y-71443368D01*
X173021620Y-71311513D01*
X173094180Y-71289502D01*
X173204494Y-71230537D01*
X173301185Y-71151185D01*
X173380537Y-71054494D01*
X173439502Y-70944180D01*
X173475812Y-70824482D01*
X173488072Y-70700000D01*
X173485000Y-70135750D01*
X173326250Y-69977000D01*
X172127000Y-69977000D01*
X172127000Y-69997000D01*
X171873000Y-69997000D01*
X171873000Y-69977000D01*
X170673750Y-69977000D01*
X170515000Y-70135750D01*
X170514187Y-70285000D01*
X167743049Y-70285000D01*
X167749853Y-70268574D01*
X167805000Y-69991335D01*
X167805000Y-69708665D01*
X167749853Y-69431426D01*
X167641680Y-69170273D01*
X167527908Y-69000000D01*
X170511928Y-69000000D01*
X170515000Y-69564250D01*
X170673750Y-69723000D01*
X171873000Y-69723000D01*
X171873000Y-68523750D01*
X172127000Y-68523750D01*
X172127000Y-69723000D01*
X173326250Y-69723000D01*
X173485000Y-69564250D01*
X173488072Y-69000000D01*
X173475812Y-68875518D01*
X173439502Y-68755820D01*
X173380537Y-68645506D01*
X173301185Y-68548815D01*
X173204494Y-68469463D01*
X173094180Y-68410498D01*
X172974482Y-68374188D01*
X172850000Y-68361928D01*
X172285750Y-68365000D01*
X172127000Y-68523750D01*
X171873000Y-68523750D01*
X171714250Y-68365000D01*
X171150000Y-68361928D01*
X171025518Y-68374188D01*
X170905820Y-68410498D01*
X170795506Y-68469463D01*
X170698815Y-68548815D01*
X170619463Y-68645506D01*
X170560498Y-68755820D01*
X170524188Y-68875518D01*
X170511928Y-69000000D01*
X167527908Y-69000000D01*
X167484637Y-68935241D01*
X167284759Y-68735363D01*
X167052241Y-68580000D01*
X167284759Y-68424637D01*
X167484637Y-68224759D01*
X167641680Y-67989727D01*
X167749853Y-67728574D01*
X167805000Y-67451335D01*
X167805000Y-67168665D01*
X167749853Y-66891426D01*
X167641680Y-66630273D01*
X167484637Y-66395241D01*
X167284759Y-66195363D01*
X167052241Y-66040000D01*
X167284759Y-65884637D01*
X167484637Y-65684759D01*
X167641680Y-65449727D01*
X167749853Y-65188574D01*
X167805000Y-64911335D01*
X167805000Y-64628665D01*
X167749853Y-64351426D01*
X167641680Y-64090273D01*
X167484637Y-63855241D01*
X167284759Y-63655363D01*
X167049727Y-63498320D01*
X166788574Y-63390147D01*
X166511335Y-63335000D01*
X166228665Y-63335000D01*
X165951426Y-63390147D01*
X165690273Y-63498320D01*
X165455241Y-63655363D01*
X165306643Y-63803961D01*
X165305812Y-63795518D01*
X165269502Y-63675820D01*
X165210537Y-63565506D01*
X165131185Y-63468815D01*
X165034494Y-63389463D01*
X164924180Y-63330498D01*
X164804482Y-63294188D01*
X164680000Y-63281928D01*
X162980000Y-63281928D01*
X162855518Y-63294188D01*
X162735820Y-63330498D01*
X162625506Y-63389463D01*
X162528815Y-63468815D01*
X162449463Y-63565506D01*
X162390498Y-63675820D01*
X162354188Y-63795518D01*
X162341928Y-63920000D01*
X162341928Y-65620000D01*
X162354188Y-65744482D01*
X162390498Y-65864180D01*
X162449463Y-65974494D01*
X162528815Y-66071185D01*
X162625506Y-66150537D01*
X162735820Y-66209502D01*
X162808380Y-66231513D01*
X162676525Y-66363368D01*
X162514010Y-66606589D01*
X162402068Y-66876842D01*
X162345000Y-67163740D01*
X162345000Y-67456260D01*
X162402068Y-67743158D01*
X162514010Y-68013411D01*
X162676525Y-68256632D01*
X162883368Y-68463475D01*
X163057760Y-68580000D01*
X162883368Y-68696525D01*
X162676525Y-68903368D01*
X162514010Y-69146589D01*
X162402068Y-69416842D01*
X162345000Y-69703740D01*
X162345000Y-69996260D01*
X162402068Y-70283158D01*
X162402831Y-70285000D01*
X162061660Y-70285000D01*
X161923623Y-70171716D01*
X161726447Y-70066324D01*
X161512499Y-70001423D01*
X161290000Y-69979509D01*
X161067501Y-70001423D01*
X160853553Y-70066324D01*
X160656377Y-70171716D01*
X160526857Y-70278011D01*
X159891861Y-70913008D01*
X159891856Y-70913012D01*
X158621860Y-72183009D01*
X158578552Y-72218551D01*
X158436717Y-72391377D01*
X158408062Y-72444987D01*
X158331324Y-72588554D01*
X158266423Y-72802502D01*
X158244509Y-73025000D01*
X158250001Y-73080761D01*
X158250000Y-86524868D01*
X157986861Y-86788008D01*
X157986856Y-86788012D01*
X155080386Y-89694482D01*
X154985990Y-89466589D01*
X154823475Y-89223368D01*
X154616632Y-89016525D01*
X154442240Y-88900000D01*
X154616632Y-88783475D01*
X154823475Y-88576632D01*
X154985990Y-88333411D01*
X155097932Y-88063158D01*
X155155000Y-87776260D01*
X155155000Y-87483740D01*
X155097932Y-87196842D01*
X154985990Y-86926589D01*
X154823475Y-86683368D01*
X154616632Y-86476525D01*
X154442240Y-86360000D01*
X154616632Y-86243475D01*
X154823475Y-86036632D01*
X154985990Y-85793411D01*
X155097932Y-85523158D01*
X155155000Y-85236260D01*
X155155000Y-84943740D01*
X155097932Y-84656842D01*
X154985990Y-84386589D01*
X154823475Y-84143368D01*
X154616632Y-83936525D01*
X154442240Y-83820000D01*
X154616632Y-83703475D01*
X154823475Y-83496632D01*
X154985990Y-83253411D01*
X155097932Y-82983158D01*
X155155000Y-82696260D01*
X155155000Y-82403740D01*
X155097932Y-82116842D01*
X154985990Y-81846589D01*
X154823475Y-81603368D01*
X154616632Y-81396525D01*
X154442240Y-81280000D01*
X154616632Y-81163475D01*
X154823475Y-80956632D01*
X154985990Y-80713411D01*
X155097932Y-80443158D01*
X155155000Y-80156260D01*
X155155000Y-79863740D01*
X155097932Y-79576842D01*
X154985990Y-79306589D01*
X154823475Y-79063368D01*
X154616632Y-78856525D01*
X154442240Y-78740000D01*
X154616632Y-78623475D01*
X154823475Y-78416632D01*
X154985990Y-78173411D01*
X155097932Y-77903158D01*
X155155000Y-77616260D01*
X155155000Y-77323740D01*
X155097932Y-77036842D01*
X154985990Y-76766589D01*
X154823475Y-76523368D01*
X154616632Y-76316525D01*
X154442240Y-76200000D01*
X154616632Y-76083475D01*
X154823475Y-75876632D01*
X154985990Y-75633411D01*
X155097932Y-75363158D01*
X155155000Y-75076260D01*
X155155000Y-74783740D01*
X155097932Y-74496842D01*
X154985990Y-74226589D01*
X154823475Y-73983368D01*
X154616632Y-73776525D01*
X154442240Y-73660000D01*
X154616632Y-73543475D01*
X154823475Y-73336632D01*
X154985990Y-73093411D01*
X155097932Y-72823158D01*
X155155000Y-72536260D01*
X155155000Y-72243740D01*
X155097932Y-71956842D01*
X154985990Y-71686589D01*
X154823475Y-71443368D01*
X154616632Y-71236525D01*
X154442240Y-71120000D01*
X154616632Y-71003475D01*
X154823475Y-70796632D01*
X154985990Y-70553411D01*
X155097932Y-70283158D01*
X155155000Y-69996260D01*
X155155000Y-69703740D01*
X155097932Y-69416842D01*
X154985990Y-69146589D01*
X154823475Y-68903368D01*
X154616632Y-68696525D01*
X154442240Y-68580000D01*
X154616632Y-68463475D01*
X154823475Y-68256632D01*
X154985990Y-68013411D01*
X155097932Y-67743158D01*
X155155000Y-67456260D01*
X155155000Y-67163740D01*
X155097932Y-66876842D01*
X154985990Y-66606589D01*
X154823475Y-66363368D01*
X154691620Y-66231513D01*
X154764180Y-66209502D01*
X154874494Y-66150537D01*
X154971185Y-66071185D01*
X155050537Y-65974494D01*
X155109502Y-65864180D01*
X155145812Y-65744482D01*
X155158072Y-65620000D01*
X155158072Y-63920000D01*
X155145812Y-63795518D01*
X155109502Y-63675820D01*
X155050537Y-63565506D01*
X154971185Y-63468815D01*
X154874494Y-63389463D01*
X154764180Y-63330498D01*
X154644482Y-63294188D01*
X154520000Y-63281928D01*
X152820000Y-63281928D01*
X152695518Y-63294188D01*
X152575820Y-63330498D01*
X152465506Y-63389463D01*
X152368815Y-63468815D01*
X152289463Y-63565506D01*
X152230498Y-63675820D01*
X152194188Y-63795518D01*
X152193357Y-63803961D01*
X152044759Y-63655363D01*
X151809727Y-63498320D01*
X151548574Y-63390147D01*
X151271335Y-63335000D01*
X150988665Y-63335000D01*
X150711426Y-63390147D01*
X150450273Y-63498320D01*
X150215241Y-63655363D01*
X150015363Y-63855241D01*
X149858320Y-64090273D01*
X149750147Y-64351426D01*
X149695000Y-64628665D01*
X149695000Y-64911335D01*
X149750147Y-65188574D01*
X149858320Y-65449727D01*
X150015363Y-65684759D01*
X150215241Y-65884637D01*
X150447759Y-66040000D01*
X150215241Y-66195363D01*
X150015363Y-66395241D01*
X149962070Y-66475000D01*
X149266018Y-66475000D01*
X149225000Y-66470960D01*
X149183982Y-66475000D01*
X149183981Y-66475000D01*
X149061311Y-66487082D01*
X149007020Y-66503551D01*
X148903913Y-66534828D01*
X148758854Y-66612364D01*
X148680854Y-66676377D01*
X148631709Y-66716709D01*
X148605562Y-66748569D01*
X148028578Y-67325555D01*
X147996709Y-67351709D01*
X147914949Y-67451335D01*
X147892364Y-67478855D01*
X147814828Y-67623914D01*
X147767082Y-67781312D01*
X147750960Y-67945000D01*
X147755000Y-67986019D01*
X147755001Y-77733970D01*
X147755000Y-77733980D01*
X147755001Y-87016714D01*
X147672795Y-87139744D01*
X147594774Y-87328102D01*
X147555000Y-87528061D01*
X147555000Y-87731939D01*
X147594774Y-87931898D01*
X147672795Y-88120256D01*
X147786063Y-88289774D01*
X147930226Y-88433937D01*
X148099744Y-88547205D01*
X148288102Y-88625226D01*
X148488061Y-88665000D01*
X148691939Y-88665000D01*
X148891898Y-88625226D01*
X149080256Y-88547205D01*
X149249774Y-88433937D01*
X149393937Y-88289774D01*
X149507205Y-88120256D01*
X149585226Y-87931898D01*
X149625000Y-87731939D01*
X149625000Y-87528061D01*
X149585226Y-87328102D01*
X149507205Y-87139744D01*
X149425000Y-87016715D01*
X149425000Y-68290868D01*
X149570868Y-68145000D01*
X149962070Y-68145000D01*
X150015363Y-68224759D01*
X150215241Y-68424637D01*
X150447759Y-68580000D01*
X150215241Y-68735363D01*
X150015363Y-68935241D01*
X149858320Y-69170273D01*
X149750147Y-69431426D01*
X149695000Y-69708665D01*
X149695000Y-69991335D01*
X149750147Y-70268574D01*
X149858320Y-70529727D01*
X150015363Y-70764759D01*
X150215241Y-70964637D01*
X150447759Y-71120000D01*
X150215241Y-71275363D01*
X150015363Y-71475241D01*
X149858320Y-71710273D01*
X149750147Y-71971426D01*
X149695000Y-72248665D01*
X149695000Y-72531335D01*
X149750147Y-72808574D01*
X149858320Y-73069727D01*
X150015363Y-73304759D01*
X150215241Y-73504637D01*
X150447759Y-73660000D01*
X150215241Y-73815363D01*
X150015363Y-74015241D01*
X149858320Y-74250273D01*
X149750147Y-74511426D01*
X149695000Y-74788665D01*
X149695000Y-75071335D01*
X149750147Y-75348574D01*
X149858320Y-75609727D01*
X150015363Y-75844759D01*
X150215241Y-76044637D01*
X150447759Y-76200000D01*
X150215241Y-76355363D01*
X150015363Y-76555241D01*
X149858320Y-76790273D01*
X149750147Y-77051426D01*
X149695000Y-77328665D01*
X149695000Y-77611335D01*
X149750147Y-77888574D01*
X149858320Y-78149727D01*
X150015363Y-78384759D01*
X150215241Y-78584637D01*
X150447759Y-78740000D01*
X150215241Y-78895363D01*
X150015363Y-79095241D01*
X149858320Y-79330273D01*
X149750147Y-79591426D01*
X149695000Y-79868665D01*
X149695000Y-80151335D01*
X149750147Y-80428574D01*
X149858320Y-80689727D01*
X150015363Y-80924759D01*
X150215241Y-81124637D01*
X150447759Y-81280000D01*
X150215241Y-81435363D01*
X150015363Y-81635241D01*
X149858320Y-81870273D01*
X149750147Y-82131426D01*
X149695000Y-82408665D01*
X149695000Y-82691335D01*
X149750147Y-82968574D01*
X149858320Y-83229727D01*
X150015363Y-83464759D01*
X150215241Y-83664637D01*
X150447759Y-83820000D01*
X150215241Y-83975363D01*
X150015363Y-84175241D01*
X149858320Y-84410273D01*
X149750147Y-84671426D01*
X149695000Y-84948665D01*
X149695000Y-85231335D01*
X149750147Y-85508574D01*
X149858320Y-85769727D01*
X150015363Y-86004759D01*
X150215241Y-86204637D01*
X150447759Y-86360000D01*
X150215241Y-86515363D01*
X150015363Y-86715241D01*
X149858320Y-86950273D01*
X149750147Y-87211426D01*
X149695000Y-87488665D01*
X149695000Y-87771335D01*
X149750147Y-88048574D01*
X149858320Y-88309727D01*
X150015363Y-88544759D01*
X150215241Y-88744637D01*
X150447759Y-88900000D01*
X150215241Y-89055363D01*
X150015363Y-89255241D01*
X149858320Y-89490273D01*
X149750147Y-89751426D01*
X149741641Y-89794188D01*
X149661447Y-89751324D01*
X149447499Y-89686423D01*
X149280752Y-89670000D01*
X149280751Y-89670000D01*
X149225000Y-89664509D01*
X149169249Y-89670000D01*
X148285107Y-89670000D01*
X148266632Y-89651525D01*
X148023411Y-89489010D01*
X147753158Y-89377068D01*
X147466260Y-89320000D01*
X147173740Y-89320000D01*
X146886842Y-89377068D01*
X146616589Y-89489010D01*
X146373368Y-89651525D01*
X146354893Y-89670000D01*
X141385132Y-89670000D01*
X139059172Y-87344040D01*
X140213091Y-87344040D01*
X140307930Y-87608881D01*
X140452615Y-87850131D01*
X140641586Y-88058519D01*
X140867580Y-88226037D01*
X141121913Y-88346246D01*
X141255961Y-88386904D01*
X141478000Y-88264915D01*
X141478000Y-87122000D01*
X141732000Y-87122000D01*
X141732000Y-88264915D01*
X141954039Y-88386904D01*
X142088087Y-88346246D01*
X142342420Y-88226037D01*
X142568414Y-88058519D01*
X142757385Y-87850131D01*
X142902070Y-87608881D01*
X142996909Y-87344040D01*
X144023091Y-87344040D01*
X144117930Y-87608881D01*
X144262615Y-87850131D01*
X144451586Y-88058519D01*
X144677580Y-88226037D01*
X144931913Y-88346246D01*
X145065961Y-88386904D01*
X145288000Y-88264915D01*
X145288000Y-87122000D01*
X145542000Y-87122000D01*
X145542000Y-88264915D01*
X145764039Y-88386904D01*
X145898087Y-88346246D01*
X146152420Y-88226037D01*
X146378414Y-88058519D01*
X146567385Y-87850131D01*
X146712070Y-87608881D01*
X146806909Y-87344040D01*
X146685624Y-87122000D01*
X145542000Y-87122000D01*
X145288000Y-87122000D01*
X144144376Y-87122000D01*
X144023091Y-87344040D01*
X142996909Y-87344040D01*
X142875624Y-87122000D01*
X141732000Y-87122000D01*
X141478000Y-87122000D01*
X140334376Y-87122000D01*
X140213091Y-87344040D01*
X139059172Y-87344040D01*
X138361092Y-86645960D01*
X140213091Y-86645960D01*
X140334376Y-86868000D01*
X141478000Y-86868000D01*
X141478000Y-85725085D01*
X141732000Y-85725085D01*
X141732000Y-86868000D01*
X142875624Y-86868000D01*
X142996909Y-86645960D01*
X144023091Y-86645960D01*
X144144376Y-86868000D01*
X145288000Y-86868000D01*
X145288000Y-85725085D01*
X145542000Y-85725085D01*
X145542000Y-86868000D01*
X146685624Y-86868000D01*
X146806909Y-86645960D01*
X146712070Y-86381119D01*
X146567385Y-86139869D01*
X146378414Y-85931481D01*
X146152420Y-85763963D01*
X145898087Y-85643754D01*
X145764039Y-85603096D01*
X145542000Y-85725085D01*
X145288000Y-85725085D01*
X145065961Y-85603096D01*
X144931913Y-85643754D01*
X144677580Y-85763963D01*
X144451586Y-85931481D01*
X144262615Y-86139869D01*
X144117930Y-86381119D01*
X144023091Y-86645960D01*
X142996909Y-86645960D01*
X142902070Y-86381119D01*
X142757385Y-86139869D01*
X142568414Y-85931481D01*
X142342420Y-85763963D01*
X142088087Y-85643754D01*
X141954039Y-85603096D01*
X141732000Y-85725085D01*
X141478000Y-85725085D01*
X141255961Y-85603096D01*
X141121913Y-85643754D01*
X140867580Y-85763963D01*
X140641586Y-85931481D01*
X140452615Y-86139869D01*
X140307930Y-86381119D01*
X140213091Y-86645960D01*
X138361092Y-86645960D01*
X131175000Y-79459869D01*
X131175000Y-79268967D01*
X131112168Y-78953088D01*
X130988918Y-78655537D01*
X130809987Y-78387748D01*
X130675000Y-78252761D01*
X130675000Y-76107239D01*
X130809987Y-75972252D01*
X130988918Y-75704463D01*
X131112168Y-75406912D01*
X131175000Y-75091033D01*
X131175000Y-74768967D01*
X134405000Y-74768967D01*
X134405000Y-75091033D01*
X134467832Y-75406912D01*
X134591082Y-75704463D01*
X134770013Y-75972252D01*
X134997748Y-76199987D01*
X135265537Y-76378918D01*
X135280000Y-76384909D01*
X135280001Y-77975091D01*
X135265537Y-77981082D01*
X134997748Y-78160013D01*
X134770013Y-78387748D01*
X134591082Y-78655537D01*
X134467832Y-78953088D01*
X134405000Y-79268967D01*
X134405000Y-79591033D01*
X134467832Y-79906912D01*
X134591082Y-80204463D01*
X134770013Y-80472252D01*
X134997748Y-80699987D01*
X135265537Y-80878918D01*
X135563088Y-81002168D01*
X135878967Y-81065000D01*
X136201033Y-81065000D01*
X136516912Y-81002168D01*
X136814463Y-80878918D01*
X137082252Y-80699987D01*
X137309987Y-80472252D01*
X137488918Y-80204463D01*
X137612168Y-79906912D01*
X137675000Y-79591033D01*
X137675000Y-79268967D01*
X137667979Y-79233665D01*
X140170000Y-79233665D01*
X140170000Y-79516335D01*
X140225147Y-79793574D01*
X140333320Y-80054727D01*
X140490363Y-80289759D01*
X140690241Y-80489637D01*
X140925273Y-80646680D01*
X141186426Y-80754853D01*
X141463665Y-80810000D01*
X141746335Y-80810000D01*
X142023574Y-80754853D01*
X142284727Y-80646680D01*
X142519759Y-80489637D01*
X142719637Y-80289759D01*
X142876680Y-80054727D01*
X142984853Y-79793574D01*
X143040000Y-79516335D01*
X143040000Y-79233665D01*
X143980000Y-79233665D01*
X143980000Y-79516335D01*
X144035147Y-79793574D01*
X144143320Y-80054727D01*
X144300363Y-80289759D01*
X144500241Y-80489637D01*
X144735273Y-80646680D01*
X144996426Y-80754853D01*
X145273665Y-80810000D01*
X145556335Y-80810000D01*
X145833574Y-80754853D01*
X146094727Y-80646680D01*
X146329759Y-80489637D01*
X146529637Y-80289759D01*
X146686680Y-80054727D01*
X146794853Y-79793574D01*
X146850000Y-79516335D01*
X146850000Y-79233665D01*
X146794853Y-78956426D01*
X146686680Y-78695273D01*
X146529637Y-78460241D01*
X146329759Y-78260363D01*
X146094727Y-78103320D01*
X145833574Y-77995147D01*
X145556335Y-77940000D01*
X145273665Y-77940000D01*
X144996426Y-77995147D01*
X144735273Y-78103320D01*
X144500241Y-78260363D01*
X144300363Y-78460241D01*
X144143320Y-78695273D01*
X144035147Y-78956426D01*
X143980000Y-79233665D01*
X143040000Y-79233665D01*
X142984853Y-78956426D01*
X142876680Y-78695273D01*
X142719637Y-78460241D01*
X142519759Y-78260363D01*
X142284727Y-78103320D01*
X142023574Y-77995147D01*
X141746335Y-77940000D01*
X141463665Y-77940000D01*
X141186426Y-77995147D01*
X140925273Y-78103320D01*
X140690241Y-78260363D01*
X140490363Y-78460241D01*
X140333320Y-78695273D01*
X140225147Y-78956426D01*
X140170000Y-79233665D01*
X137667979Y-79233665D01*
X137612168Y-78953088D01*
X137488918Y-78655537D01*
X137309987Y-78387748D01*
X137082252Y-78160013D01*
X136814463Y-77981082D01*
X136800000Y-77975091D01*
X136800000Y-76384909D01*
X136814463Y-76378918D01*
X137082252Y-76199987D01*
X137309987Y-75972252D01*
X137488918Y-75704463D01*
X137612168Y-75406912D01*
X137675000Y-75091033D01*
X137675000Y-74768967D01*
X137612168Y-74453088D01*
X137488918Y-74155537D01*
X137309987Y-73887748D01*
X137082252Y-73660013D01*
X136814463Y-73481082D01*
X136516912Y-73357832D01*
X136201033Y-73295000D01*
X135878967Y-73295000D01*
X135563088Y-73357832D01*
X135265537Y-73481082D01*
X134997748Y-73660013D01*
X134770013Y-73887748D01*
X134591082Y-74155537D01*
X134467832Y-74453088D01*
X134405000Y-74768967D01*
X131175000Y-74768967D01*
X131112168Y-74453088D01*
X130988918Y-74155537D01*
X130809987Y-73887748D01*
X130675000Y-73752761D01*
X130675000Y-72352239D01*
X130809987Y-72217252D01*
X130988918Y-71949463D01*
X131112168Y-71651912D01*
X131175000Y-71336033D01*
X131175000Y-71013967D01*
X131112168Y-70698088D01*
X130988918Y-70400537D01*
X130809987Y-70132748D01*
X130675000Y-69997761D01*
X130675000Y-67852239D01*
X130809987Y-67717252D01*
X130988918Y-67449463D01*
X131112168Y-67151912D01*
X131175000Y-66836033D01*
X131175000Y-66513967D01*
X134405000Y-66513967D01*
X134405000Y-66836033D01*
X134467832Y-67151912D01*
X134591082Y-67449463D01*
X134770013Y-67717252D01*
X134997748Y-67944987D01*
X135265537Y-68123918D01*
X135280000Y-68129909D01*
X135280001Y-69720091D01*
X135265537Y-69726082D01*
X134997748Y-69905013D01*
X134770013Y-70132748D01*
X134591082Y-70400537D01*
X134467832Y-70698088D01*
X134405000Y-71013967D01*
X134405000Y-71336033D01*
X134467832Y-71651912D01*
X134591082Y-71949463D01*
X134770013Y-72217252D01*
X134997748Y-72444987D01*
X135265537Y-72623918D01*
X135563088Y-72747168D01*
X135878967Y-72810000D01*
X136201033Y-72810000D01*
X136516912Y-72747168D01*
X136814463Y-72623918D01*
X137082252Y-72444987D01*
X137309987Y-72217252D01*
X137488918Y-71949463D01*
X137612168Y-71651912D01*
X137675000Y-71336033D01*
X137675000Y-71013967D01*
X137612168Y-70698088D01*
X137488918Y-70400537D01*
X137309987Y-70132748D01*
X137082252Y-69905013D01*
X136814463Y-69726082D01*
X136800000Y-69720091D01*
X136800000Y-68129909D01*
X136814463Y-68123918D01*
X137082252Y-67944987D01*
X137309987Y-67717252D01*
X137488918Y-67449463D01*
X137612168Y-67151912D01*
X137675000Y-66836033D01*
X137675000Y-66513967D01*
X137612168Y-66198088D01*
X137488918Y-65900537D01*
X137309987Y-65632748D01*
X137082252Y-65405013D01*
X136814463Y-65226082D01*
X136516912Y-65102832D01*
X136201033Y-65040000D01*
X135878967Y-65040000D01*
X135563088Y-65102832D01*
X135265537Y-65226082D01*
X134997748Y-65405013D01*
X134770013Y-65632748D01*
X134591082Y-65900537D01*
X134467832Y-66198088D01*
X134405000Y-66513967D01*
X131175000Y-66513967D01*
X131112168Y-66198088D01*
X130988918Y-65900537D01*
X130809987Y-65632748D01*
X130582252Y-65405013D01*
X130314463Y-65226082D01*
X130016912Y-65102832D01*
X129701033Y-65040000D01*
X129378967Y-65040000D01*
X129063088Y-65102832D01*
X128765537Y-65226082D01*
X128497748Y-65405013D01*
X128295000Y-65607761D01*
X128295000Y-61639721D01*
X138865000Y-61639721D01*
X138865000Y-62060279D01*
X138947047Y-62472756D01*
X139107988Y-62861302D01*
X139341637Y-63210983D01*
X139639017Y-63508363D01*
X139988698Y-63742012D01*
X140377244Y-63902953D01*
X140789721Y-63985000D01*
X141210279Y-63985000D01*
X141622756Y-63902953D01*
X142011302Y-63742012D01*
X142360983Y-63508363D01*
X142658363Y-63210983D01*
X142892012Y-62861302D01*
X143052953Y-62472756D01*
X143135000Y-62060279D01*
X143135000Y-61639721D01*
X169865000Y-61639721D01*
X169865000Y-62060279D01*
X169947047Y-62472756D01*
X170107988Y-62861302D01*
X170341637Y-63210983D01*
X170639017Y-63508363D01*
X170988698Y-63742012D01*
X171377244Y-63902953D01*
X171789721Y-63985000D01*
X172210279Y-63985000D01*
X172622756Y-63902953D01*
X173011302Y-63742012D01*
X173360983Y-63508363D01*
X173658363Y-63210983D01*
X173892012Y-62861302D01*
X174052953Y-62472756D01*
X174135000Y-62060279D01*
X174135000Y-61639721D01*
X174052953Y-61227244D01*
X173892012Y-60838698D01*
X173658363Y-60489017D01*
X173360983Y-60191637D01*
X173011302Y-59957988D01*
X172622756Y-59797047D01*
X172210279Y-59715000D01*
X171789721Y-59715000D01*
X171377244Y-59797047D01*
X170988698Y-59957988D01*
X170639017Y-60191637D01*
X170341637Y-60489017D01*
X170107988Y-60838698D01*
X169947047Y-61227244D01*
X169865000Y-61639721D01*
X143135000Y-61639721D01*
X143052953Y-61227244D01*
X142892012Y-60838698D01*
X142658363Y-60489017D01*
X142360983Y-60191637D01*
X142011302Y-59957988D01*
X141622756Y-59797047D01*
X141210279Y-59715000D01*
X140789721Y-59715000D01*
X140377244Y-59797047D01*
X139988698Y-59957988D01*
X139639017Y-60191637D01*
X139341637Y-60489017D01*
X139107988Y-60838698D01*
X138947047Y-61227244D01*
X138865000Y-61639721D01*
X128295000Y-61639721D01*
X128295000Y-59080000D01*
X174600001Y-59080000D01*
X174600001Y-77256196D01*
G36*
X172127000Y-79883000D02*
G01*
X172147000Y-79883000D01*
X172147000Y-80137000D01*
X172127000Y-80137000D01*
X172127000Y-80157000D01*
X171873000Y-80157000D01*
X171873000Y-80137000D01*
X171853000Y-80137000D01*
X171853000Y-79883000D01*
X171873000Y-79883000D01*
X171873000Y-79863000D01*
X172127000Y-79863000D01*
X172127000Y-79883000D01*
G37*
X172127000Y-79883000D02*
X172147000Y-79883000D01*
X172147000Y-80137000D01*
X172127000Y-80137000D01*
X172127000Y-80157000D01*
X171873000Y-80157000D01*
X171873000Y-80137000D01*
X171853000Y-80137000D01*
X171853000Y-79883000D01*
X171873000Y-79883000D01*
X171873000Y-79863000D01*
X172127000Y-79863000D01*
X172127000Y-79883000D01*
%TD*%
M02*
