%TF.GenerationSoftware,KiCad,Pcbnew,(5.1.6)-1*%
%TF.CreationDate,2022-01-11T18:37:24-04:00*%
%TF.ProjectId,LCD_adapter,4c43445f-6164-4617-9074-65722e6b6963,rev?*%
%TF.SameCoordinates,Original*%
%TF.FileFunction,Legend,Top*%
%TF.FilePolarity,Positive*%
%FSLAX46Y46*%
G04 Gerber Fmt 4.6, Leading zero omitted, Abs format (unit mm)*
G04 Created by KiCad (PCBNEW (5.1.6)-1) date 2022-01-11 18:37:24*
%MOMM*%
%LPD*%
G01*
G04 APERTURE LIST*
%ADD10C,0.125000*%
%ADD11C,0.120000*%
%ADD12C,0.400000*%
%ADD13C,0.150000*%
G04 APERTURE END LIST*
D10*
X131916733Y-86146225D02*
X131950405Y-86213569D01*
X131950405Y-86247240D01*
X131933569Y-86297748D01*
X131883061Y-86348256D01*
X131832553Y-86365092D01*
X131798882Y-86365092D01*
X131748374Y-86348256D01*
X131613687Y-86213569D01*
X131967240Y-85860015D01*
X132085092Y-85977866D01*
X132101927Y-86028374D01*
X132101927Y-86062046D01*
X132085092Y-86112553D01*
X132051420Y-86146225D01*
X132000912Y-86163061D01*
X131967240Y-86163061D01*
X131916733Y-86146225D01*
X131798882Y-86028374D01*
X132421809Y-86314584D02*
X132169271Y-86567122D01*
X132101927Y-86600794D01*
X132034584Y-86600794D01*
X131967240Y-86567122D01*
X131933569Y-86533450D01*
X132236614Y-86836496D02*
X132590168Y-86482943D01*
X132674347Y-87274229D02*
X132910049Y-87038527D01*
X133027901Y-86920675D02*
X132994229Y-86920675D01*
X132994229Y-86954347D01*
X133027901Y-86954347D01*
X133027901Y-86920675D01*
X132994229Y-86954347D01*
X133078408Y-87206885D02*
X132842706Y-87442588D01*
X133044736Y-87240557D02*
X133078408Y-87240557D01*
X133128916Y-87257393D01*
X133179424Y-87307901D01*
X133196259Y-87358408D01*
X133179424Y-87408916D01*
X132994229Y-87594111D01*
X133330946Y-87897156D02*
X133280439Y-87880320D01*
X133213095Y-87812977D01*
X133196259Y-87762469D01*
X133196259Y-87728798D01*
X133213095Y-87678290D01*
X133314111Y-87577275D01*
X133364618Y-87560439D01*
X133398290Y-87560439D01*
X133448798Y-87577275D01*
X133516141Y-87644618D01*
X133532977Y-87695126D01*
X133499305Y-88031843D02*
X133499305Y-88065515D01*
X133465633Y-88065515D01*
X133465633Y-88031843D01*
X133499305Y-88031843D01*
X133465633Y-88065515D01*
X134038053Y-88368561D02*
X134307427Y-88637935D01*
X134913519Y-89143011D02*
X134947190Y-89210355D01*
X134947190Y-89244026D01*
X134930355Y-89294534D01*
X134879847Y-89345042D01*
X134829339Y-89361877D01*
X134795668Y-89361877D01*
X134745160Y-89345042D01*
X134610473Y-89210355D01*
X134964026Y-88856801D01*
X135081877Y-88974652D01*
X135098713Y-89025160D01*
X135098713Y-89058832D01*
X135081877Y-89109339D01*
X135048206Y-89143011D01*
X134997698Y-89159847D01*
X134964026Y-89159847D01*
X134913519Y-89143011D01*
X134795668Y-89025160D01*
X135014534Y-89614416D02*
X134997698Y-89563908D01*
X135014534Y-89513400D01*
X135317580Y-89210355D01*
X135536446Y-89664923D02*
X135300744Y-89900625D01*
X135384923Y-89513400D02*
X135199729Y-89698595D01*
X135182893Y-89749103D01*
X135199729Y-89799610D01*
X135250236Y-89850118D01*
X135300744Y-89866954D01*
X135334416Y-89866954D01*
X135620625Y-90186835D02*
X135570118Y-90170000D01*
X135502774Y-90102656D01*
X135485938Y-90052148D01*
X135502774Y-90001641D01*
X135637461Y-89866954D01*
X135687969Y-89850118D01*
X135738477Y-89866954D01*
X135805820Y-89934297D01*
X135822656Y-89984805D01*
X135805820Y-90035312D01*
X135772148Y-90068984D01*
X135570118Y-89934297D01*
X135957343Y-90085820D02*
X136092030Y-90220507D01*
X136125702Y-90018477D02*
X135822656Y-90321522D01*
X135805820Y-90372030D01*
X135822656Y-90422538D01*
X135856328Y-90456209D01*
X136024687Y-90624568D02*
X136007851Y-90574061D01*
X136007851Y-90540389D01*
X136024687Y-90489881D01*
X136125702Y-90388866D01*
X136176209Y-90372030D01*
X136209881Y-90372030D01*
X136260389Y-90388866D01*
X136310896Y-90439374D01*
X136327732Y-90489881D01*
X136327732Y-90523553D01*
X136310896Y-90574061D01*
X136209881Y-90675076D01*
X136159374Y-90691912D01*
X136125702Y-90691912D01*
X136075194Y-90675076D01*
X136024687Y-90624568D01*
X136344568Y-90944450D02*
X136327732Y-90893942D01*
X136327732Y-90860270D01*
X136344568Y-90809763D01*
X136445583Y-90708748D01*
X136496091Y-90691912D01*
X136529763Y-90691912D01*
X136580270Y-90708748D01*
X136630778Y-90759255D01*
X136647614Y-90809763D01*
X136647614Y-90843435D01*
X136630778Y-90893942D01*
X136529763Y-90994957D01*
X136479255Y-91011793D01*
X136445583Y-91011793D01*
X136395076Y-90994957D01*
X136344568Y-90944450D01*
X136799137Y-90927614D02*
X136933824Y-91062301D01*
X136967496Y-90860270D02*
X136664450Y-91163316D01*
X136647614Y-91213824D01*
X136664450Y-91264331D01*
X136698122Y-91298003D01*
X136815973Y-91415854D02*
X137169526Y-91062301D01*
X136967496Y-91567377D02*
X137152690Y-91382183D01*
X137169526Y-91331675D01*
X137152690Y-91281167D01*
X137102183Y-91230660D01*
X137051675Y-91213824D01*
X137018003Y-91213824D01*
X137405228Y-92005110D02*
X137758782Y-91651557D01*
X137624095Y-92021946D01*
X137994484Y-91887259D01*
X137640931Y-92240812D01*
X137960812Y-92560694D02*
X138146007Y-92375499D01*
X138162843Y-92324992D01*
X138146007Y-92274484D01*
X138078663Y-92207140D01*
X138028156Y-92190305D01*
X137977648Y-92543858D02*
X137927140Y-92527022D01*
X137842961Y-92442843D01*
X137826125Y-92392335D01*
X137842961Y-92341827D01*
X137876633Y-92308156D01*
X137927140Y-92291320D01*
X137977648Y-92308156D01*
X138061827Y-92392335D01*
X138112335Y-92409171D01*
X138129171Y-92695381D02*
X138146007Y-92745888D01*
X138213350Y-92813232D01*
X138263858Y-92830068D01*
X138314366Y-92813232D01*
X138331201Y-92796396D01*
X138348037Y-92745888D01*
X138331201Y-92695381D01*
X138280694Y-92644873D01*
X138263858Y-92594366D01*
X138280694Y-92543858D01*
X138297530Y-92527022D01*
X138348037Y-92510186D01*
X138398545Y-92527022D01*
X138449053Y-92577530D01*
X138465888Y-92628037D01*
X138600575Y-92729053D02*
X138735263Y-92863740D01*
X138768934Y-92661709D02*
X138465888Y-92964755D01*
X138449053Y-93015263D01*
X138465888Y-93065770D01*
X138499560Y-93099442D01*
X138768934Y-93335144D02*
X138718427Y-93318308D01*
X138651083Y-93250965D01*
X138634247Y-93200457D01*
X138651083Y-93149950D01*
X138785770Y-93015263D01*
X138836278Y-92998427D01*
X138886785Y-93015263D01*
X138954129Y-93082606D01*
X138970965Y-93133114D01*
X138954129Y-93183621D01*
X138920457Y-93217293D01*
X138718427Y-93082606D01*
X138920457Y-93520339D02*
X139156159Y-93284637D01*
X139088816Y-93351980D02*
X139139324Y-93335144D01*
X139172995Y-93335144D01*
X139223503Y-93351980D01*
X139257175Y-93385652D01*
X139610728Y-93739205D02*
X139459205Y-94059087D01*
X139779087Y-93907564D01*
X140098968Y-93991743D02*
X140132640Y-94025415D01*
X140149476Y-94075923D01*
X140149476Y-94109594D01*
X140132640Y-94160102D01*
X140082133Y-94244281D01*
X139997953Y-94328461D01*
X139913774Y-94378968D01*
X139863266Y-94395804D01*
X139829594Y-94395804D01*
X139779087Y-94378968D01*
X139745415Y-94345297D01*
X139728579Y-94294789D01*
X139728579Y-94261117D01*
X139745415Y-94210610D01*
X139795923Y-94126430D01*
X139880102Y-94042251D01*
X139964281Y-93991743D01*
X140014789Y-93974907D01*
X140048461Y-93974907D01*
X140098968Y-93991743D01*
D11*
%TO.C,U2*%
X151765000Y-105495000D02*
X166705000Y-105495000D01*
D12*
X151465000Y-111495000D02*
G75*
G03*
X151465000Y-111495000I-200000J0D01*
G01*
D11*
%TO.C,J4*%
X171510000Y-115630000D02*
X170180000Y-115630000D01*
X171510000Y-114300000D02*
X171510000Y-115630000D01*
X171510000Y-113030000D02*
X168850000Y-113030000D01*
X168850000Y-113030000D02*
X168850000Y-110430000D01*
X171510000Y-113030000D02*
X171510000Y-110430000D01*
X171510000Y-110430000D02*
X168850000Y-110430000D01*
%TO.C,J3*%
X174685000Y-115630000D02*
X173355000Y-115630000D01*
X174685000Y-114300000D02*
X174685000Y-115630000D01*
X174685000Y-113030000D02*
X172025000Y-113030000D01*
X172025000Y-113030000D02*
X172025000Y-110430000D01*
X174685000Y-113030000D02*
X174685000Y-110430000D01*
X174685000Y-110430000D02*
X172025000Y-110430000D01*
%TO.C,SW2*%
X130540000Y-80430000D02*
X135040000Y-80430000D01*
X129290000Y-76430000D02*
X129290000Y-77930000D01*
X135040000Y-73930000D02*
X130540000Y-73930000D01*
X136290000Y-77930000D02*
X136290000Y-76430000D01*
%TO.C,SW1*%
X130540000Y-72175000D02*
X135040000Y-72175000D01*
X129290000Y-68175000D02*
X129290000Y-69675000D01*
X135040000Y-65675000D02*
X130540000Y-65675000D01*
X136290000Y-69675000D02*
X136290000Y-68175000D01*
%TO.C,R2*%
X140235000Y-86455000D02*
X140565000Y-86455000D01*
X140235000Y-79915000D02*
X140235000Y-86455000D01*
X140565000Y-79915000D02*
X140235000Y-79915000D01*
X142975000Y-86455000D02*
X142645000Y-86455000D01*
X142975000Y-79915000D02*
X142975000Y-86455000D01*
X142645000Y-79915000D02*
X142975000Y-79915000D01*
%TO.C,R1*%
X144045000Y-86455000D02*
X144375000Y-86455000D01*
X144045000Y-79915000D02*
X144045000Y-86455000D01*
X144375000Y-79915000D02*
X144045000Y-79915000D01*
X146785000Y-86455000D02*
X146455000Y-86455000D01*
X146785000Y-79915000D02*
X146785000Y-86455000D01*
X146455000Y-79915000D02*
X146785000Y-79915000D01*
%TO.C,J2*%
X162500000Y-101660000D02*
X165160000Y-101660000D01*
X162500000Y-66040000D02*
X162500000Y-101660000D01*
X165160000Y-66040000D02*
X165160000Y-101660000D01*
X162500000Y-66040000D02*
X165160000Y-66040000D01*
X162500000Y-64770000D02*
X162500000Y-63440000D01*
X162500000Y-63440000D02*
X163830000Y-63440000D01*
%TO.C,J1*%
X152340000Y-101660000D02*
X155000000Y-101660000D01*
X152340000Y-66040000D02*
X152340000Y-101660000D01*
X155000000Y-66040000D02*
X155000000Y-101660000D01*
X152340000Y-66040000D02*
X155000000Y-66040000D01*
X152340000Y-64770000D02*
X152340000Y-63440000D01*
X152340000Y-63440000D02*
X153670000Y-63440000D01*
%TO.C,A1*%
X149730000Y-104270000D02*
X167770000Y-104270000D01*
X149730000Y-60830000D02*
X149730000Y-104270000D01*
X167770000Y-60830000D02*
X149730000Y-60830000D01*
X165100000Y-63500000D02*
X167770000Y-63500000D01*
X165100000Y-99060000D02*
X165100000Y-63500000D01*
X165100000Y-99060000D02*
X167770000Y-99060000D01*
X152400000Y-63500000D02*
X149730000Y-63500000D01*
X152400000Y-101600000D02*
X152400000Y-63500000D01*
X152400000Y-101600000D02*
X149730000Y-101600000D01*
X167770000Y-104270000D02*
X167770000Y-101600000D01*
X167770000Y-99060000D02*
X167770000Y-60830000D01*
X165100000Y-101600000D02*
X167770000Y-101600000D01*
X165100000Y-99060000D02*
X165100000Y-101600000D01*
%TO.C,RV1*%
X148650000Y-97215000D02*
X147320000Y-97215000D01*
X148650000Y-95885000D02*
X148650000Y-97215000D01*
X146050000Y-97215000D02*
X143450000Y-97215000D01*
X146050000Y-94615000D02*
X146050000Y-97215000D01*
X148650000Y-94615000D02*
X146050000Y-94615000D01*
X143450000Y-97215000D02*
X143450000Y-89475000D01*
X148650000Y-94615000D02*
X148650000Y-89475000D01*
X148650000Y-89475000D02*
X143450000Y-89475000D01*
%TO.C,U1*%
X170670000Y-68520000D02*
X172000000Y-68520000D01*
X170670000Y-69850000D02*
X170670000Y-68520000D01*
X170670000Y-71120000D02*
X173330000Y-71120000D01*
X173330000Y-71120000D02*
X173330000Y-109280000D01*
X170670000Y-71120000D02*
X170670000Y-109280000D01*
X170670000Y-109280000D02*
X173330000Y-109280000D01*
%TO.C,U2*%
D13*
X149117380Y-125156904D02*
X149926904Y-125156904D01*
X150022142Y-125109285D01*
X150069761Y-125061666D01*
X150117380Y-124966428D01*
X150117380Y-124775952D01*
X150069761Y-124680714D01*
X150022142Y-124633095D01*
X149926904Y-124585476D01*
X149117380Y-124585476D01*
X149212619Y-124156904D02*
X149165000Y-124109285D01*
X149117380Y-124014047D01*
X149117380Y-123775952D01*
X149165000Y-123680714D01*
X149212619Y-123633095D01*
X149307857Y-123585476D01*
X149403095Y-123585476D01*
X149545952Y-123633095D01*
X150117380Y-124204523D01*
X150117380Y-123585476D01*
%TO.C,J4*%
X169846666Y-116082380D02*
X169846666Y-116796666D01*
X169799047Y-116939523D01*
X169703809Y-117034761D01*
X169560952Y-117082380D01*
X169465714Y-117082380D01*
X170751428Y-116415714D02*
X170751428Y-117082380D01*
X170513333Y-116034761D02*
X170275238Y-116749047D01*
X170894285Y-116749047D01*
%TO.C,J3*%
X173021666Y-116082380D02*
X173021666Y-116796666D01*
X172974047Y-116939523D01*
X172878809Y-117034761D01*
X172735952Y-117082380D01*
X172640714Y-117082380D01*
X173402619Y-116082380D02*
X174021666Y-116082380D01*
X173688333Y-116463333D01*
X173831190Y-116463333D01*
X173926428Y-116510952D01*
X173974047Y-116558571D01*
X174021666Y-116653809D01*
X174021666Y-116891904D01*
X173974047Y-116987142D01*
X173926428Y-117034761D01*
X173831190Y-117082380D01*
X173545476Y-117082380D01*
X173450238Y-117034761D01*
X173402619Y-116987142D01*
%TO.C,SW2*%
X131456666Y-73334761D02*
X131599523Y-73382380D01*
X131837619Y-73382380D01*
X131932857Y-73334761D01*
X131980476Y-73287142D01*
X132028095Y-73191904D01*
X132028095Y-73096666D01*
X131980476Y-73001428D01*
X131932857Y-72953809D01*
X131837619Y-72906190D01*
X131647142Y-72858571D01*
X131551904Y-72810952D01*
X131504285Y-72763333D01*
X131456666Y-72668095D01*
X131456666Y-72572857D01*
X131504285Y-72477619D01*
X131551904Y-72430000D01*
X131647142Y-72382380D01*
X131885238Y-72382380D01*
X132028095Y-72430000D01*
X132361428Y-72382380D02*
X132599523Y-73382380D01*
X132790000Y-72668095D01*
X132980476Y-73382380D01*
X133218571Y-72382380D01*
X133551904Y-72477619D02*
X133599523Y-72430000D01*
X133694761Y-72382380D01*
X133932857Y-72382380D01*
X134028095Y-72430000D01*
X134075714Y-72477619D01*
X134123333Y-72572857D01*
X134123333Y-72668095D01*
X134075714Y-72810952D01*
X133504285Y-73382380D01*
X134123333Y-73382380D01*
%TO.C,SW1*%
X131456666Y-65079761D02*
X131599523Y-65127380D01*
X131837619Y-65127380D01*
X131932857Y-65079761D01*
X131980476Y-65032142D01*
X132028095Y-64936904D01*
X132028095Y-64841666D01*
X131980476Y-64746428D01*
X131932857Y-64698809D01*
X131837619Y-64651190D01*
X131647142Y-64603571D01*
X131551904Y-64555952D01*
X131504285Y-64508333D01*
X131456666Y-64413095D01*
X131456666Y-64317857D01*
X131504285Y-64222619D01*
X131551904Y-64175000D01*
X131647142Y-64127380D01*
X131885238Y-64127380D01*
X132028095Y-64175000D01*
X132361428Y-64127380D02*
X132599523Y-65127380D01*
X132790000Y-64413095D01*
X132980476Y-65127380D01*
X133218571Y-64127380D01*
X134123333Y-65127380D02*
X133551904Y-65127380D01*
X133837619Y-65127380D02*
X133837619Y-64127380D01*
X133742380Y-64270238D01*
X133647142Y-64365476D01*
X133551904Y-64413095D01*
%TO.C,R2*%
X144427380Y-83351666D02*
X143951190Y-83685000D01*
X144427380Y-83923095D02*
X143427380Y-83923095D01*
X143427380Y-83542142D01*
X143475000Y-83446904D01*
X143522619Y-83399285D01*
X143617857Y-83351666D01*
X143760714Y-83351666D01*
X143855952Y-83399285D01*
X143903571Y-83446904D01*
X143951190Y-83542142D01*
X143951190Y-83923095D01*
X143522619Y-82970714D02*
X143475000Y-82923095D01*
X143427380Y-82827857D01*
X143427380Y-82589761D01*
X143475000Y-82494523D01*
X143522619Y-82446904D01*
X143617857Y-82399285D01*
X143713095Y-82399285D01*
X143855952Y-82446904D01*
X144427380Y-83018333D01*
X144427380Y-82399285D01*
%TO.C,R1*%
X148237380Y-83351666D02*
X147761190Y-83685000D01*
X148237380Y-83923095D02*
X147237380Y-83923095D01*
X147237380Y-83542142D01*
X147285000Y-83446904D01*
X147332619Y-83399285D01*
X147427857Y-83351666D01*
X147570714Y-83351666D01*
X147665952Y-83399285D01*
X147713571Y-83446904D01*
X147761190Y-83542142D01*
X147761190Y-83923095D01*
X148237380Y-82399285D02*
X148237380Y-82970714D01*
X148237380Y-82685000D02*
X147237380Y-82685000D01*
X147380238Y-82780238D01*
X147475476Y-82875476D01*
X147523095Y-82970714D01*
%TO.C,REF\u002A\u002A*%
X139666666Y-58302380D02*
X139333333Y-57826190D01*
X139095238Y-58302380D02*
X139095238Y-57302380D01*
X139476190Y-57302380D01*
X139571428Y-57350000D01*
X139619047Y-57397619D01*
X139666666Y-57492857D01*
X139666666Y-57635714D01*
X139619047Y-57730952D01*
X139571428Y-57778571D01*
X139476190Y-57826190D01*
X139095238Y-57826190D01*
X140095238Y-57778571D02*
X140428571Y-57778571D01*
X140571428Y-58302380D02*
X140095238Y-58302380D01*
X140095238Y-57302380D01*
X140571428Y-57302380D01*
X141333333Y-57778571D02*
X141000000Y-57778571D01*
X141000000Y-58302380D02*
X141000000Y-57302380D01*
X141476190Y-57302380D01*
X142000000Y-57302380D02*
X142000000Y-57540476D01*
X141761904Y-57445238D02*
X142000000Y-57540476D01*
X142238095Y-57445238D01*
X141857142Y-57730952D02*
X142000000Y-57540476D01*
X142142857Y-57730952D01*
X142761904Y-57302380D02*
X142761904Y-57540476D01*
X142523809Y-57445238D02*
X142761904Y-57540476D01*
X143000000Y-57445238D01*
X142619047Y-57730952D02*
X142761904Y-57540476D01*
X142904761Y-57730952D01*
X170666666Y-58302380D02*
X170333333Y-57826190D01*
X170095238Y-58302380D02*
X170095238Y-57302380D01*
X170476190Y-57302380D01*
X170571428Y-57350000D01*
X170619047Y-57397619D01*
X170666666Y-57492857D01*
X170666666Y-57635714D01*
X170619047Y-57730952D01*
X170571428Y-57778571D01*
X170476190Y-57826190D01*
X170095238Y-57826190D01*
X171095238Y-57778571D02*
X171428571Y-57778571D01*
X171571428Y-58302380D02*
X171095238Y-58302380D01*
X171095238Y-57302380D01*
X171571428Y-57302380D01*
X172333333Y-57778571D02*
X172000000Y-57778571D01*
X172000000Y-58302380D02*
X172000000Y-57302380D01*
X172476190Y-57302380D01*
X173000000Y-57302380D02*
X173000000Y-57540476D01*
X172761904Y-57445238D02*
X173000000Y-57540476D01*
X173238095Y-57445238D01*
X172857142Y-57730952D02*
X173000000Y-57540476D01*
X173142857Y-57730952D01*
X173761904Y-57302380D02*
X173761904Y-57540476D01*
X173523809Y-57445238D02*
X173761904Y-57540476D01*
X174000000Y-57445238D01*
X173619047Y-57730952D02*
X173761904Y-57540476D01*
X173904761Y-57730952D01*
X168452380Y-123998333D02*
X167976190Y-124331666D01*
X168452380Y-124569761D02*
X167452380Y-124569761D01*
X167452380Y-124188809D01*
X167500000Y-124093571D01*
X167547619Y-124045952D01*
X167642857Y-123998333D01*
X167785714Y-123998333D01*
X167880952Y-124045952D01*
X167928571Y-124093571D01*
X167976190Y-124188809D01*
X167976190Y-124569761D01*
X167928571Y-123569761D02*
X167928571Y-123236428D01*
X168452380Y-123093571D02*
X168452380Y-123569761D01*
X167452380Y-123569761D01*
X167452380Y-123093571D01*
X167928571Y-122331666D02*
X167928571Y-122665000D01*
X168452380Y-122665000D02*
X167452380Y-122665000D01*
X167452380Y-122188809D01*
X167452380Y-121665000D02*
X167690476Y-121665000D01*
X167595238Y-121903095D02*
X167690476Y-121665000D01*
X167595238Y-121426904D01*
X167880952Y-121807857D02*
X167690476Y-121665000D01*
X167880952Y-121522142D01*
X167452380Y-120903095D02*
X167690476Y-120903095D01*
X167595238Y-121141190D02*
X167690476Y-120903095D01*
X167595238Y-120665000D01*
X167880952Y-121045952D02*
X167690476Y-120903095D01*
X167880952Y-120760238D01*
%TO.C,J2*%
X160956666Y-66127380D02*
X160956666Y-66841666D01*
X160909047Y-66984523D01*
X160813809Y-67079761D01*
X160670952Y-67127380D01*
X160575714Y-67127380D01*
X161385238Y-66222619D02*
X161432857Y-66175000D01*
X161528095Y-66127380D01*
X161766190Y-66127380D01*
X161861428Y-66175000D01*
X161909047Y-66222619D01*
X161956666Y-66317857D01*
X161956666Y-66413095D01*
X161909047Y-66555952D01*
X161337619Y-67127380D01*
X161956666Y-67127380D01*
%TO.C,J1*%
X155876666Y-66127380D02*
X155876666Y-66841666D01*
X155829047Y-66984523D01*
X155733809Y-67079761D01*
X155590952Y-67127380D01*
X155495714Y-67127380D01*
X156876666Y-67127380D02*
X156305238Y-67127380D01*
X156590952Y-67127380D02*
X156590952Y-66127380D01*
X156495714Y-66270238D01*
X156400476Y-66365476D01*
X156305238Y-66413095D01*
%TO.C,A1*%
X165655714Y-103671666D02*
X166131904Y-103671666D01*
X165560476Y-103957380D02*
X165893809Y-102957380D01*
X166227142Y-103957380D01*
X167084285Y-103957380D02*
X166512857Y-103957380D01*
X166798571Y-103957380D02*
X166798571Y-102957380D01*
X166703333Y-103100238D01*
X166608095Y-103195476D01*
X166512857Y-103243095D01*
%TO.C,RV1*%
X146724761Y-93797380D02*
X146391428Y-93321190D01*
X146153333Y-93797380D02*
X146153333Y-92797380D01*
X146534285Y-92797380D01*
X146629523Y-92845000D01*
X146677142Y-92892619D01*
X146724761Y-92987857D01*
X146724761Y-93130714D01*
X146677142Y-93225952D01*
X146629523Y-93273571D01*
X146534285Y-93321190D01*
X146153333Y-93321190D01*
X147010476Y-92797380D02*
X147343809Y-93797380D01*
X147677142Y-92797380D01*
X148534285Y-93797380D02*
X147962857Y-93797380D01*
X148248571Y-93797380D02*
X148248571Y-92797380D01*
X148153333Y-92940238D01*
X148058095Y-93035476D01*
X147962857Y-93083095D01*
%TO.C,U1*%
X171238095Y-66972380D02*
X171238095Y-67781904D01*
X171285714Y-67877142D01*
X171333333Y-67924761D01*
X171428571Y-67972380D01*
X171619047Y-67972380D01*
X171714285Y-67924761D01*
X171761904Y-67877142D01*
X171809523Y-67781904D01*
X171809523Y-66972380D01*
X172809523Y-67972380D02*
X172238095Y-67972380D01*
X172523809Y-67972380D02*
X172523809Y-66972380D01*
X172428571Y-67115238D01*
X172333333Y-67210476D01*
X172238095Y-67258095D01*
%TD*%
M02*
