M48
; DRILL file {KiCad (5.1.6)-1} date 01/11/22 18:37:26
; FORMAT={-:-/ absolute / inch / decimal}
; #@! TF.CreationDate,2022-01-11T18:37:26-04:00
; #@! TF.GenerationSoftware,Kicad,Pcbnew,(5.1.6)-1
; #@! TF.FileFunction,Plated,1,2,PTH
FMAT,2
INCH
T1C0.0157
T2C0.0315
T3C0.0394
T4C0.0433
%
G90
G05
T1
X5.075Y-2.375
X5.075Y-3.225
X5.25Y-2.375
X5.25Y-2.625
X5.25Y-2.825
X5.25Y-3.025
X5.25Y-3.4
X5.4Y-2.375
X5.425Y-3.275
X5.425Y-3.55
X5.45Y-2.8
X5.55Y-2.6
X5.55Y-3.675
X5.65Y-2.8
X5.65Y-2.975
X5.675Y-3.8
X5.7Y-2.375
X5.7Y-2.6
X5.775Y-3.05
X5.8Y-2.725
X5.85Y-3.45
X5.925Y-2.375
X5.95Y-4.1
X6.05Y-2.95
X6.05Y-3.85
X6.075Y-4.35
X6.075Y-4.725
X6.075Y-4.825
X6.15Y-2.375
X6.15Y-2.525
X6.15Y-2.85
X6.15Y-3.275
X6.15Y-3.65
X6.225Y-4.675
X6.275Y-4.175
X6.275Y-4.5
X6.35Y-2.375
X6.35Y-2.525
X6.35Y-2.725
X6.35Y-3.275
X6.35Y-3.65
X6.45Y-2.95
X6.45Y-4.825
X6.475Y-4.525
X6.51Y-4.05
X6.55Y-4.925
X6.6Y-2.375
X6.65Y-2.55
X6.65Y-4.025
X6.65Y-4.625
X6.775Y-2.65
X6.85Y-4.675
T2
X5.725Y-3.125
X5.725Y-3.425
X5.575Y-3.125
X5.575Y-3.425
T3
X6.825Y-4.4
X6.825Y-4.5
X6.05Y-2.55
X6.05Y-2.65
X6.05Y-2.75
X6.05Y-2.85
X6.05Y-2.95
X6.05Y-3.05
X6.05Y-3.15
X6.05Y-3.25
X6.05Y-3.35
X6.05Y-3.45
X6.05Y-3.55
X6.05Y-3.65
X6.05Y-3.75
X6.05Y-3.85
X6.05Y-3.95
X6.7Y-4.4
X6.7Y-4.5
X6.45Y-2.55
X6.45Y-2.65
X6.45Y-2.75
X6.45Y-2.85
X6.45Y-2.95
X6.45Y-3.05
X6.45Y-3.15
X6.45Y-3.25
X6.45Y-3.35
X6.45Y-3.45
X6.45Y-3.55
X6.45Y-3.65
X6.45Y-3.75
X6.45Y-3.85
X6.45Y-3.95
X5.7Y-3.675
X5.8Y-3.575
X5.8Y-3.775
X5.95Y-2.55
X5.95Y-2.65
X5.95Y-2.75
X5.95Y-2.85
X5.95Y-2.95
X5.95Y-3.05
X5.95Y-3.15
X5.95Y-3.25
X5.95Y-3.35
X5.95Y-3.45
X5.95Y-3.55
X5.95Y-3.65
X5.95Y-3.75
X5.95Y-3.85
X5.95Y-3.95
X6.55Y-2.55
X6.55Y-2.65
X6.55Y-2.75
X6.55Y-2.85
X6.55Y-2.95
X6.55Y-3.05
X6.55Y-3.15
X6.55Y-3.25
X6.55Y-3.35
X6.55Y-3.45
X6.55Y-3.55
X6.55Y-3.65
X6.55Y-3.75
X6.55Y-3.85
X6.55Y-3.95
X6.7717Y-2.75
X6.7717Y-2.85
X6.7717Y-2.95
X6.7717Y-3.05
X6.7717Y-3.15
X6.7717Y-3.25
X6.7717Y-3.35
X6.7717Y-3.45
X6.7717Y-3.55
X6.7717Y-3.65
X6.7717Y-3.75
X6.7717Y-3.85
X6.7717Y-3.95
X6.7717Y-4.05
X6.7717Y-4.15
X6.7717Y-4.25
T4
X5.1Y-2.95
X5.1Y-3.1272
X5.3559Y-2.95
X5.3559Y-3.1272
X5.1Y-2.625
X5.1Y-2.8022
X5.3559Y-2.625
X5.3559Y-2.8022
T0
M30
